<svg width="667" height="497" viewBox="0 0 667 497" fill="none" xmlns="http://www.w3.org/2000/svg">
<g clip-path="url(#clip0_1149_1671)">
<path d="M555.705 458.051H599.868V458.385H555.705V458.051Z" fill="#EEEEEE"/>
<path d="M430.036 462.004H441.627V461.671H430.036V462.004Z" fill="#EEEEEE"/>
<path d="M528.781 445.671H554.371V446.004H528.781V445.671Z" fill="#EEEEEE"/>
<path d="M69.9453 447.911H127.536V448.244H69.9453V447.911Z" fill="#EEEEEE"/>
<path d="M139.408 447.911H147.852V448.244H139.408V447.911Z" fill="#EEEEEE"/>
<path d="M175.295 453.873H300.196V453.54H175.295V453.873Z" fill="#EEEEEE"/>
<path d="M0 436.924H666.667V436.59H0V436.924Z" fill="#EEEEEE"/>
<path d="M460.619 153.76C460.968 157.747 458.019 161.261 454.031 161.611C450.045 161.96 446.529 159.011 446.181 155.024C445.833 151.037 448.781 147.523 452.768 147.173C456.755 146.825 460.269 149.773 460.619 153.76Z" fill="#F8F8F9"/>
<path d="M500.716 150.252C501.064 154.239 498.115 157.754 494.128 158.103C490.141 158.451 486.627 155.502 486.279 151.516C485.929 147.528 488.879 144.015 492.865 143.666C496.852 143.316 500.367 146.266 500.716 150.252Z" fill="#F8F8F9"/>
<path d="M591.852 480.983C591.852 489.321 476.109 496.08 333.333 496.08C190.557 496.08 74.8145 489.321 74.8145 480.983C74.8145 472.645 190.557 465.885 333.333 465.885C476.109 465.885 591.852 472.645 591.852 480.983Z" fill="#F8F8F9"/>
<path d="M484.6 121.162H441.185L410.477 472.162H453.891C466.237 472.162 477.161 462.117 478.241 449.772L505.031 143.553C506.112 131.206 496.947 121.162 484.6 121.162Z" fill="#232946"/>
<path d="M475.741 121.162H328.808C316.463 121.162 305.539 131.206 304.459 143.553L277.668 449.772C276.588 462.117 285.753 472.162 298.1 472.162H445.032C457.379 472.162 468.303 462.117 469.383 449.772L496.173 143.553C497.253 131.206 488.087 121.162 475.741 121.162Z" fill="#EDC432"/>
<path d="M445.032 472.162H298.1C286.417 472.162 277.583 463.167 277.583 451.74C277.583 451.09 277.611 450.434 277.668 449.772L285.069 365.181H285.769L284.603 378.514H291.077L284.843 449.772C284.108 458.174 290.324 464.988 298.728 464.988H445.66C454.064 464.988 461.473 458.174 462.208 449.772L488.999 143.553C489.733 135.149 483.517 128.337 475.113 128.337H436.375C434.089 128.337 431.944 129.836 431.097 132.026C427.965 140.118 420.033 145.662 411.585 145.662H388.679C380.231 145.662 373.268 140.118 371.552 132.026V132.025C371.28 130.744 370.523 129.698 369.483 129.053L369.611 128.56H368.403C367.937 128.414 367.439 128.337 366.92 128.337H328.181C327.292 128.337 326.413 128.413 325.553 128.56H311.545C316.044 124.02 322.223 121.162 328.808 121.162H475.741C487.424 121.162 496.26 130.157 496.26 141.585C496.26 142.233 496.231 142.89 496.173 143.553L469.383 449.772C468.303 462.117 457.379 472.162 445.032 472.162ZM401.681 127.95C398.3 127.95 395.32 130.69 395.024 134.072C394.728 137.453 397.229 140.193 400.609 140.193C403.991 140.193 406.971 137.453 407.267 134.072C407.563 130.69 405.061 127.95 401.681 127.95Z" fill="#232946"/>
<path d="M445.66 464.986H298.728C290.324 464.986 284.108 458.173 284.843 449.77L291.077 378.513H346.039L355.74 341.318C357.003 343.789 359.559 345.444 362.647 345.444H402.659C407.332 345.444 411.452 341.654 411.861 336.981C412.271 332.308 408.813 328.518 404.139 328.518H364.128C361.977 328.518 359.944 329.321 358.336 330.642L357.427 320.056H436.289C439.339 320.056 442.027 317.585 442.293 314.536L442.808 308.653C443.075 305.604 440.82 303.132 437.771 303.132H355.975L355.248 294.669H438.511C441.56 294.669 444.248 292.198 444.515 289.149L445.029 283.266C445.296 280.217 443.04 277.745 439.992 277.745H355.916L361.104 257.854C368.159 264.948 378.041 269.282 389.316 269.282C413.091 269.282 434.049 250.009 436.129 226.236C438.209 202.461 420.623 183.189 396.848 183.189C384.012 183.189 371.997 188.806 363.331 197.718L362.6 189.216L374.944 141.89H366.133L369.483 129.052C370.523 129.697 371.28 130.742 371.552 132.024V132.025C373.268 140.117 380.231 145.661 388.679 145.661H411.585C420.033 145.661 427.965 140.117 431.097 132.025C431.944 129.834 434.089 128.335 436.375 128.335H475.113C483.517 128.335 489.733 135.148 488.999 143.552L462.208 449.77C461.473 458.173 454.064 464.986 445.66 464.986ZM359.305 390.698C354.367 390.698 350.013 394.701 349.581 399.639L346.849 430.873C346.417 435.811 350.069 439.816 355.008 439.816H397.832C402.771 439.816 407.124 435.811 407.556 430.873L410.288 399.639C410.721 394.701 407.068 390.698 402.129 390.698H359.305ZM472.361 132.999C471.372 132.999 470.497 133.802 470.412 134.794L469.739 142.488C469.652 143.478 470.385 144.281 471.375 144.281C472.365 144.281 473.239 143.478 473.327 142.488L473.999 134.794C474.085 133.802 473.353 132.999 472.361 132.999ZM464.995 135.208C464.004 135.208 463.129 136.01 463.043 137.001L462.563 142.488C462.476 143.478 463.209 144.281 464.2 144.281C465.191 144.281 466.064 143.478 466.151 142.488L466.631 137.001C466.717 136.01 465.984 135.208 464.995 135.208ZM457.625 137.416C456.635 137.416 455.761 138.218 455.675 139.209L455.388 142.488C455.301 143.478 456.033 144.281 457.025 144.281C458.016 144.281 458.889 143.478 458.975 142.488L459.263 139.209C459.349 138.218 458.616 137.416 457.625 137.416ZM368.403 128.558H325.553C326.413 128.412 327.292 128.335 328.181 128.335H366.92C367.439 128.335 367.937 128.413 368.403 128.558Z" fill="#7F5283"/>
<path d="M438.511 294.67H335.679C332.631 294.67 330.375 292.199 330.641 289.15L331.156 283.267C331.423 280.218 334.111 277.746 337.16 277.746H439.992C443.04 277.746 445.296 280.218 445.029 283.267L444.515 289.15C444.248 292.199 441.56 294.67 438.511 294.67Z" fill="white"/>
<path d="M436.289 320.057H333.457C330.409 320.057 328.153 317.586 328.42 314.537L328.935 308.654C329.201 305.605 331.889 303.133 334.939 303.133H437.771C440.82 303.133 443.075 305.605 442.808 308.654L442.293 314.537C442.027 317.586 439.339 320.057 436.289 320.057Z" fill="white"/>
<path d="M400.609 140.191C397.229 140.191 394.728 137.451 395.024 134.07C395.32 130.689 398.3 127.949 401.681 127.949C405.061 127.949 407.563 130.689 407.267 134.07C406.971 137.451 403.991 140.191 400.609 140.191ZM401.439 130.727C399.591 130.727 397.963 132.223 397.801 134.07C397.639 135.917 399.005 137.415 400.853 137.415C402.7 137.415 404.328 135.917 404.489 134.07C404.651 132.223 403.285 130.727 401.439 130.727Z" fill="#688DD0"/>
<path d="M400.853 137.416C399.005 137.416 397.639 135.917 397.801 134.071C397.963 132.224 399.591 130.728 401.439 130.728C403.285 130.728 404.651 132.224 404.489 134.071C404.328 135.917 402.7 137.416 400.853 137.416Z" fill="#5A7FC8"/>
<path d="M457.025 144.281C456.033 144.281 455.301 143.479 455.388 142.488L455.675 139.209C455.761 138.219 456.635 137.416 457.625 137.416C458.616 137.416 459.349 138.219 459.263 139.209L458.975 142.488C458.889 143.479 458.016 144.281 457.025 144.281Z" fill="#F2F7FC"/>
<path d="M471.375 144.281C470.385 144.281 469.652 143.479 469.739 142.488L470.412 134.795C470.497 133.803 471.372 133 472.361 133C473.353 133 474.085 133.803 473.999 134.795L473.327 142.488C473.239 143.479 472.365 144.281 471.375 144.281Z" fill="#F2F7FC"/>
<path d="M464.2 144.281C463.209 144.281 462.476 143.479 462.563 142.488L463.043 137.001C463.129 136.011 464.004 135.208 464.995 135.208C465.984 135.208 466.717 136.011 466.631 137.001L466.151 142.488C466.064 143.479 465.191 144.281 464.2 144.281Z" fill="#F2F7FC"/>
<path d="M436.129 226.237C434.049 250.01 413.091 269.283 389.316 269.283C365.541 269.283 347.955 250.01 350.035 226.237C352.115 202.462 373.075 183.19 396.848 183.19C420.623 183.19 438.209 202.462 436.129 226.237Z" fill="white"/>
<path d="M393.228 224.564C381.915 224.564 372.365 228.868 371.548 238.22L370.64 248.602H411.611L412.52 238.22C413.337 228.868 404.543 224.564 393.228 224.564Z" fill="#EDC432"/>
<path d="M393.603 220.291C398.853 220.291 401.275 216.034 401.733 210.783C402.193 205.532 400.516 201.276 395.265 201.276C390.015 201.276 387.593 205.532 387.135 210.783C386.675 216.034 388.352 220.291 393.603 220.291Z" fill="#EDC432"/>
<path d="M433.817 285.904C431.023 285.904 428.665 286.968 428.463 289.278L428.239 291.842H438.359L438.583 289.278C438.784 286.968 436.612 285.904 433.817 285.904Z" fill="#EDC432"/>
<path d="M433.911 284.85C435.207 284.85 435.805 283.798 435.917 282.5C436.032 281.204 435.617 280.154 434.321 280.154C433.024 280.154 432.425 281.204 432.312 282.5C432.199 283.798 432.613 284.85 433.911 284.85Z" fill="#EDC432"/>
<path d="M402.659 345.443H362.647C357.973 345.443 354.516 341.654 354.925 336.981C355.333 332.307 359.453 328.518 364.128 328.518H404.139C408.813 328.518 412.271 332.307 411.861 336.981C411.452 341.654 407.332 345.443 402.659 345.443Z" fill="#EDC432"/>
<path d="M397.832 439.816H355.008C350.069 439.816 346.417 435.812 346.849 430.874L349.581 399.64C350.013 394.702 354.367 390.699 359.305 390.699H402.129C407.068 390.699 410.721 394.702 410.288 399.64L407.556 430.874C407.124 435.812 402.771 439.816 397.832 439.816Z" fill="#EDC432"/>
<path d="M377.647 425.787C375.883 425.787 374.576 424.356 374.731 422.591L375.672 411.837C374.439 410.856 373.709 409.299 373.864 407.53C374.124 404.558 376.744 402.149 379.716 402.149C382.687 402.149 384.885 404.558 384.625 407.53C384.471 409.299 383.469 410.855 382.064 411.837L381.124 422.591C380.969 424.356 379.413 425.787 377.647 425.787Z" fill="#7F5283"/>
<path d="M402.508 397.199H396.989L398.341 381.746C399.155 372.46 392.26 364.905 382.973 364.905C373.688 364.905 365.472 372.46 364.66 381.746L363.307 397.199H357.788L359.14 381.746C360.22 369.417 371.127 359.386 383.456 359.386C395.787 359.386 404.939 369.417 403.861 381.746L402.508 397.199Z" fill="#EDC432"/>
<path d="M432.057 306.017C433.199 306.017 434.047 306.945 433.947 308.088L433.817 309.57H429.677L429.807 308.088C429.907 306.945 430.917 306.017 432.057 306.017ZM434.495 309.57L434.625 308.088C434.757 306.572 433.632 305.338 432.117 305.338C430.601 305.338 429.261 306.572 429.129 308.088L428.999 309.57C428.393 309.572 427.861 310.061 427.808 310.666L427.463 314.609C427.411 315.214 427.859 315.705 428.464 315.705H433.957C434.563 315.705 435.096 315.214 435.149 314.609L435.495 310.666C435.548 310.061 435.1 309.572 434.495 309.57Z" fill="#EDC432"/>
<path d="M351.796 311.15L349.879 310.754C349.652 310.708 349.535 310.469 349.629 310.245L350.428 308.357C350.6 307.952 350.107 307.653 349.796 307.973L348.347 309.465C348.175 309.642 347.899 309.642 347.759 309.465L346.571 307.973C346.315 307.653 345.771 307.952 345.871 308.357L346.339 310.245C346.395 310.469 346.236 310.708 346 310.754L344.013 311.15C343.587 311.236 343.535 311.834 343.945 311.92L345.864 312.316C346.091 312.362 346.208 312.601 346.113 312.825L345.315 314.713C345.143 315.118 345.636 315.418 345.947 315.097L347.396 313.605C347.568 313.428 347.844 313.428 347.984 313.605L349.172 315.097C349.428 315.418 349.972 315.118 349.872 314.713L349.404 312.825C349.348 312.601 349.507 312.362 349.743 312.316L351.729 311.92C352.156 311.834 352.208 311.236 351.796 311.15Z" fill="#1D2A30"/>
<path d="M364.415 311.15L362.496 310.754C362.269 310.708 362.152 310.469 362.247 310.245L363.045 308.357C363.217 307.952 362.724 307.653 362.413 307.973L360.964 309.465C360.792 309.642 360.517 309.642 360.376 309.465L359.188 307.973C358.933 307.653 358.388 307.952 358.488 308.357L358.956 310.245C359.012 310.469 358.853 310.708 358.617 310.754L356.631 311.15C356.204 311.236 356.152 311.834 356.564 311.92L358.481 312.316C358.708 312.362 358.825 312.601 358.731 312.825L357.932 314.713C357.76 315.118 358.253 315.418 358.564 315.097L360.013 313.605C360.185 313.428 360.461 313.428 360.601 313.605L361.789 315.097C362.045 315.418 362.589 315.118 362.489 314.713L362.021 312.825C361.965 312.601 362.124 312.362 362.36 312.316L364.347 311.92C364.773 311.834 364.825 311.236 364.415 311.15Z" fill="#1D2A30"/>
<path d="M377.031 311.15L375.113 310.754C374.887 310.708 374.771 310.469 374.864 310.245L375.664 308.357C375.835 307.952 375.341 307.653 375.031 307.973L373.581 309.465C373.409 309.642 373.135 309.642 372.993 309.465L371.805 307.973C371.551 307.653 371.004 307.952 371.105 308.357L371.573 310.245C371.629 310.469 371.471 310.708 371.235 310.754L369.249 311.15C368.821 311.236 368.769 311.834 369.181 311.92L371.099 312.316C371.325 312.362 371.443 312.601 371.348 312.825L370.549 314.713C370.377 315.118 370.871 315.418 371.181 315.097L372.631 313.605C372.803 313.428 373.079 313.428 373.22 313.605L374.408 315.097C374.663 315.418 375.208 315.118 375.107 314.713L374.639 312.825C374.584 312.601 374.743 312.362 374.977 312.316L376.964 311.92C377.391 311.834 377.444 311.236 377.031 311.15Z" fill="#1D2A30"/>
<path d="M389.649 311.15L387.731 310.754C387.504 310.708 387.388 310.469 387.481 310.245L388.28 308.357C388.452 307.952 387.96 307.653 387.648 307.973L386.199 309.465C386.028 309.642 385.751 309.642 385.611 309.465L384.423 307.973C384.168 307.653 383.623 307.952 383.723 308.357L384.192 310.245C384.247 310.469 384.088 310.708 383.853 310.754L381.865 311.15C381.44 311.236 381.387 311.834 381.799 311.92L383.716 312.316C383.944 312.362 384.06 312.601 383.965 312.825L383.167 314.713C382.996 315.118 383.488 315.418 383.8 315.097L385.249 313.605C385.42 313.428 385.696 313.428 385.837 313.605L387.025 315.097C387.28 315.418 387.825 315.118 387.724 314.713L387.256 312.825C387.2 312.601 387.36 312.362 387.595 312.316L389.581 311.92C390.008 311.834 390.06 311.236 389.649 311.15Z" fill="#1D2A30"/>
<path d="M402.267 311.15L400.349 310.754C400.121 310.708 400.005 310.469 400.1 310.245L400.899 308.357C401.069 307.952 400.577 307.653 400.265 307.973L398.816 309.465C398.644 309.642 398.369 309.642 398.228 309.465L397.04 307.973C396.785 307.653 396.24 307.952 396.34 308.357L396.808 310.245C396.864 310.469 396.705 310.708 396.471 310.754L394.484 311.15C394.056 311.236 394.004 311.834 394.416 311.92L396.333 312.316C396.56 312.362 396.677 312.601 396.584 312.825L395.784 314.713C395.613 315.118 396.105 315.418 396.417 315.097L397.867 313.605C398.037 313.428 398.313 313.428 398.455 313.605L399.643 315.097C399.897 315.418 400.443 315.118 400.341 314.713L399.873 312.825C399.819 312.601 399.977 312.362 400.213 312.316L402.199 311.92C402.625 311.834 402.679 311.236 402.267 311.15Z" fill="#1D2A30"/>
<path d="M414.884 311.15L412.967 310.754C412.74 310.708 412.623 310.469 412.717 310.245L413.516 308.357C413.687 307.952 413.195 307.653 412.884 307.973L411.433 309.465C411.263 309.642 410.987 309.642 410.845 309.465L409.659 307.973C409.403 307.653 408.857 307.952 408.959 308.357L409.427 310.245C409.481 310.469 409.323 310.708 409.088 310.754L407.101 311.15C406.675 311.236 406.621 311.834 407.033 311.92L408.951 312.316C409.179 312.362 409.296 312.601 409.2 312.825L408.403 314.713C408.231 315.118 408.723 315.418 409.035 315.097L410.484 313.605C410.656 313.428 410.931 313.428 411.072 313.605L412.26 315.097C412.515 315.418 413.06 315.118 412.96 314.713L412.492 312.825C412.436 312.601 412.595 312.362 412.831 312.316L414.816 311.92C415.244 311.834 415.296 311.236 414.884 311.15Z" fill="#1D2A30"/>
<path d="M384.471 283.542H360.78C359.307 283.542 358.009 284.734 357.881 286.208C357.752 287.68 358.841 288.873 360.313 288.873H384.004C385.476 288.873 386.775 287.68 386.903 286.208C387.032 284.734 385.943 283.542 384.471 283.542Z" fill="#1D2A30"/>
<path d="M408.52 283.542H394.773C393.301 283.542 392.004 284.734 391.875 286.208C391.747 287.68 392.835 288.873 394.307 288.873H408.053C409.527 288.873 410.824 287.68 410.952 286.208C411.081 284.734 409.992 283.542 408.52 283.542Z" fill="#1D2A30"/>
<path d="M426.668 404.411C417.736 407.978 409.905 413.179 404.545 419.096C401.404 416.422 396.936 414.565 391.58 413.715L390.951 413.614L390.676 416.76L391.027 416.893C396.312 418.891 400.616 422.435 403.471 427.141L403.919 427.881L404.415 427.087C409.908 418.291 417.919 410.925 426.969 406.341L427.276 406.184L427.459 404.095L426.668 404.411Z" fill="#232946"/>
<path d="M291.077 378.514H284.603L285.769 365.18H292.244L291.077 378.514Z" fill="#597EC8"/>
<path d="M346.039 378.514H291.077L292.244 365.18H340.705L352.476 320.056H357.427L358.336 330.643C356.448 332.192 355.145 334.458 354.925 336.982C354.787 338.567 355.093 340.051 355.74 341.319L346.039 378.514ZM355.975 303.132H351.785L351.059 294.67H355.248L355.975 303.132ZM355.916 277.746H349.605L348.987 270.532L354.585 249.068C356.335 252.314 358.532 255.268 361.104 257.855L355.916 277.746Z" fill="#869FD4"/>
<path d="M355.248 294.67H351.059L349.605 277.746H355.916L354.32 283.866L355.248 294.67Z" fill="#CECDCC"/>
<path d="M357.427 320.057H352.476L353.049 317.857L351.785 303.133H355.975L356.661 311.143L356.631 311.15C356.204 311.235 356.152 311.834 356.564 311.919L356.732 311.954L357.427 320.057Z" fill="#CECDCC"/>
<path d="M359.521 202.131L357.268 175.883L366.133 141.891H374.944L362.6 189.216L363.331 197.719C361.976 199.112 360.703 200.586 359.521 202.131Z" fill="#869FD4"/>
<path d="M361.104 257.855C358.532 255.269 356.335 252.314 354.585 249.069L361.331 223.207L359.521 202.131C360.703 200.586 361.976 199.113 363.331 197.719L366.664 236.542L361.104 257.855Z" fill="#CECDCC"/>
<path d="M355.74 341.318C355.093 340.05 354.787 338.566 354.925 336.981C355.145 334.457 356.448 332.192 358.336 330.642L358.383 331.189L355.74 341.318Z" fill="#395EB4"/>
<path d="M356.732 311.953L356.564 311.918C356.152 311.833 356.204 311.234 356.631 311.149L356.661 311.142L356.732 311.953Z" fill="#182124"/>
<path d="M357.268 175.882L369.611 128.558H214.245L201.903 175.882L205.965 223.206L193.621 270.532L197.684 317.856L185.34 365.18H340.705L353.049 317.856L348.987 270.532L361.331 223.206L357.268 175.882Z" fill="#EDC432"/>
<path d="M353.049 317.855H234.887C234.335 301.286 233.272 282.81 232.5 270.531H348.987L353.049 317.855Z" fill="#C7D9F2"/>
<path d="M361.331 223.207H332.111C336.628 219.07 339.297 214.467 339.297 206.231V197.692C339.297 196.776 338.743 196.042 337.985 195.724V192.995C337.985 191.763 336.984 190.859 335.835 190.859C335.615 190.859 335.391 190.891 335.165 190.962C333.832 191.379 332.121 191.63 330.259 191.63C327.516 191.63 325.107 191.086 323.735 190.268C323.359 190.043 322.945 189.931 322.532 189.931C322.388 189.931 322.244 189.944 322.101 189.972C321.836 190.023 321.575 190.122 321.329 190.268C319.959 191.086 317.549 191.63 314.805 191.63C314.792 191.63 314.777 191.63 314.763 191.63C312.916 191.626 311.224 191.375 309.899 190.962C309.675 190.891 309.449 190.859 309.229 190.859C308.08 190.859 307.08 191.763 307.08 192.995V194.44H246.692C243.864 194.44 241.36 195.827 239.824 197.958C238.295 196.188 236.745 194.439 235.163 192.718L234.008 193.726C232.795 186.303 231.083 184.37 231.083 184.37C231.083 184.37 224.895 182.667 218.301 182.056C217.844 181.007 217.507 179.56 218.229 178.275C217.344 178.018 216.024 177.864 214.463 177.791C214.329 177.166 214.259 176.526 214.239 175.883H357.267L369.611 128.559L357.268 175.883L361.331 223.207ZM243.364 223.207H234.865C235.029 220.024 235.127 217.092 235.167 214.394C236.936 216.312 238.727 218.214 240.531 220.103C241.201 221.36 242.179 222.428 243.364 223.207Z" fill="#C7D9F2"/>
<path d="M357.267 175.883H214.239C214.195 174.54 214.368 173.185 214.655 171.937C218.956 170.547 222.359 166.437 222.532 161.341C222.788 153.855 219.383 142.361 211.164 140.372L214.245 128.559H369.611L357.267 175.883Z" fill="#E4EEF9"/>
<path d="M348.987 270.531H232.5C231.971 262.129 231.579 256.629 231.579 256.629H215.716H197.247C207.585 256.629 222.261 256.629 231.579 256.629C233.392 243.199 234.4 232.198 234.865 223.206H243.364C243.492 223.29 243.623 223.371 243.755 223.447C244.099 223.802 244.443 224.155 244.788 224.509L245.319 225.047C245.528 225.247 245.725 225.455 245.949 225.639C246.392 226.011 246.835 226.381 247.321 226.695C248.269 227.355 249.311 227.87 250.385 228.258C251.896 228.799 253.483 229.07 255.063 229.07C255.736 229.07 256.408 229.021 257.072 228.922C258.18 228.751 259.275 228.47 260.297 228.027C260.816 227.822 261.304 227.555 261.788 227.289C262.032 227.159 262.256 226.998 262.488 226.851C262.689 226.715 263.011 226.506 263.085 226.437L265.433 224.59H316.707C316.859 224.59 317.007 224.575 317.156 224.567C317.897 225.182 318.668 225.794 319.487 226.413C320.465 227.154 321.497 227.907 322.577 228.69C322.952 228.962 323.399 229.099 323.844 229.099C324.291 229.099 324.736 228.962 325.112 228.69C327.759 226.77 330.115 225.034 332.111 223.206H361.331L354.585 249.067L348.987 270.531Z" fill="#E4EEF9"/>
<path d="M340.705 365.18H233.508C234.356 356.834 234.952 349.652 235.132 344.63C235.377 337.749 235.231 328.173 234.887 317.856H353.049L352.476 320.056L340.705 365.18ZM206.621 365.18H195.383C197.916 356.738 199.925 349.482 201.02 344.454C201.089 344.137 201.159 343.813 201.229 343.482C201.229 343.486 201.231 343.492 201.231 343.497C202.349 338.237 203.652 331.256 205.008 323.533C205.137 322.796 205.267 322.056 205.397 321.306C205.801 330.817 206.132 339.724 206.3 346.654C206.412 351.249 206.519 357.69 206.621 365.18Z" fill="#E4EEF9"/>
<path d="M332.111 223.207H324.88C332.897 217.348 337.985 212.904 337.985 201.532V195.724C338.743 196.042 339.297 196.776 339.297 197.692V206.231C339.297 214.467 336.628 219.07 332.111 223.207ZM320.185 223.207H267.136C268.347 222.175 269.555 221.051 270.753 219.892H315.395C315.547 219.892 315.697 219.888 315.847 219.882C317.171 220.978 318.623 222.066 320.185 223.207ZM243.52 223.207H243.364C242.179 222.428 241.201 221.36 240.531 220.103C241.524 221.142 242.52 222.176 243.52 223.207Z" fill="#9CACD3"/>
<path d="M323.844 229.1C323.399 229.1 322.952 228.962 322.577 228.69C321.497 227.908 320.465 227.154 319.487 226.413C318.668 225.794 317.897 225.182 317.156 224.568C317.007 224.576 316.859 224.59 316.707 224.59H265.433L266.072 224.088C266.428 223.804 266.781 223.509 267.136 223.206H320.185C320.54 223.465 320.899 223.726 321.264 223.992C321.64 224.265 322.087 224.401 322.532 224.401C322.979 224.401 323.424 224.264 323.8 223.992C324.165 223.726 324.525 223.465 324.88 223.206H332.111C330.115 225.034 327.759 226.77 325.112 228.69C324.736 228.962 324.291 229.1 323.844 229.1ZM243.755 223.448C243.623 223.372 243.492 223.29 243.364 223.206H243.52C243.599 223.288 243.677 223.368 243.755 223.448Z" fill="#B5BCCF"/>
<path d="M315.395 219.893H246.692C242.019 219.893 238.229 216.105 238.229 211.431V202.902C238.229 198.229 242.019 194.441 246.692 194.441H315.395C320.068 194.441 323.857 198.229 323.857 202.902V211.431C323.857 216.105 320.068 219.893 315.395 219.893Z" fill="#EDC432"/>
<path d="M330.259 191.629C327.516 191.629 325.107 191.085 323.735 190.267C322.981 189.818 322.083 189.818 321.329 190.267C319.959 191.085 317.549 191.629 314.805 191.629C312.943 191.629 311.233 191.378 309.899 190.961C308.5 190.523 307.08 191.527 307.08 192.994V201.531C307.08 213.405 312.627 217.726 321.264 223.991C322.016 224.537 323.048 224.537 323.8 223.991C332.439 217.726 337.985 213.405 337.985 201.531V192.994C337.985 191.527 336.565 190.523 335.165 190.961C333.832 191.378 332.121 191.629 330.259 191.629Z" fill="#EDC432"/>
<path d="M322.532 224.402V189.932C322.945 189.932 323.359 190.044 323.735 190.269C325.107 191.086 327.516 191.63 330.259 191.63C332.121 191.63 333.832 191.38 335.165 190.962C335.391 190.892 335.615 190.86 335.835 190.86C336.984 190.86 337.985 191.764 337.985 192.996V201.533C337.985 213.406 332.439 217.728 323.8 223.993C323.424 224.265 322.979 224.402 322.532 224.402Z" fill="#799BD7"/>
<path d="M322.532 224.402C322.087 224.402 321.64 224.266 321.264 223.993C321.64 224.265 322.087 224.402 322.532 224.402Z" fill="#C5C9D8"/>
<path d="M314.763 191.629C312.916 191.625 311.223 191.374 309.899 190.961C311.224 191.374 312.916 191.625 314.763 191.629Z" fill="#D4E1F5"/>
<path d="M322.532 224.402C322.087 224.402 321.64 224.265 321.264 223.993C319.287 222.558 317.472 221.226 315.847 219.882C310.377 215.353 307.08 210.688 307.08 201.533V192.996C307.08 191.764 308.08 190.86 309.229 190.86C309.449 190.86 309.675 190.892 309.899 190.962C311.223 191.376 312.916 191.626 314.763 191.63C314.777 191.63 314.792 191.63 314.805 191.63C317.549 191.63 319.959 191.086 321.329 190.269C321.575 190.122 321.836 190.024 322.101 189.973C322.244 189.945 322.388 189.932 322.532 189.932V224.402Z" fill="#96B3E2"/>
<path d="M334.916 199.202C329.333 201.512 324.556 204.881 321.42 208.713C319.233 206.981 316.235 205.778 312.717 205.228L312.305 205.164V207.201L312.54 207.286C316.076 208.581 319.064 210.876 321.179 213.922L321.512 214.402L321.788 213.888C324.848 208.192 329.617 203.42 335.22 200.452L335.409 200.352V198.997L334.916 199.202Z" fill="#1D2A30"/>
<path d="M366.868 141.867H360.973C357.704 141.867 355.287 139.218 355.572 135.947L356.088 130.054C356.375 126.785 359.256 124.135 362.525 124.135H368.419C371.688 124.135 374.107 126.785 373.82 130.054L373.305 135.947C373.019 139.218 370.137 141.867 366.868 141.867Z" fill="#EDC432"/>
<path d="M369.317 130.041L368.039 128.638L364.819 131.599L362.117 128.638L360.592 130.041L363.295 133.002L360.075 135.962L361.355 137.363L364.573 134.403L367.275 137.363L368.8 135.962L366.099 133.002L369.317 130.041Z" fill="white"/>
<path d="M235.163 192.717C238.58 196.433 241.844 200.282 245.068 204.167C248.296 208.049 251.445 211.999 254.555 215.983C254.691 216.158 254.636 216.087 254.668 216.138L254.705 216.217L254.799 216.354L255.039 216.617C255.228 216.786 255.487 216.915 255.776 216.967C255.917 216.99 256.069 217.01 256.223 216.994L256.465 216.977L256.588 216.949C256.611 216.938 256.621 216.939 256.632 216.939C256.653 216.941 256.676 216.942 256.797 216.87L260.136 215.059C264.617 212.689 269.132 210.369 273.804 208.287L277.708 213.122C273.945 216.585 270.025 220.914 266.072 224.087L263.085 226.437C263.011 226.506 262.689 226.715 262.488 226.851C262.256 226.998 262.032 227.159 261.788 227.289C261.304 227.555 260.816 227.822 260.297 228.027C259.275 228.47 258.18 228.751 257.072 228.922C254.849 229.253 252.54 229.03 250.385 228.258C249.311 227.87 248.269 227.355 247.321 226.695C246.835 226.381 246.392 226.011 245.949 225.639C245.725 225.455 245.528 225.247 245.319 225.047L244.788 224.509C241.259 220.89 237.771 217.237 234.36 213.515C230.945 209.795 227.573 206.041 224.352 202.153L235.163 192.717Z" fill="#D04648"/>
<path d="M271.987 211.236L275.096 201.252L283.277 205.329C283.277 205.329 282.085 212.613 276.129 213.877L271.987 211.236Z" fill="#D04648"/>
<path d="M278.377 198.484L285.756 200.515L283.277 205.328L275.096 201.251L278.377 198.484Z" fill="#D04648"/>
<path d="M192.125 195.437C191.235 199.678 190.147 203.873 189.007 208.054C187.872 212.237 186.635 216.394 185.345 220.539L184.865 222.094L184.625 222.873C184.575 223.042 184.543 223.083 184.496 223.198C184.349 223.591 184.261 224.018 184.244 224.466C184.221 225.354 184.432 226.342 185.012 227.199C185.06 227.338 185.521 227.821 185.879 228.21L186.987 229.414L189.168 231.858C190.607 233.507 192.037 235.162 193.397 236.902L188.751 242.279C186.833 241.187 184.987 240.011 183.147 238.829L180.411 237.025L179.06 236.105C178.6 235.783 178.229 235.57 177.495 234.961C174.959 232.81 173.064 229.757 172.369 226.365C172.015 224.674 171.928 222.909 172.125 221.163C172.177 220.746 172.256 220.257 172.32 219.898L172.461 219.097L172.745 217.494C173.492 213.218 174.291 208.953 175.191 204.714C176.085 200.474 177.033 196.246 178.179 192.066L192.125 195.437Z" fill="#D04648"/>
<path d="M188.833 236.52L194.335 233.708L196.761 243.057C196.761 243.057 192.345 244.751 188.929 242.577L188.833 236.52Z" fill="#D04648"/>
<path d="M201.936 230.717L202.185 239.295L196.043 243.312L193.912 233.89L201.936 230.717Z" fill="#D04648"/>
<path d="M219.923 151.35C220.057 152.012 220.516 152.476 220.948 152.388C221.38 152.301 221.621 151.693 221.487 151.033C221.353 150.372 220.893 149.908 220.463 149.996C220.029 150.082 219.789 150.69 219.923 151.35Z" fill="#1D2A30"/>
<path d="M220.456 152.489C220.456 152.489 222.733 155.997 224.761 157.5C223.813 158.829 221.724 158.733 221.724 158.733L220.456 152.489Z" fill="#BB2024"/>
<path d="M216.757 148.174L216.489 148.068C216.328 147.919 216.319 147.67 216.468 147.508C217.955 145.899 219.759 146.186 219.836 146.198C220.052 146.235 220.196 146.441 220.16 146.655C220.123 146.871 219.916 147.014 219.705 146.979C219.645 146.97 218.235 146.763 217.048 148.047L216.757 148.174Z" fill="#1D2A30"/>
<path d="M200.695 160.645C202.165 166.761 203.633 177.968 198.384 182.049C198.384 182.049 200.435 188.252 214.377 188.252C229.709 188.252 221.704 184.256 221.704 184.256C213.337 182.628 213.553 175.36 215.011 170.609L200.695 160.645Z" fill="#D04648"/>
<path d="M196.751 183.183C195.837 181.484 194.832 179.539 196.912 178.93C199.201 178.26 213.909 177.018 218.229 178.275C216.903 180.636 219.149 183.539 219.149 183.539L196.751 183.183Z" fill="#1D2A30"/>
<path d="M208.928 469.285H218.548L219.505 449.925H209.885L208.928 469.285Z" fill="#D04648"/>
<path d="M147.884 466.617L157.628 467.133L163.548 448.058L153.804 447.544L147.884 466.617Z" fill="#D04648"/>
<path d="M157.329 466.363L148.149 464.375C147.816 464.303 147.476 464.472 147.333 464.781L144.147 471.696C143.816 472.413 144.253 473.254 145.028 473.408C148.245 474.046 149.843 474.196 153.88 475.069C156.363 475.608 161.969 476.973 165.399 477.716C168.753 478.442 170.011 475.164 168.673 474.553C162.676 471.813 160.171 469.4 158.547 467.152C158.255 466.746 157.817 466.468 157.329 466.363Z" fill="#1D2A30"/>
<path d="M218.039 468.316H208.909C208.567 468.316 208.272 468.554 208.197 468.887L206.545 476.319C206.375 477.088 206.96 477.819 207.749 477.806C211.041 477.75 215.801 477.556 219.94 477.556C224.78 477.556 228.96 477.82 234.636 477.82C238.068 477.82 239.021 474.351 237.584 474.036C231.044 472.606 225.704 472.452 220.053 468.968C219.439 468.59 218.76 468.316 218.039 468.316Z" fill="#1D2A30"/>
<path d="M180.967 184.875C173.707 188.327 171.733 209.254 171.733 209.254L189.693 217.553C189.693 217.553 194.151 210.986 194.492 200.661C194.851 189.842 188.389 181.346 180.967 184.875Z" fill="#1D2A30"/>
<path d="M231.083 184.369C231.083 184.369 239.981 194.42 231.579 256.629C218.105 256.629 193.419 256.629 186.863 256.629C186.555 249.765 190.868 216.281 184.248 183.938C184.248 183.938 191.912 182.4 199.216 182.049C204.929 181.773 213.201 181.59 218.224 182.049C224.847 182.653 231.083 184.369 231.083 184.369Z" fill="#EDC432"/>
<mask id="mask0_1149_1671" style="mask-type:luminance" maskUnits="userSpaceOnUse" x="184" y="181" width="52" height="76">
<path d="M231.579 256.629C218.105 256.629 193.419 256.629 186.863 256.629C186.852 256.388 186.847 256.114 186.847 255.808C186.845 251.253 187.96 239.672 187.961 225.046C187.961 212.713 187.169 198.214 184.248 183.938C184.248 183.938 191.912 182.4 199.216 182.049C202.411 181.894 206.407 181.769 210.187 181.769C213.165 181.769 216.009 181.848 218.224 182.049C224.847 182.653 231.083 184.369 231.083 184.369C231.083 184.369 234.163 187.848 234.988 203.378L234.821 203.234L225.928 198.484C225.025 212.176 231.145 220.76 234.787 224.516C235.091 219.192 235.207 214.55 235.187 210.509C235.188 210.826 235.188 211.146 235.188 211.472C235.189 212.414 235.181 213.386 235.167 214.393C235.012 224.716 234.035 238.445 231.579 256.629Z" fill="white"/>
</mask>
<g mask="url(#mask0_1149_1671)">
<path d="M184.248 256.629H235.207V181.769H184.248V256.629Z" fill="#B1C7EB"/>
</g>
<path d="M235.187 210.51C235.172 207.89 235.101 205.519 234.988 203.379L234.992 203.383C235.104 205.522 235.173 207.89 235.187 210.51Z" fill="#A4383A"/>
<path d="M234.787 224.516C231.145 220.76 225.025 212.176 225.928 198.484L234.821 203.234L234.988 203.378C235.101 205.518 235.172 207.889 235.187 210.509C235.207 214.55 235.091 219.192 234.787 224.516Z" fill="#889DD2"/>
<path d="M209.392 459.908H209.388L209.472 458.215H209.476L209.392 459.908Z" fill="#CECDCC"/>
<path d="M219.012 459.908H209.392L209.476 458.215H219.095L219.017 459.8L219.012 459.908Z" fill="#A4383A"/>
<path d="M150.752 457.381H150.744L151.553 454.777L151.559 454.778L150.752 457.381Z" fill="#CECDCC"/>
<path d="M160.492 457.895L150.752 457.38L151.559 454.777L160.836 456.785L160.492 457.895Z" fill="#A4383A"/>
<path d="M197.599 154.429C199.747 162.443 200.596 167.243 205.541 170.575C212.98 175.589 222.243 169.835 222.532 161.341C222.793 153.695 219.237 141.874 210.637 140.258C202.164 138.667 195.451 146.415 197.599 154.429Z" fill="#D04648"/>
<path d="M215.716 256.629C215.716 256.629 206.228 320.518 201.02 344.454C195.316 370.665 164.732 457.385 164.732 457.385L149.767 454.145C149.767 454.145 168.944 383.474 173.732 346.83C175.6 332.53 177.856 309.481 180.708 290.261C183.471 271.649 186.863 256.629 186.863 256.629H215.716Z" fill="#1D2A30"/>
<path d="M168.315 452.387L165.527 457.801L148.688 454.155L150.108 449.094L168.315 452.387Z" fill="#EDC432"/>
<path d="M165.527 457.801L160.836 456.785L151.559 454.777L148.688 454.155L150.108 449.094L168.315 452.387L165.527 457.801Z" fill="#B4CAEC"/>
<path d="M201.231 343.498C201.231 343.493 201.229 343.487 201.229 343.483C202.349 338.222 203.652 331.247 205.008 323.534C203.652 331.257 202.349 338.238 201.231 343.498Z" fill="#505763"/>
<path d="M201.229 343.482C200.225 327.462 199.313 299.945 203.773 286.766C204.317 297.546 204.911 309.86 205.397 321.305C205.267 322.054 205.137 322.796 205.008 323.533C203.652 331.246 202.349 338.221 201.229 343.482Z" fill="#141414"/>
<path d="M231.579 256.63C231.579 256.63 236.041 319.137 235.132 344.631C234.185 371.15 221.612 457.977 221.612 457.977H207.449C207.449 457.977 206.931 372.698 206.3 346.655C205.613 318.263 202.185 256.63 202.185 256.63H231.579Z" fill="#1D2A30"/>
<path d="M224.337 452.335L223.539 458.215H206.311L205.845 452.966L224.337 452.335Z" fill="#EDC432"/>
<path d="M223.539 458.215H206.311L205.845 452.966L224.337 452.335L224.173 453.54L224.128 453.873L223.539 458.215Z" fill="#B4CAEC"/>
<path d="M225.865 196.08C225.865 212.854 234.792 219.76 234.792 219.76L249.301 205.576C249.301 205.576 244.368 197.076 237.583 189.273C229.201 179.634 225.865 185.292 225.865 196.08Z" fill="#1D2A30"/>
<path d="M214.72 171.914L214.676 171.858C214.676 171.858 214.723 168.858 218.264 167.843C220.691 167.149 221.657 165.407 222.025 164.379C220.911 168.006 218.097 170.798 214.72 171.914Z" fill="#A4383A"/>
<path d="M218.264 138.501C221.253 134.732 216.653 134.552 216.653 134.552C217.848 130.053 212.469 132.474 212.469 132.474C209.24 128.022 207.419 133.441 207.419 133.441C204.069 129.669 203.453 135.832 203.453 135.832C200.095 131.049 198.384 137.946 198.384 137.946C195.291 132.98 193.397 139.452 193.397 139.452C187.012 137.165 190.047 143.802 190.047 143.802C184.593 143.956 188.968 148.173 188.968 148.173C182.437 148.189 188.196 151.929 188.196 151.929C183.009 155.332 189.52 156.248 189.52 156.248C185.289 162.865 192.556 160.41 192.556 160.41C189.612 166.96 196.139 164.074 196.139 164.074C195.716 170.394 199.365 168.674 201.12 167.504C201.46 168.776 202.091 170.125 203.264 170.278C205.541 170.576 205.984 166.277 205.984 166.277C205.984 166.277 208.099 167.921 209.869 167.03C211.641 166.14 210.973 163.886 210.973 163.886C210.973 163.886 212.331 164.897 213.572 163.932C214.333 163.341 214.336 159.097 213.368 157.605L216.839 156.248C216.839 156.248 219.415 155.884 218.264 152.488C217.113 149.093 218.088 146.413 218.088 146.413C222.007 144.576 218.792 142.369 218.792 142.369C223.323 139.433 218.264 138.501 218.264 138.501Z" fill="#1D2A30"/>
<path d="M211.233 154.765C211.779 156.869 213.161 158.679 214.608 159.755C216.783 161.373 218.408 159.78 218.253 157.317C218.115 155.101 216.815 151.589 214.415 150.932C212.051 150.285 210.611 152.36 211.233 154.765Z" fill="#D04648"/>
</g>
<defs>
<clipPath id="clip0_1149_1671">
<rect width="666.667" height="496.08" fill="white"/>
</clipPath>
</defs>
</svg>
