<svg width="105" height="33" viewBox="0 0 105 33" fill="none" xmlns="http://www.w3.org/2000/svg">
<rect x="1.5" y="1.5" width="102" height="30" rx="15" fill="#232946" stroke="#F8F8F8" stroke-width="3"/>
<path d="M49.258 16.002C49.7807 16.0953 50.224 16.3707 50.588 16.828C50.952 17.2853 51.134 17.8033 51.134 18.382C51.134 18.8767 51.0033 19.3247 50.742 19.726C50.49 20.118 50.1213 20.4307 49.636 20.664C49.1507 20.888 48.586 21 47.942 21H44.05V11.27H47.76C48.4227 11.27 48.992 11.382 49.468 11.606C49.944 11.83 50.3033 12.1333 50.546 12.516C50.7887 12.8893 50.91 13.3093 50.91 13.776C50.91 14.336 50.7607 14.8027 50.462 15.176C50.1633 15.5493 49.762 15.8247 49.258 16.002ZM45.646 15.358H47.62C48.1427 15.358 48.5487 15.2413 48.838 15.008C49.1367 14.7653 49.286 14.42 49.286 13.972C49.286 13.5333 49.1367 13.1927 48.838 12.95C48.5487 12.698 48.1427 12.572 47.62 12.572H45.646V15.358ZM47.802 19.698C48.3433 19.698 48.768 19.5673 49.076 19.306C49.384 19.0447 49.538 18.6807 49.538 18.214C49.538 17.738 49.3747 17.36 49.048 17.08C48.7213 16.8 48.2873 16.66 47.746 16.66H45.646V19.698H47.802ZM52.3364 17.108C52.3364 16.3333 52.495 15.6473 52.8124 15.05C53.139 14.4527 53.5777 13.9907 54.1284 13.664C54.6884 13.328 55.3044 13.16 55.9764 13.16C56.583 13.16 57.1104 13.2813 57.5584 13.524C58.0157 13.7573 58.3797 14.0513 58.6504 14.406V13.286H60.2604V21H58.6504V19.852C58.3797 20.216 58.011 20.5193 57.5444 20.762C57.0777 21.0047 56.5457 21.126 55.9484 21.126C55.2857 21.126 54.679 20.958 54.1284 20.622C53.5777 20.2767 53.139 19.8007 52.8124 19.194C52.495 18.578 52.3364 17.8827 52.3364 17.108ZM58.6504 17.136C58.6504 16.604 58.5384 16.142 58.3144 15.75C58.0997 15.358 57.815 15.0593 57.4604 14.854C57.1057 14.6487 56.723 14.546 56.3124 14.546C55.9017 14.546 55.519 14.6487 55.1644 14.854C54.8097 15.05 54.5204 15.344 54.2964 15.736C54.0817 16.1187 53.9744 16.576 53.9744 17.108C53.9744 17.64 54.0817 18.1067 54.2964 18.508C54.5204 18.9093 54.8097 19.2173 55.1644 19.432C55.5284 19.6373 55.911 19.74 56.3124 19.74C56.723 19.74 57.1057 19.6373 57.4604 19.432C57.815 19.2267 58.0997 18.928 58.3144 18.536C58.5384 18.1347 58.6504 17.668 58.6504 17.136ZM61.8246 17.136C61.8246 16.3427 61.9833 15.6473 62.3006 15.05C62.6273 14.4433 63.0753 13.9767 63.6446 13.65C64.214 13.3233 64.8673 13.16 65.6046 13.16C66.538 13.16 67.308 13.384 67.9146 13.832C68.5306 14.2707 68.946 14.9007 69.1606 15.722H67.4386C67.2986 15.3393 67.0746 15.0407 66.7666 14.826C66.4586 14.6113 66.0713 14.504 65.6046 14.504C64.9513 14.504 64.4286 14.7373 64.0366 15.204C63.654 15.6613 63.4626 16.3053 63.4626 17.136C63.4626 17.9667 63.654 18.6153 64.0366 19.082C64.4286 19.5487 64.9513 19.782 65.6046 19.782C66.5286 19.782 67.14 19.376 67.4386 18.564H69.1606C68.9366 19.348 68.5166 19.9733 67.9006 20.44C67.2846 20.8973 66.5193 21.126 65.6046 21.126C64.8673 21.126 64.214 20.9627 63.6446 20.636C63.0753 20.3 62.6273 19.8333 62.3006 19.236C61.9833 18.6293 61.8246 17.9293 61.8246 17.136ZM73.8032 17.15L77.3592 21H75.2032L72.3472 17.682V21H70.7512V10.64H72.3472V16.66L75.1472 13.286H77.3592L73.8032 17.15Z" fill="white"/>
<path d="M35 22V11L29.5263 16.5L35 22ZM27.4737 22V11L22 16.5L27.4737 22Z" stroke="white" stroke-width="2" stroke-linecap="round" stroke-linejoin="round"/>
</svg>
