<svg width="47" height="47" viewBox="0 0 47 47" fill="none" xmlns="http://www.w3.org/2000/svg">
<circle cx="23.5" cy="23.5" r="23" fill="white" stroke="#D9D9D9"/>
<path d="M18.3387 16.3293L24 21.9907L29.632 16.3587C29.7564 16.2262 29.9063 16.1203 30.0726 16.0472C30.239 15.9741 30.4183 15.9354 30.6 15.9333C30.989 15.9333 31.362 16.0878 31.6371 16.3629C31.9122 16.6379 32.0667 17.011 32.0667 17.4C32.0701 17.5798 32.0367 17.7584 31.9686 17.9249C31.9005 18.0913 31.7991 18.2421 31.6707 18.368L25.9653 24L31.6707 29.7053C31.9124 29.9418 32.0542 30.262 32.0667 30.6C32.0667 30.989 31.9122 31.362 31.6371 31.6371C31.362 31.9121 30.989 32.0667 30.6 32.0667C30.4131 32.0744 30.2266 32.0432 30.0524 31.975C29.8782 31.9069 29.72 31.8032 29.588 31.6707L24 26.0093L18.3533 31.656C18.2294 31.784 18.0814 31.8862 17.9177 31.9567C17.7541 32.0271 17.5782 32.0645 17.4 32.0667C17.011 32.0667 16.638 31.9121 16.3629 31.6371C16.0879 31.362 15.9333 30.989 15.9333 30.6C15.9299 30.4202 15.9633 30.2416 16.0314 30.0751C16.0995 29.9086 16.2009 29.7578 16.3293 29.632L22.0347 24L16.3293 18.2947C16.0876 18.0582 15.9459 17.7379 15.9333 17.4C15.9333 17.011 16.0879 16.6379 16.3629 16.3629C16.638 16.0878 17.011 15.9333 17.4 15.9333C17.752 15.9377 18.0893 16.08 18.3387 16.3293Z" fill="#EDC432"/>
</svg>
