<svg width="667" height="375" viewBox="0 0 667 375" fill="none" xmlns="http://www.w3.org/2000/svg">
<path d="M555.705 336.889H599.868V337.223H555.705V336.889Z" fill="#EEEEEE"/>
<path d="M430.036 340.842H441.627V340.508H430.036V340.842Z" fill="#EEEEEE"/>
<path d="M528.781 324.508H554.371V324.842H528.781V324.508Z" fill="#EEEEEE"/>
<path d="M69.9453 326.749H127.536V327.082H69.9453V326.749Z" fill="#EEEEEE"/>
<path d="M139.408 326.749H147.852V327.082H139.408V326.749Z" fill="#EEEEEE"/>
<path d="M175.295 332.711H300.196V332.378H175.295V332.711Z" fill="#EEEEEE"/>
<path d="M0 315.762H666.667V315.428H0V315.762Z" fill="#EEEEEE"/>
<path d="M460.619 32.5978C460.968 36.5845 458.019 40.0991 454.031 40.4485C450.045 40.7978 446.529 37.8485 446.181 33.8618C445.833 29.8752 448.781 26.3605 452.768 26.0111C456.755 25.6631 460.269 28.6112 460.619 32.5978Z" fill="#F8F8F9"/>
<path d="M500.716 29.0902C501.064 33.0769 498.115 36.5915 494.128 36.9409C490.141 37.2889 486.627 34.3395 486.279 30.3542C485.929 26.3662 488.879 22.8529 492.865 22.5035C496.852 22.1542 500.367 25.1035 500.716 29.0902Z" fill="#F8F8F9"/>
<path d="M591.852 359.821C591.852 368.159 476.109 374.918 333.333 374.918C190.557 374.918 74.8145 368.159 74.8145 359.821C74.8145 351.483 190.557 344.723 333.333 344.723C476.109 344.723 591.852 351.483 591.852 359.821Z" fill="#F8F8F9"/>
<path d="M484.6 0.000183682H441.185L410.477 351H453.891C466.237 351 477.161 340.955 478.241 328.609L505.031 22.3908C506.112 10.0442 496.947 0.000183682 484.6 0.000183682Z" fill="#232946"/>
<path d="M475.741 0.000183682H328.808C316.463 0.000183682 305.539 10.0442 304.459 22.3908L277.668 328.609C276.588 340.955 285.753 351 298.1 351H445.032C457.379 351 468.303 340.955 469.383 328.609L496.173 22.3908C497.253 10.0442 488.087 0.000183682 475.741 0.000183682Z" fill="#EDC432"/>
<path d="M445.032 351H298.1C286.417 351 277.583 342.005 277.583 330.578C277.583 329.928 277.611 329.272 277.668 328.609L285.069 244.019H285.769L284.603 257.352H291.077L284.843 328.609C284.108 337.012 290.324 343.826 298.728 343.826H445.66C454.064 343.826 461.473 337.012 462.208 328.609L488.999 22.3908C489.733 13.9868 483.517 7.17483 475.113 7.17483H436.375C434.089 7.17483 431.944 8.67351 431.097 10.8642C427.965 18.9562 420.033 24.5002 411.585 24.5002H388.679C380.231 24.5002 373.268 18.9562 371.552 10.8642V10.8628C371.28 9.58151 370.523 8.53617 369.483 7.89084L369.611 7.39751H368.403C367.937 7.25218 367.439 7.17483 366.92 7.17483H328.181C327.292 7.17483 326.413 7.25085 325.553 7.39751H311.545C316.044 2.85751 322.223 0.000183682 328.808 0.000183682H475.741C487.424 0.000183682 496.26 8.99484 496.26 20.4228C496.26 21.0708 496.231 21.7282 496.173 22.3908L469.383 328.609C468.303 340.955 457.379 351 445.032 351ZM401.681 6.78817C398.3 6.78817 395.32 9.52816 395.024 12.9095C394.728 16.2908 397.229 19.0308 400.609 19.0308C403.991 19.0308 406.971 16.2908 407.267 12.9095C407.563 9.52816 405.061 6.78817 401.681 6.78817Z" fill="#232946"/>
<path d="M445.66 343.824H298.728C290.324 343.824 284.108 337.011 284.843 328.608L291.077 257.351H346.039L355.74 220.156C357.003 222.627 359.559 224.281 362.647 224.281H402.659C407.332 224.281 411.452 220.492 411.861 215.819C412.271 211.145 408.813 207.356 404.139 207.356H364.128C361.977 207.356 359.944 208.159 358.336 209.48L357.427 198.893H436.289C439.339 198.893 442.027 196.423 442.293 193.373L442.808 187.491C443.075 184.441 440.82 181.969 437.771 181.969H355.975L355.248 173.507H438.511C441.56 173.507 444.248 171.036 444.515 167.987L445.029 162.104C445.296 159.055 443.04 156.583 439.992 156.583H355.916L361.104 136.692C368.159 143.785 378.041 148.12 389.316 148.12C413.091 148.12 434.049 128.847 436.129 105.073C438.209 81.2987 420.623 62.0267 396.848 62.0267C384.012 62.0267 371.997 67.6441 363.331 76.5561L362.6 68.0534L374.944 20.7281H366.133L369.483 7.8894C370.523 8.53474 371.28 9.58008 371.552 10.8614V10.8627C373.268 18.9547 380.231 24.4987 388.679 24.4987H411.585C420.033 24.4987 427.965 18.9547 431.097 10.8627C431.944 8.67208 434.089 7.17339 436.375 7.17339H475.113C483.517 7.17339 489.733 13.9854 488.999 22.3894L462.208 328.608C461.473 337.011 454.064 343.824 445.66 343.824ZM359.305 269.536C354.367 269.536 350.013 273.539 349.581 278.477L346.849 309.711C346.417 314.649 350.069 318.653 355.008 318.653H397.832C402.771 318.653 407.124 314.649 407.556 309.711L410.288 278.477C410.721 273.539 407.068 269.536 402.129 269.536H359.305ZM472.361 11.8374C471.372 11.8374 470.497 12.6401 470.412 13.6321L469.739 21.3254C469.652 22.3161 470.385 23.1187 471.375 23.1187C472.365 23.1187 473.239 22.3161 473.327 21.3254L473.999 13.6321C474.085 12.6401 473.353 11.8374 472.361 11.8374ZM464.995 14.0454C464.004 14.0454 463.129 14.8481 463.043 15.8387L462.563 21.3254C462.476 22.3161 463.209 23.1187 464.2 23.1187C465.191 23.1187 466.064 22.3161 466.151 21.3254L466.631 15.8387C466.717 14.8481 465.984 14.0454 464.995 14.0454ZM457.625 16.2534C456.635 16.2534 455.761 17.0561 455.675 18.0467L455.388 21.3254C455.301 22.3161 456.033 23.1187 457.025 23.1187C458.016 23.1187 458.889 22.3161 458.975 21.3254L459.263 18.0467C459.349 17.0561 458.616 16.2534 457.625 16.2534ZM368.403 7.39608H325.553C326.413 7.24941 327.292 7.17339 328.181 7.17339H366.92C367.439 7.17339 367.937 7.25074 368.403 7.39608Z" fill="#F8F8F8"/>
<path d="M438.511 173.508H335.679C332.631 173.508 330.375 171.037 330.641 167.988L331.156 162.105C331.423 159.056 334.111 156.584 337.16 156.584H439.992C443.04 156.584 445.296 159.056 445.029 162.105L444.515 167.988C444.248 171.037 441.56 173.508 438.511 173.508Z" fill="white"/>
<path d="M436.289 198.895H333.457C330.409 198.895 328.153 196.424 328.42 193.375L328.935 187.492C329.201 184.443 331.889 181.971 334.939 181.971H437.771C440.82 181.971 443.075 184.443 442.808 187.492L442.293 193.375C442.027 196.424 439.339 198.895 436.289 198.895Z" fill="white"/>
<path d="M400.609 19.0293C397.229 19.0293 394.728 16.2893 395.024 12.9079C395.32 9.52661 398.3 6.78662 401.681 6.78662C405.061 6.78662 407.563 9.52661 407.267 12.9079C406.971 16.2893 403.991 19.0293 400.609 19.0293ZM401.439 9.5653C399.591 9.5653 397.963 11.0613 397.801 12.9079C397.639 14.7546 399.005 16.2533 400.853 16.2533C402.7 16.2533 404.328 14.7546 404.489 12.9079C404.651 11.0613 403.285 9.5653 401.439 9.5653Z" fill="#688DD0"/>
<path d="M400.853 16.2539C399.005 16.2539 397.639 14.7552 397.801 12.9086C397.963 11.0619 399.591 9.56592 401.439 9.56592C403.285 9.56592 404.651 11.0619 404.489 12.9086C404.328 14.7552 402.7 16.2539 400.853 16.2539Z" fill="#5A7FC8"/>
<path d="M457.025 23.1191C456.033 23.1191 455.301 22.3165 455.388 21.3258L455.675 18.0471C455.761 17.0565 456.635 16.2538 457.625 16.2538C458.616 16.2538 459.349 17.0565 459.263 18.0471L458.975 21.3258C458.889 22.3165 458.016 23.1191 457.025 23.1191Z" fill="#F2F7FC"/>
<path d="M471.375 23.1191C470.385 23.1191 469.652 22.3165 469.739 21.3258L470.412 13.6325C470.497 12.6405 471.372 11.8378 472.361 11.8378C473.353 11.8378 474.085 12.6405 473.999 13.6325L473.327 21.3258C473.239 22.3165 472.365 23.1191 471.375 23.1191Z" fill="#F2F7FC"/>
<path d="M464.2 23.1191C463.209 23.1191 462.476 22.3165 462.563 21.3258L463.043 15.8391C463.129 14.8485 464.004 14.0458 464.995 14.0458C465.984 14.0458 466.717 14.8485 466.631 15.8391L466.151 21.3258C466.064 22.3165 465.191 23.1191 464.2 23.1191Z" fill="#F2F7FC"/>
<path d="M436.129 105.074C434.049 128.848 413.091 148.121 389.316 148.121C365.541 148.121 347.955 128.848 350.035 105.074C352.115 81.2998 373.075 62.0278 396.848 62.0278C420.623 62.0278 438.209 81.2998 436.129 105.074Z" fill="white"/>
<path d="M393.228 103.402C381.915 103.402 372.365 107.706 371.548 117.058L370.64 127.439H411.611L412.52 117.058C413.337 107.706 404.543 103.402 393.228 103.402Z" fill="#EDC432"/>
<path d="M393.603 99.1289C398.853 99.1289 401.275 94.8716 401.733 89.6209C402.193 84.3702 400.516 80.1142 395.265 80.1142C390.015 80.1142 387.593 84.3702 387.135 89.6209C386.675 94.8716 388.352 99.1289 393.603 99.1289Z" fill="#EDC432"/>
<path d="M433.817 164.742C431.023 164.742 428.665 165.806 428.463 168.116L428.239 170.68H438.359L438.583 168.116C438.784 165.806 436.612 164.742 433.817 164.742Z" fill="#EDC432"/>
<path d="M433.911 163.688C435.207 163.688 435.805 162.636 435.917 161.338C436.032 160.042 435.617 158.992 434.321 158.992C433.024 158.992 432.425 160.042 432.312 161.338C432.199 162.636 432.613 163.688 433.911 163.688Z" fill="#EDC432"/>
<path d="M402.659 224.281H362.647C357.973 224.281 354.516 220.492 354.925 215.819C355.333 211.145 359.453 207.356 364.128 207.356H404.139C408.813 207.356 412.271 211.145 411.861 215.819C411.452 220.492 407.332 224.281 402.659 224.281Z" fill="#EDC432"/>
<path d="M397.832 318.654H355.008C350.069 318.654 346.417 314.65 346.849 309.711L349.581 278.478C350.013 273.54 354.367 269.537 359.305 269.537H402.129C407.068 269.537 410.721 273.54 410.288 278.478L407.556 309.711C407.124 314.65 402.771 318.654 397.832 318.654Z" fill="#EDC432"/>
<path d="M377.647 304.625C375.883 304.625 374.576 303.194 374.731 301.429L375.672 290.674C374.439 289.694 373.709 288.137 373.864 286.368C374.124 283.396 376.744 280.986 379.716 280.986C382.687 280.986 384.885 283.396 384.625 286.368C384.471 288.137 383.469 289.693 382.064 290.674L381.124 301.429C380.969 303.194 379.413 304.625 377.647 304.625Z" fill="#232946"/>
<path d="M402.508 276.037H396.989L398.341 260.584C399.155 251.298 392.26 243.743 382.973 243.743C373.688 243.743 365.472 251.298 364.66 260.584L363.307 276.037H357.788L359.14 260.584C360.22 248.255 371.127 238.224 383.456 238.224C395.787 238.224 404.939 248.255 403.861 260.584L402.508 276.037Z" fill="#EDC432"/>
<path d="M432.057 184.855C433.199 184.855 434.047 185.783 433.947 186.926L433.817 188.408H429.677L429.807 186.926C429.907 185.783 430.917 184.855 432.057 184.855ZM434.495 188.408L434.625 186.926C434.757 185.41 433.632 184.176 432.117 184.176C430.601 184.176 429.261 185.41 429.129 186.926L428.999 188.408C428.393 188.41 427.861 188.899 427.808 189.504L427.463 193.447C427.411 194.052 427.859 194.543 428.464 194.543H433.957C434.563 194.543 435.096 194.052 435.149 193.447L435.495 189.504C435.548 188.899 435.1 188.41 434.495 188.408Z" fill="#EDC432"/>
<path d="M351.796 189.988L349.879 189.592C349.652 189.546 349.535 189.307 349.629 189.083L350.428 187.195C350.6 186.79 350.107 186.491 349.796 186.811L348.347 188.303C348.175 188.48 347.899 188.48 347.759 188.303L346.571 186.811C346.315 186.491 345.771 186.79 345.871 187.195L346.339 189.083C346.395 189.307 346.236 189.546 346 189.592L344.013 189.988C343.587 190.074 343.535 190.672 343.945 190.758L345.864 191.154C346.091 191.2 346.208 191.439 346.113 191.663L345.315 193.551C345.143 193.956 345.636 194.256 345.947 193.935L347.396 192.443C347.568 192.266 347.844 192.266 347.984 192.443L349.172 193.935C349.428 194.256 349.972 193.956 349.872 193.551L349.404 191.663C349.348 191.439 349.507 191.2 349.743 191.154L351.729 190.758C352.156 190.672 352.208 190.074 351.796 189.988Z" fill="#1D2A30"/>
<path d="M364.415 189.988L362.496 189.592C362.269 189.546 362.152 189.307 362.247 189.083L363.045 187.195C363.217 186.79 362.724 186.491 362.413 186.811L360.964 188.303C360.792 188.48 360.517 188.48 360.376 188.303L359.188 186.811C358.933 186.491 358.388 186.79 358.488 187.195L358.956 189.083C359.012 189.307 358.853 189.546 358.617 189.592L356.631 189.988C356.204 190.074 356.152 190.672 356.564 190.758L358.481 191.154C358.708 191.2 358.825 191.439 358.731 191.663L357.932 193.551C357.76 193.956 358.253 194.256 358.564 193.935L360.013 192.443C360.185 192.266 360.461 192.266 360.601 192.443L361.789 193.935C362.045 194.256 362.589 193.956 362.489 193.551L362.021 191.663C361.965 191.439 362.124 191.2 362.36 191.154L364.347 190.758C364.773 190.672 364.825 190.074 364.415 189.988Z" fill="#1D2A30"/>
<path d="M377.031 189.988L375.113 189.592C374.887 189.546 374.771 189.307 374.864 189.083L375.664 187.195C375.835 186.79 375.341 186.491 375.031 186.811L373.581 188.303C373.409 188.48 373.135 188.48 372.993 188.303L371.805 186.811C371.551 186.491 371.004 186.79 371.105 187.195L371.573 189.083C371.629 189.307 371.471 189.546 371.235 189.592L369.249 189.988C368.821 190.074 368.769 190.672 369.181 190.758L371.099 191.154C371.325 191.2 371.443 191.439 371.348 191.663L370.549 193.551C370.377 193.956 370.871 194.256 371.181 193.935L372.631 192.443C372.803 192.266 373.079 192.266 373.22 192.443L374.408 193.935C374.663 194.256 375.208 193.956 375.107 193.551L374.639 191.663C374.584 191.439 374.743 191.2 374.977 191.154L376.964 190.758C377.391 190.672 377.444 190.074 377.031 189.988Z" fill="#1D2A30"/>
<path d="M389.649 189.988L387.731 189.592C387.504 189.546 387.388 189.307 387.481 189.083L388.28 187.195C388.452 186.79 387.96 186.491 387.648 186.811L386.199 188.303C386.028 188.48 385.751 188.48 385.611 188.303L384.423 186.811C384.168 186.491 383.623 186.79 383.723 187.195L384.192 189.083C384.247 189.307 384.088 189.546 383.853 189.592L381.865 189.988C381.44 190.074 381.387 190.672 381.799 190.758L383.716 191.154C383.944 191.2 384.06 191.439 383.965 191.663L383.167 193.551C382.996 193.956 383.488 194.256 383.8 193.935L385.249 192.443C385.42 192.266 385.696 192.266 385.837 192.443L387.025 193.935C387.28 194.256 387.825 193.956 387.724 193.551L387.256 191.663C387.2 191.439 387.36 191.2 387.595 191.154L389.581 190.758C390.008 190.672 390.06 190.074 389.649 189.988Z" fill="#1D2A30"/>
<path d="M402.267 189.988L400.349 189.592C400.121 189.546 400.005 189.307 400.1 189.083L400.899 187.195C401.069 186.79 400.577 186.491 400.265 186.811L398.816 188.303C398.644 188.48 398.369 188.48 398.228 188.303L397.04 186.811C396.785 186.491 396.24 186.79 396.34 187.195L396.808 189.083C396.864 189.307 396.705 189.546 396.471 189.592L394.484 189.988C394.056 190.074 394.004 190.672 394.416 190.758L396.333 191.154C396.56 191.2 396.677 191.439 396.584 191.663L395.784 193.551C395.613 193.956 396.105 194.256 396.417 193.935L397.867 192.443C398.037 192.266 398.313 192.266 398.455 192.443L399.643 193.935C399.897 194.256 400.443 193.956 400.341 193.551L399.873 191.663C399.819 191.439 399.977 191.2 400.213 191.154L402.199 190.758C402.625 190.672 402.679 190.074 402.267 189.988Z" fill="#1D2A30"/>
<path d="M414.884 189.988L412.967 189.592C412.74 189.546 412.623 189.307 412.717 189.083L413.516 187.195C413.687 186.79 413.195 186.491 412.884 186.811L411.433 188.303C411.263 188.48 410.987 188.48 410.845 188.303L409.659 186.811C409.403 186.491 408.857 186.79 408.959 187.195L409.427 189.083C409.481 189.307 409.323 189.546 409.088 189.592L407.101 189.988C406.675 190.074 406.621 190.672 407.033 190.758L408.951 191.154C409.179 191.2 409.296 191.439 409.2 191.663L408.403 193.551C408.231 193.956 408.723 194.256 409.035 193.935L410.484 192.443C410.656 192.266 410.931 192.266 411.072 192.443L412.26 193.935C412.515 194.256 413.06 193.956 412.96 193.551L412.492 191.663C412.436 191.439 412.595 191.2 412.831 191.154L414.816 190.758C415.244 190.672 415.296 190.074 414.884 189.988Z" fill="#1D2A30"/>
<path d="M384.471 162.38H360.78C359.307 162.38 358.009 163.572 357.881 165.046C357.752 166.518 358.841 167.711 360.313 167.711H384.004C385.476 167.711 386.775 166.518 386.903 165.046C387.032 163.572 385.943 162.38 384.471 162.38Z" fill="#1D2A30"/>
<path d="M408.52 162.38H394.773C393.301 162.38 392.004 163.572 391.875 165.046C391.747 166.518 392.835 167.711 394.307 167.711H408.053C409.527 167.711 410.824 166.518 410.952 165.046C411.081 163.572 409.992 162.38 408.52 162.38Z" fill="#1D2A30"/>
<path d="M426.668 283.249C417.736 286.816 409.905 292.017 404.545 297.934C401.404 295.26 396.936 293.403 391.58 292.553L390.951 292.452L390.676 295.598L391.027 295.731C396.312 297.729 400.616 301.273 403.471 305.979L403.919 306.719L404.415 305.925C409.908 297.129 417.919 289.762 426.969 285.179L427.276 285.022L427.459 282.933L426.668 283.249Z" fill="#232946"/>
<path d="M291.077 257.352H284.603L285.769 244.018H292.244L291.077 257.352Z" fill="#597EC8"/>
<path d="M346.039 257.352H291.077L292.244 244.018H340.705L352.476 198.894H357.427L358.336 209.481C356.448 211.03 355.145 213.296 354.925 215.82C354.787 217.405 355.093 218.889 355.74 220.157L346.039 257.352ZM355.975 181.97H351.785L351.059 173.508H355.248L355.975 181.97ZM355.916 156.584H349.605L348.987 149.37L354.585 127.906C356.335 131.152 358.532 134.106 361.104 136.693L355.916 156.584Z" fill="#869FD4"/>
<path d="M355.248 173.508H351.059L349.605 156.584H355.916L354.32 162.704L355.248 173.508Z" fill="#CECDCC"/>
<path d="M357.427 198.895H352.476L353.049 196.695L351.785 181.971H355.975L356.661 189.981L356.631 189.988C356.204 190.073 356.152 190.672 356.564 190.757L356.732 190.792L357.427 198.895Z" fill="#CECDCC"/>
<path d="M359.521 80.9688L357.268 54.7208L366.133 20.7288H374.944L362.6 68.0541L363.331 76.5568C361.976 77.9501 360.703 79.4234 359.521 80.9688Z" fill="#869FD4"/>
<path d="M361.104 136.693C358.532 134.107 356.335 131.152 354.585 127.907L361.331 102.045L359.521 80.9693C360.703 79.424 361.976 77.9507 363.331 76.5574L366.664 115.38L361.104 136.693Z" fill="#CECDCC"/>
<path d="M355.74 220.156C355.093 218.888 354.787 217.404 354.925 215.819C355.145 213.295 356.448 211.03 358.336 209.48L358.383 210.027L355.74 220.156Z" fill="#EDC432"/>
<path d="M356.732 190.791L356.564 190.756C356.152 190.671 356.204 190.072 356.631 189.987L356.661 189.98L356.732 190.791Z" fill="#182124"/>
<path d="M357.268 54.7203L369.611 7.39627H214.245L201.903 54.7203L205.965 102.044L193.621 149.37L197.684 196.694L185.34 244.018H340.705L353.049 196.694L348.987 149.37L361.331 102.044L357.268 54.7203Z" fill="#EDC432"/>
<path d="M353.049 196.693H234.887C234.335 180.124 233.272 161.648 232.5 149.369H348.987L353.049 196.693Z" fill="#C7D9F2"/>
<path d="M361.331 102.045H332.111C336.628 97.9076 339.297 93.3049 339.297 85.0689V76.5303C339.297 75.6143 338.743 74.8796 337.985 74.5623V71.8329C337.985 70.6009 336.984 69.6969 335.835 69.6969C335.615 69.6969 335.391 69.7289 335.165 69.7996C333.832 70.2169 332.121 70.4676 330.259 70.4676C327.516 70.4676 325.107 69.9236 323.735 69.1063C323.359 68.8809 322.945 68.7689 322.532 68.7689C322.388 68.7689 322.244 68.7823 322.101 68.8103C321.836 68.8609 321.575 68.9596 321.329 69.1063C319.959 69.9236 317.549 70.4676 314.805 70.4676C314.792 70.4676 314.777 70.4676 314.763 70.4676C312.916 70.4636 311.224 70.2129 309.899 69.7996C309.675 69.7289 309.449 69.6969 309.229 69.6969C308.08 69.6969 307.08 70.6009 307.08 71.8329V73.2783H246.692C243.864 73.2783 241.36 74.6649 239.824 76.7956C238.295 75.0263 236.745 73.2769 235.163 71.5556L234.008 72.5636C232.795 65.1409 231.083 63.2076 231.083 63.2076C231.083 63.2076 224.895 61.5049 218.301 60.8943C217.844 59.8449 217.507 58.3983 218.229 57.1129C217.344 56.8556 216.024 56.7023 214.463 56.6289C214.329 56.0036 214.259 55.3636 214.239 54.7209H357.267L369.611 7.39695L357.268 54.7209L361.331 102.045ZM243.364 102.045H234.865C235.029 98.8623 235.127 95.9303 235.167 93.2316C236.936 95.1503 238.727 97.0516 240.531 98.9409C241.201 100.198 242.179 101.266 243.364 102.045Z" fill="#C7D9F2"/>
<path d="M357.267 54.7207H214.239C214.195 53.378 214.368 52.0234 214.655 50.7754C218.956 49.3847 222.359 45.2754 222.532 40.1794C222.788 32.6927 219.383 21.1994 211.164 19.21L214.245 7.39672H369.611L357.267 54.7207Z" fill="#E4EEF9"/>
<path d="M348.987 149.369H232.5C231.971 140.966 231.579 135.466 231.579 135.466H215.716H197.247C207.585 135.466 222.261 135.466 231.579 135.466C233.392 122.037 234.4 111.036 234.865 102.044H243.364C243.492 102.128 243.623 102.209 243.755 102.285C244.099 102.64 244.443 102.993 244.788 103.346L245.319 103.885C245.528 104.085 245.725 104.293 245.949 104.477C246.392 104.849 246.835 105.218 247.321 105.533C248.269 106.193 249.311 106.708 250.385 107.096C251.896 107.637 253.483 107.908 255.063 107.908C255.736 107.908 256.408 107.858 257.072 107.76C258.18 107.589 259.275 107.308 260.297 106.865C260.816 106.66 261.304 106.393 261.788 106.126C262.032 105.997 262.256 105.836 262.488 105.689C262.689 105.553 263.011 105.344 263.085 105.274L265.433 103.428H316.707C316.859 103.428 317.007 103.413 317.156 103.405C317.897 104.02 318.668 104.632 319.487 105.25C320.465 105.992 321.497 106.745 322.577 107.528C322.952 107.8 323.399 107.937 323.844 107.937C324.291 107.937 324.736 107.8 325.112 107.528C327.759 105.608 330.115 103.872 332.111 102.044H361.331L354.585 127.905L348.987 149.369Z" fill="#E4EEF9"/>
<path d="M340.705 244.018H233.508C234.356 235.672 234.952 228.49 235.132 223.468C235.377 216.587 235.231 207.011 234.887 196.694H353.049L352.476 198.894L340.705 244.018ZM206.621 244.018H195.383C197.916 235.576 199.925 228.32 201.02 223.292C201.089 222.975 201.159 222.651 201.229 222.32C201.229 222.324 201.231 222.33 201.231 222.335C202.349 217.075 203.652 210.094 205.008 202.371C205.137 201.634 205.267 200.894 205.397 200.144C205.801 209.655 206.132 218.562 206.3 225.492C206.412 230.087 206.519 236.528 206.621 244.018Z" fill="#E4EEF9"/>
<path d="M332.111 102.045H324.88C332.897 96.1863 337.985 91.7422 337.985 80.3702V74.5623C338.743 74.8796 339.297 75.6143 339.297 76.5303V85.0689C339.297 93.3049 336.628 97.9076 332.111 102.045ZM320.185 102.045H267.136C268.347 101.013 269.555 99.8889 270.753 98.7303H315.395C315.547 98.7303 315.697 98.7263 315.847 98.7196C317.171 99.8156 318.623 100.904 320.185 102.045ZM243.52 102.045H243.364C242.179 101.266 241.201 100.198 240.531 98.9409C241.524 99.9796 242.52 101.014 243.52 102.045Z" fill="#9CACD3"/>
<path d="M323.844 107.938C323.399 107.938 322.952 107.8 322.577 107.528C321.497 106.745 320.465 105.992 319.487 105.251C318.668 104.632 317.897 104.02 317.156 103.406C317.007 103.414 316.859 103.428 316.707 103.428H265.433L266.072 102.926C266.428 102.642 266.781 102.347 267.136 102.044H320.185C320.54 102.303 320.899 102.564 321.264 102.829C321.64 103.103 322.087 103.239 322.532 103.239C322.979 103.239 323.424 103.101 323.8 102.829C324.165 102.564 324.525 102.303 324.88 102.044H332.111C330.115 103.872 327.759 105.608 325.112 107.528C324.736 107.8 324.291 107.938 323.844 107.938ZM243.755 102.285C243.623 102.209 243.492 102.128 243.364 102.044H243.52C243.599 102.125 243.677 102.205 243.755 102.285Z" fill="#B5BCCF"/>
<path d="M315.395 98.7305H246.692C242.019 98.7305 238.229 94.9424 238.229 90.2691V81.7398C238.229 77.0664 242.019 73.2784 246.692 73.2784H315.395C320.068 73.2784 323.857 77.0664 323.857 81.7398V90.2691C323.857 94.9424 320.068 98.7305 315.395 98.7305Z" fill="#EDC432"/>
<path d="M330.259 70.4666C327.516 70.4666 325.107 69.9226 323.735 69.1053C322.981 68.6559 322.083 68.6559 321.329 69.1053C319.959 69.9226 317.549 70.4666 314.805 70.4666C312.943 70.4666 311.233 70.216 309.899 69.7986C308.5 69.3613 307.08 70.3653 307.08 71.832V80.3693C307.08 92.2426 312.627 96.5639 321.264 102.829C322.016 103.375 323.048 103.375 323.8 102.829C332.439 96.5639 337.985 92.2426 337.985 80.3693V71.832C337.985 70.3653 336.565 69.3613 335.165 69.7986C333.832 70.216 332.121 70.4666 330.259 70.4666Z" fill="#EDC432"/>
<path d="M322.532 103.24V68.7695C322.945 68.7695 323.359 68.8815 323.735 69.1069C325.107 69.9242 327.516 70.4682 330.259 70.4682C332.121 70.4682 333.832 70.2176 335.165 69.8002C335.391 69.7296 335.615 69.6976 335.835 69.6976C336.984 69.6976 337.985 70.6016 337.985 71.8336V80.3709C337.985 92.2442 332.439 96.5656 323.8 102.831C323.424 103.103 322.979 103.24 322.532 103.24Z" fill="#799BD7"/>
<path d="M322.532 103.24C322.087 103.24 321.64 103.104 321.264 102.831C321.64 103.103 322.087 103.24 322.532 103.24Z" fill="#C5C9D8"/>
<path d="M314.763 70.4668C312.916 70.4628 311.223 70.2121 309.899 69.7988C311.224 70.2121 312.916 70.4628 314.763 70.4668Z" fill="#D4E1F5"/>
<path d="M322.532 103.24C322.087 103.24 321.64 103.103 321.264 102.831C319.287 101.396 317.472 100.064 315.847 98.7202C310.377 94.1909 307.08 89.5255 307.08 80.3709V71.8336C307.08 70.6016 308.08 69.6976 309.229 69.6976C309.449 69.6976 309.675 69.7296 309.899 69.8002C311.223 70.2136 312.916 70.4642 314.763 70.4682C314.777 70.4682 314.792 70.4682 314.805 70.4682C317.549 70.4682 319.959 69.9242 321.329 69.1069C321.575 68.9602 321.836 68.8616 322.101 68.8109C322.244 68.7829 322.388 68.7695 322.532 68.7695V103.24Z" fill="#96B3E2"/>
<path d="M334.916 78.0402C329.333 80.3496 324.556 83.7189 321.42 87.5509C319.233 85.8189 316.235 84.6163 312.717 84.0656L312.305 84.0016V86.0389L312.54 86.1243C316.076 87.4189 319.064 89.7136 321.179 92.7603L321.512 93.2402L321.788 92.7256C324.848 87.0296 329.617 82.2576 335.22 79.2896L335.409 79.1896V77.8349L334.916 78.0402Z" fill="#1D2A30"/>
<path d="M366.868 20.7051H360.973C357.704 20.7051 355.287 18.0558 355.572 14.7851L356.088 8.89177C356.375 5.62243 359.256 2.97308 362.525 2.97308H368.419C371.688 2.97308 374.107 5.62243 373.82 8.89177L373.305 14.7851C373.019 18.0558 370.137 20.7051 366.868 20.7051Z" fill="#EDC432"/>
<path d="M369.317 8.87848L368.039 7.47581L364.819 10.4371L362.117 7.47581L360.592 8.87848L363.295 11.8398L360.075 14.7998L361.355 16.2012L364.573 13.2411L367.275 16.2012L368.8 14.7998L366.099 11.8398L369.317 8.87848Z" fill="white"/>
<path d="M235.163 71.5546C238.58 75.2706 241.844 79.1199 245.068 83.0052C248.296 86.8866 251.445 90.8372 254.555 94.8212C254.691 94.9959 254.636 94.9252 254.668 94.9759L254.705 95.0546L254.799 95.1919L255.039 95.4546C255.228 95.6239 255.487 95.7532 255.776 95.8052C255.917 95.8279 256.069 95.8479 256.223 95.8319L256.465 95.8146L256.588 95.7866C256.611 95.7759 256.621 95.7772 256.632 95.7772C256.653 95.7786 256.676 95.7799 256.797 95.7079L260.136 93.8972C264.617 91.5266 269.132 89.2066 273.804 87.1252L277.708 91.9599C273.945 95.4226 270.025 99.7519 266.072 102.925L263.085 105.275C263.011 105.344 262.689 105.553 262.488 105.689C262.256 105.836 262.032 105.997 261.788 106.127C261.304 106.393 260.816 106.66 260.297 106.865C259.275 107.308 258.18 107.589 257.072 107.76C254.849 108.091 252.54 107.868 250.385 107.096C249.311 106.708 248.269 106.193 247.321 105.533C246.835 105.219 246.392 104.849 245.949 104.477C245.725 104.293 245.528 104.085 245.319 103.885L244.788 103.347C241.259 99.7279 237.771 96.0746 234.36 92.3532C230.945 88.6332 227.573 84.8786 224.352 80.9906L235.163 71.5546Z" fill="#D04648"/>
<path d="M271.987 90.0735L275.096 80.0895L283.277 84.1669C283.277 84.1669 282.085 91.4508 276.129 92.7148L271.987 90.0735Z" fill="#D04648"/>
<path d="M278.377 77.322L285.756 79.3527L283.277 84.166L275.096 80.0887L278.377 77.322Z" fill="#D04648"/>
<path d="M192.125 74.2745C191.235 78.5158 190.147 82.7105 189.007 86.8919C187.872 91.0745 186.635 95.2318 185.345 99.3772L184.865 100.932L184.625 101.711C184.575 101.88 184.543 101.921 184.496 102.036C184.349 102.429 184.261 102.856 184.244 103.304C184.221 104.192 184.432 105.18 185.012 106.037C185.06 106.176 185.521 106.659 185.879 107.048L186.987 108.252L189.168 110.696C190.607 112.345 192.037 114 193.397 115.74L188.751 121.117C186.833 120.025 184.987 118.849 183.147 117.667L180.411 115.863L179.06 114.943C178.6 114.621 178.229 114.408 177.495 113.799C174.959 111.648 173.064 108.595 172.369 105.203C172.015 103.512 171.928 101.747 172.125 100.001C172.177 99.5838 172.256 99.0945 172.32 98.7358L172.461 97.9345L172.745 96.3319C173.492 92.0559 174.291 87.7905 175.191 83.5519C176.085 79.3119 177.033 75.0838 178.179 70.9038L192.125 74.2745Z" fill="#D04648"/>
<path d="M188.833 115.358L194.335 112.546L196.761 121.895C196.761 121.895 192.345 123.589 188.929 121.415L188.833 115.358Z" fill="#D04648"/>
<path d="M201.936 109.554L202.185 118.133L196.043 122.15L193.912 112.728L201.936 109.554Z" fill="#D04648"/>
<path d="M219.923 30.1883C220.057 30.8496 220.516 31.3136 220.948 31.2256C221.38 31.139 221.621 30.5309 221.487 29.8709C221.353 29.2096 220.893 28.7456 220.463 28.8336C220.029 28.9203 219.789 29.5283 219.923 30.1883Z" fill="#1D2A30"/>
<path d="M220.456 31.3268C220.456 31.3268 222.733 34.8347 224.761 36.3374C223.813 37.6667 221.724 37.5707 221.724 37.5707L220.456 31.3268Z" fill="#BB2024"/>
<path d="M216.757 27.0117L216.489 26.9064C216.328 26.757 216.319 26.5077 216.468 26.3464C217.955 24.7371 219.759 25.0237 219.836 25.0357C220.052 25.073 220.196 25.2784 220.16 25.4931C220.123 25.7091 219.916 25.8517 219.705 25.8171C219.645 25.8077 218.235 25.6011 217.048 26.8851L216.757 27.0117Z" fill="#1D2A30"/>
<path d="M200.695 39.4832C202.165 45.5992 203.633 56.8058 198.384 60.8872C198.384 60.8872 200.435 67.0898 214.377 67.0898C229.709 67.0898 221.704 63.0938 221.704 63.0938C213.337 61.4658 213.553 54.1978 215.011 49.4472L200.695 39.4832Z" fill="#D04648"/>
<path d="M196.751 62.021C195.837 60.3223 194.832 58.377 196.912 57.7676C199.201 57.0983 213.909 55.8556 218.229 57.113C216.903 59.4743 219.149 62.377 219.149 62.377L196.751 62.021Z" fill="#1D2A30"/>
<path d="M208.928 348.123H218.548L219.505 328.763H209.885L208.928 348.123Z" fill="#D04648"/>
<path d="M147.884 345.455L157.628 345.971L163.548 326.896L153.804 326.382L147.884 345.455Z" fill="#D04648"/>
<path d="M157.329 345.201L148.149 343.213C147.816 343.141 147.476 343.31 147.333 343.619L144.147 350.534C143.816 351.251 144.253 352.092 145.028 352.246C148.245 352.884 149.843 353.034 153.88 353.907C156.363 354.446 161.969 355.811 165.399 356.554C168.753 357.28 170.011 354.002 168.673 353.391C162.676 350.651 160.171 348.237 158.547 345.99C158.255 345.584 157.817 345.306 157.329 345.201Z" fill="#1D2A30"/>
<path d="M218.039 347.154H208.909C208.567 347.154 208.272 347.392 208.197 347.725L206.545 355.157C206.375 355.926 206.96 356.657 207.749 356.644C211.041 356.587 215.801 356.394 219.94 356.394C224.78 356.394 228.96 356.658 234.636 356.658C238.068 356.658 239.021 353.189 237.584 352.874C231.044 351.444 225.704 351.29 220.053 347.806C219.439 347.427 218.76 347.154 218.039 347.154Z" fill="#1D2A30"/>
<path d="M180.967 63.7133C173.707 67.1653 171.733 88.092 171.733 88.092L189.693 96.3906C189.693 96.3906 194.151 89.824 194.492 79.4986C194.851 68.68 188.389 60.184 180.967 63.7133Z" fill="#1D2A30"/>
<path d="M231.083 63.2068C231.083 63.2068 239.981 73.2575 231.579 135.467C218.105 135.467 193.419 135.467 186.863 135.467C186.555 128.603 190.868 95.1188 184.248 62.7761C184.248 62.7761 191.912 61.2375 199.216 60.8868C204.929 60.6108 213.201 60.4281 218.224 60.8868C224.847 61.4908 231.083 63.2068 231.083 63.2068Z" fill="#EDC432"/>
<mask id="mask0_1152_1816" style="mask-type:luminance" maskUnits="userSpaceOnUse" x="184" y="60" width="52" height="76">
<path d="M231.579 135.467C218.105 135.467 193.419 135.467 186.863 135.467C186.852 135.225 186.847 134.952 186.847 134.645C186.845 130.091 187.96 118.509 187.961 103.884C187.961 91.5508 187.169 77.0521 184.248 62.7761C184.248 62.7761 191.912 61.2375 199.216 60.8868C202.411 60.7321 206.407 60.6068 210.187 60.6068C213.165 60.6068 216.009 60.6855 218.224 60.8868C224.847 61.4908 231.083 63.2068 231.083 63.2068C231.083 63.2068 234.163 66.6855 234.988 82.2161L234.821 82.0721L225.928 77.3215C225.025 91.0135 231.145 99.5975 234.787 103.353C235.091 98.0295 235.207 93.3881 235.187 89.3468C235.188 89.6641 235.188 89.9841 235.188 90.3095C235.189 91.2521 235.181 92.2241 235.167 93.2308C235.012 103.553 234.035 117.283 231.579 135.467Z" fill="white"/>
</mask>
<g mask="url(#mask0_1152_1816)">
<path d="M184.248 135.467H235.207V60.6069H184.248V135.467Z" fill="#B1C7EB"/>
</g>
<path d="M235.187 89.3477C235.172 86.7277 235.101 84.357 234.988 82.217L234.992 82.221C235.104 84.3597 235.173 86.7277 235.187 89.3477Z" fill="#A4383A"/>
<path d="M234.787 103.354C231.145 99.5975 225.025 91.0135 225.928 77.3215L234.821 82.0722L234.988 82.2162C235.101 84.3562 235.172 86.7268 235.187 89.3468C235.207 93.3882 235.091 98.0295 234.787 103.354Z" fill="#889DD2"/>
<path d="M209.392 338.746H209.388L209.472 337.053H209.476L209.392 338.746Z" fill="#CECDCC"/>
<path d="M219.012 338.746H209.392L209.476 337.053H219.095L219.017 338.638L219.012 338.746Z" fill="#A4383A"/>
<path d="M150.752 336.219H150.744L151.553 333.615L151.559 333.616L150.752 336.219Z" fill="#CECDCC"/>
<path d="M160.492 336.732L150.752 336.218L151.559 333.615L160.836 335.623L160.492 336.732Z" fill="#A4383A"/>
<path d="M197.599 33.2665C199.747 41.2811 200.596 46.0811 205.541 49.4131C212.98 54.4265 222.243 48.6731 222.532 40.1785C222.793 32.5331 219.237 20.7118 210.637 19.0958C202.164 17.5051 195.451 25.2531 197.599 33.2665Z" fill="#D04648"/>
<path d="M215.716 135.467C215.716 135.467 206.228 199.356 201.02 223.292C195.316 249.503 164.732 336.223 164.732 336.223L149.767 332.983C149.767 332.983 168.944 262.312 173.732 225.668C175.6 211.368 177.856 188.319 180.708 169.099C183.471 150.487 186.863 135.467 186.863 135.467H215.716Z" fill="#1D2A30"/>
<path d="M168.315 331.225L165.527 336.639L148.688 332.993L150.108 327.932L168.315 331.225Z" fill="#EDC432"/>
<path d="M165.527 336.639L160.836 335.623L151.559 333.615L148.688 332.993L150.108 327.932L168.315 331.225L165.527 336.639Z" fill="#B4CAEC"/>
<path d="M201.231 222.336C201.231 222.331 201.229 222.325 201.229 222.321C202.349 217.06 203.652 210.085 205.008 202.372C203.652 210.095 202.349 217.076 201.231 222.336Z" fill="#505763"/>
<path d="M201.229 222.32C200.225 206.3 199.313 178.783 203.773 165.604C204.317 176.384 204.911 188.698 205.397 200.143C205.267 200.892 205.137 201.634 205.008 202.371C203.652 210.084 202.349 217.059 201.229 222.32Z" fill="#141414"/>
<path d="M231.579 135.468C231.579 135.468 236.041 197.975 235.132 223.469C234.185 249.988 221.612 336.814 221.612 336.814H207.449C207.449 336.814 206.931 251.536 206.3 225.493C205.613 197.101 202.185 135.468 202.185 135.468H231.579Z" fill="#1D2A30"/>
<path d="M224.337 331.172L223.539 337.053H206.311L205.845 331.804L224.337 331.172Z" fill="#EDC432"/>
<path d="M223.539 337.053H206.311L205.845 331.804L224.337 331.172L224.173 332.378L224.128 332.711L223.539 337.053Z" fill="#B4CAEC"/>
<path d="M225.865 74.9176C225.865 91.6923 234.792 98.5977 234.792 98.5977L249.301 84.4136C249.301 84.4136 244.368 75.9136 237.583 68.111C229.201 58.4723 225.865 64.1296 225.865 74.9176Z" fill="#1D2A30"/>
<path d="M214.72 50.752L214.676 50.696C214.676 50.696 214.723 47.6959 218.264 46.6813C220.691 45.9866 221.657 44.2453 222.025 43.2173C220.911 46.844 218.097 49.636 214.72 50.752Z" fill="#A4383A"/>
<path d="M218.264 17.3388C221.253 13.5694 216.653 13.3895 216.653 13.3895C217.848 8.89079 212.469 11.3121 212.469 11.3121C209.24 6.86012 207.419 12.2788 207.419 12.2788C204.069 8.50678 203.453 14.6694 203.453 14.6694C200.095 9.88677 198.384 16.7841 198.384 16.7841C195.291 11.8175 193.397 18.2895 193.397 18.2895C187.012 16.0028 190.047 22.6401 190.047 22.6401C184.593 22.7934 188.968 27.0108 188.968 27.0108C182.437 27.0268 188.196 30.7668 188.196 30.7668C183.009 34.1695 189.52 35.0855 189.52 35.0855C185.289 41.7028 192.556 39.2481 192.556 39.2481C189.612 45.7974 196.139 42.9121 196.139 42.9121C195.716 49.2321 199.365 47.5121 201.12 46.3414C201.46 47.6134 202.091 48.9628 203.264 49.1161C205.541 49.4134 205.984 45.1148 205.984 45.1148C205.984 45.1148 208.099 46.7588 209.869 45.8681C211.641 44.9774 210.973 42.7241 210.973 42.7241C210.973 42.7241 212.331 43.7348 213.572 42.7694C214.333 42.1788 214.336 37.9348 213.368 36.4428L216.839 35.0855C216.839 35.0855 219.415 34.7215 218.264 31.3255C217.113 27.9308 218.088 25.2508 218.088 25.2508C222.007 23.4135 218.792 21.2068 218.792 21.2068C223.323 18.2708 218.264 17.3388 218.264 17.3388Z" fill="#1D2A30"/>
<path d="M211.233 33.603C211.779 35.707 213.161 37.5164 214.608 38.5924C216.783 40.2111 218.408 38.6177 218.253 36.1551C218.115 33.9391 216.815 30.427 214.415 29.7697C212.051 29.123 210.611 31.1977 211.233 33.603Z" fill="#D04648"/>
</svg>
