<svg width="35" height="35" viewBox="0 0 35 35" fill="none" xmlns="http://www.w3.org/2000/svg">
<circle cx="17.0066" cy="17.0066" r="16.5066" fill="white" stroke="#D9D9D9"/>
<path d="M15.3333 19.3333L19.6583 16.8333L15.3333 14.3333V19.3333ZM24.9666 12.8083C25.075 13.2 25.15 13.725 25.2 14.3917C25.2583 15.0583 25.2833 15.6333 25.2833 16.1333L25.3333 16.8333C25.3333 18.6583 25.2 20 24.9666 20.8583C24.7583 21.6083 24.275 22.0917 23.525 22.3C23.1333 22.4083 22.4166 22.4833 21.3166 22.5333C20.2333 22.5917 19.2416 22.6167 18.325 22.6167L17 22.6667C13.5083 22.6667 11.3333 22.5333 10.475 22.3C9.72496 22.0917 9.24163 21.6083 9.03329 20.8583C8.92496 20.4667 8.84996 19.9417 8.79996 19.275C8.74163 18.6083 8.71663 18.0333 8.71663 17.5333L8.66663 16.8333C8.66663 15.0083 8.79996 13.6667 9.03329 12.8083C9.24163 12.0583 9.72496 11.575 10.475 11.3667C10.8666 11.2583 11.5833 11.1833 12.6833 11.1333C13.7666 11.075 14.7583 11.05 15.675 11.05L17 11C20.4916 11 22.6666 11.1333 23.525 11.3667C24.275 11.575 24.7583 12.0583 24.9666 12.8083Z" fill="#7F5283"/>
</svg>
