<svg width="390" height="844" viewBox="0 0 390 844" fill="none" xmlns="http://www.w3.org/2000/svg">
<g clip-path="url(#clip0_1178_416)">
<rect width="390" height="844" fill="#EEEEEE"/>
<ellipse cx="373" cy="-68" rx="163" ry="156" fill="#7F5283"/>
<path d="M223.736 151.375C223.736 152.563 224.929 153.751 226.121 153.751C227.553 153.751 228.507 152.563 228.507 151.375C228.507 149.95 227.553 149 226.121 149C224.929 149 223.736 149.95 223.736 151.375Z" fill="#474439"/>
<path d="M231.844 159.452C229.698 164.915 231.606 171.091 235.66 172.042C238.761 172.992 238.761 172.754 235.66 170.616C233.752 169.191 233.275 168.003 234.706 168.003C236.137 168.003 239.238 170.141 241.623 172.754C245.678 177.268 252.356 179.168 252.356 175.842C252.356 175.13 250.448 172.279 248.302 169.904C244.962 166.103 244.724 164.915 247.347 163.49C249.256 162.302 249.733 160.164 249.017 158.739C246.632 154.938 233.275 155.414 231.844 159.452Z" fill="#474439"/>
<path d="M206.085 160.402C210.379 164.203 221.35 168.004 221.35 165.628C221.35 164.203 220.158 163.253 218.727 163.253C217.534 163.253 217.057 162.065 217.773 160.878C218.727 159.452 216.103 158.502 211.571 158.502C207.278 158.502 204.654 159.452 206.085 160.402Z" fill="#474439"/>
<path d="M257.127 163.252C257.127 164.44 258.081 165.628 259.274 165.628C260.705 165.628 262.374 164.44 263.09 163.252C263.805 161.827 262.851 160.877 260.943 160.877C258.797 160.877 257.127 161.827 257.127 163.252Z" fill="#474439"/>
<path d="M190.821 168.241C191.298 169.667 192.729 170.617 193.922 170.617C195.114 170.617 196.545 169.667 197.022 168.241C197.499 166.816 196.068 165.628 193.922 165.628C191.775 165.628 190.344 166.816 190.821 168.241Z" fill="#474439"/>
<path d="M203.461 172.042C198.214 177.03 202.507 181.306 209.186 177.743C212.048 176.08 214.194 173.942 214.194 172.992C214.194 168.954 207.039 168.241 203.461 172.042Z" fill="#474439"/>
<path d="M223.258 181.543C213.241 182.256 209.424 183.443 209.424 185.819C209.424 188.669 213.241 189.382 227.551 189.382C243.293 189.382 245.44 188.907 244.724 185.344C243.77 180.593 242.339 180.355 223.258 181.543Z" fill="#474439"/>
<path d="M190.821 187.483C191.537 189.146 189.628 192.234 187.005 194.371C182.235 198.41 182.235 198.41 192.014 198.172C202.27 197.697 205.609 194.609 203.224 188.195C201.554 183.92 189.39 183.207 190.821 187.483Z" fill="#474439"/>
<path d="M249.972 189.382C249.972 190.57 252.118 191.758 254.98 191.758C257.604 191.758 259.035 190.57 258.32 189.382C257.604 187.957 255.219 187.007 253.311 187.007C251.403 187.007 249.972 187.957 249.972 189.382Z" fill="#474439"/>
<path d="M218.966 198.409C218.966 202.447 220.874 203.16 235.185 204.11C244.964 204.823 251.881 204.348 252.835 202.685C255.22 198.884 250.449 196.984 233.754 195.084C219.92 193.658 218.966 193.896 218.966 198.409Z" fill="#474439"/>
<path d="M261.897 206.011C261.897 207.199 263.09 208.386 264.283 208.386C265.714 208.386 266.668 207.199 266.668 206.011C266.668 204.586 265.714 203.636 264.283 203.636C263.09 203.636 261.897 204.586 261.897 206.011Z" fill="#474439"/>
<path d="M196.784 210.286C189.152 218.6 193.445 227.39 204.893 227.39C216.103 227.39 221.828 213.612 213.241 207.911C208.71 204.823 200.6 206.011 196.784 210.286ZM208.71 219.551C205.37 222.876 204.178 223.114 201.793 220.501C199.169 218.125 199.408 217.888 202.508 219.075C204.893 220.026 207.278 219.551 208.233 218.125C208.948 216.7 210.379 215.512 211.333 215.512C212.049 215.512 211.095 217.413 208.71 219.551Z" fill="#474439"/>
<path d="M220.395 207.674C217.772 210.287 218.964 213.137 222.542 213.137C224.45 213.137 226.12 212.187 226.12 210.999C226.12 207.911 222.304 205.773 220.395 207.674Z" fill="#474439"/>
<path d="M229.699 214.562C226.36 218.125 223.736 223.351 223.736 226.202C223.736 240.93 249.734 247.581 259.275 235.466C265.715 227.152 265.476 222.401 258.321 214.562C250.45 206.011 237.57 206.011 229.699 214.562ZM254.981 217.175C257.605 220.738 257.605 220.976 254.743 218.363C252.835 216.938 248.065 215.512 244.01 215.512C239.955 215.512 235.185 216.938 233.277 218.363C230.415 220.976 230.415 220.738 233.038 217.175C234.946 214.8 239.478 213.137 244.01 213.137C248.542 213.137 253.073 214.8 254.981 217.175ZM250.688 219.551C251.404 220.738 248.303 221.451 244.01 221.451C239.717 221.451 236.616 220.738 237.332 219.551C237.809 218.6 240.909 217.888 244.01 217.888C247.111 217.888 250.211 218.6 250.688 219.551ZM233.754 233.328C235.9 238.079 235.9 238.079 232.323 233.566C230.176 230.953 228.507 227.152 228.745 225.252C228.745 221.926 228.984 221.926 230.176 225.014C230.892 226.914 232.561 230.715 233.754 233.328ZM257.605 230.24C255.697 232.14 255.458 231.19 256.413 227.152C257.367 224.064 258.321 222.876 259.036 224.777C259.513 226.439 258.798 229.052 257.605 230.24ZM253.073 228.577C252.358 230.715 251.165 231.903 250.688 231.19C249.973 230.478 250.211 229.052 251.165 227.627C253.312 223.826 254.743 224.539 253.073 228.577ZM246.872 228.815C246.156 229.527 244.01 229.765 242.34 229.052C240.432 228.34 241.148 227.627 243.771 227.627C246.395 227.389 247.826 228.102 246.872 228.815ZM246.872 233.566C246.156 234.278 244.01 234.516 242.34 233.803C240.432 233.091 241.148 232.378 243.771 232.378C246.395 232.14 247.826 232.853 246.872 233.566ZM245.918 238.554C244.248 239.029 241.386 239.029 239.955 238.554C238.286 237.841 239.478 237.366 242.817 237.366C246.156 237.366 247.349 237.841 245.918 238.554Z" fill="#474439"/>
<path d="M176.51 218.126C176.987 219.551 178.418 220.501 179.611 220.501C180.804 220.501 182.235 219.551 182.712 218.126C183.189 216.7 181.758 215.513 179.611 215.513C177.464 215.513 176.033 216.7 176.51 218.126Z" fill="#474439"/>
<path d="M186.766 234.041C181.519 238.554 181.28 252.569 186.289 250.194C187.959 249.481 191.059 248.056 193.444 247.343C197.738 245.681 199.169 239.267 195.114 239.267C193.921 239.267 193.444 237.842 194.16 235.941C196.068 230.715 192.013 229.765 186.766 234.041Z" fill="#474439"/>
<path d="M172.933 234.754C174.603 236.416 176.511 237.129 177.226 236.416C177.942 235.704 176.749 234.279 174.364 233.566C171.025 232.141 170.786 232.378 172.933 234.754Z" fill="#474439"/>
<path d="M207.756 237.604C208.472 239.267 207.518 242.593 205.61 244.968C198.454 254.707 213.48 263.259 222.305 254.47C228.268 248.531 226.122 243.543 215.389 237.842C207.279 233.804 206.325 233.566 207.756 237.604Z" fill="#474439"/>
<path d="M124.276 252.569C123.561 254.707 124.276 257.32 125.946 258.27C130.955 261.358 151.228 263.259 156.953 261.121C162.2 259.221 162.2 258.983 154.329 255.42C149.797 253.282 141.688 251.144 135.963 250.194C127.854 249.006 125.469 249.481 124.276 252.569Z" fill="#474439"/>
<path d="M237.093 252.331C233.754 254.707 233.038 256.607 234.708 258.27C238.286 261.833 245.202 258.507 245.202 253.282C245.202 247.818 243.294 247.818 237.093 252.331Z" fill="#474439"/>
<path d="M168.879 260.646C166.494 262.072 166.256 263.022 168.402 263.022C169.833 263.022 171.264 265.635 171.264 268.723C171.264 271.811 172.695 275.374 174.365 276.799C175.796 277.987 190.584 281.313 207.041 284.163C223.499 287.014 239.717 289.864 243.295 290.577C249.019 291.765 250.212 290.814 253.551 282.976C255.459 278.225 256.652 273.711 255.936 272.999C254.982 272.048 180.089 258.508 174.842 258.271C173.649 258.271 170.787 259.459 168.879 260.646ZM186.291 264.685C184.621 265.16 181.759 265.16 180.328 264.685C178.658 263.972 179.851 263.497 183.19 263.497C186.529 263.497 187.722 263.972 186.291 264.685Z" fill="#474439"/>
<ellipse cx="-44" cy="867.5" rx="204" ry="173.5" fill="#EDC432"/>
<path d="M158.792 377.072L147.08 422H133.832L126.664 392.432L119.24 422H105.992L94.6 377.072H106.312L112.776 409.776L120.776 377.072H132.808L140.488 409.776L147.016 377.072H158.792ZM203.193 377.072V422H192.249V403.504H175.225V422H164.281V377.072H175.225V394.672H192.249V377.072H203.193ZM222.037 377.072V422H211.093V377.072H222.037ZM246.224 422.448C242.939 422.448 239.995 421.915 237.392 420.848C234.789 419.781 232.699 418.203 231.12 416.112C229.584 414.021 228.773 411.504 228.688 408.56H240.336C240.507 410.224 241.083 411.504 242.064 412.4C243.045 413.253 244.325 413.68 245.904 413.68C247.525 413.68 248.805 413.317 249.744 412.592C250.683 411.824 251.152 410.779 251.152 409.456C251.152 408.347 250.768 407.429 250 406.704C249.275 405.979 248.357 405.381 247.248 404.912C246.181 404.443 244.645 403.909 242.64 403.312C239.739 402.416 237.371 401.52 235.536 400.624C233.701 399.728 232.123 398.405 230.8 396.656C229.477 394.907 228.816 392.624 228.816 389.808C228.816 385.627 230.331 382.363 233.36 380.016C236.389 377.627 240.336 376.432 245.2 376.432C250.149 376.432 254.139 377.627 257.168 380.016C260.197 382.363 261.819 385.648 262.032 389.872H250.192C250.107 388.421 249.573 387.291 248.592 386.48C247.611 385.627 246.352 385.2 244.816 385.2C243.493 385.2 242.427 385.563 241.616 386.288C240.805 386.971 240.4 387.973 240.4 389.296C240.4 390.747 241.083 391.877 242.448 392.688C243.813 393.499 245.947 394.373 248.848 395.312C251.749 396.293 254.096 397.232 255.888 398.128C257.723 399.024 259.301 400.325 260.624 402.032C261.947 403.739 262.608 405.936 262.608 408.624C262.608 411.184 261.947 413.509 260.624 415.6C259.344 417.691 257.467 419.355 254.992 420.592C252.517 421.829 249.595 422.448 246.224 422.448ZM295.391 422L280.287 402.16V422H269.343V377.072H280.287V396.784L295.263 377.072H308.127L290.719 399.088L308.767 422H295.391Z" fill="#7F5283"/>
</g>
<defs>
<clipPath id="clip0_1178_416">
<rect width="390" height="844" fill="white"/>
</clipPath>
</defs>
</svg>
