<svg width="281" height="281" viewBox="0 0 281 281" fill="none" xmlns="http://www.w3.org/2000/svg">
<g clip-path="url(#clip0_1147_707)" filter="url(#filter0_d_1147_707)">
<path d="M265.296 95.0149L264.092 94.5543L275.657 58.3892C277.432 52.8381 277.123 46.747 274.798 41.4559C272.473 36.1648 268.322 32.1071 263.259 30.1755L193.366 3.51697C188.303 1.58534 182.741 1.938 177.906 4.49737C173.07 7.05674 169.356 11.6132 167.581 17.1643L167.581 17.1653L104.141 215.57C103.262 218.318 102.886 221.228 103.033 224.134C103.181 227.039 103.849 229.883 105 232.503C106.152 235.123 107.763 237.467 109.743 239.403C111.723 241.338 114.033 242.827 116.54 243.783L186.431 270.443C191.494 272.375 197.055 272.022 201.891 269.462C206.726 266.903 210.44 262.346 212.215 256.795L255.86 120.299L257.064 120.758L265.296 95.0149Z" fill="#232946"/>
<path d="M261.285 35.9031L252.162 32.4231C252.221 33.7108 251.99 34.9953 251.489 36.1635C250.988 37.3317 250.233 38.3478 249.29 39.1222C248.348 39.8966 247.246 40.4056 246.083 40.6043C244.919 40.8031 243.73 40.6855 242.619 40.2619L202.58 24.9891C201.47 24.565 200.472 23.8481 199.675 22.9014C198.878 21.9547 198.306 20.8073 198.01 19.5603C197.713 18.3132 197.702 17.0048 197.976 15.7502C198.25 14.4957 198.801 13.3335 199.581 12.366L191.061 9.11561C187.279 7.6732 183.126 7.93671 179.515 9.84816C175.903 11.7596 173.13 15.1624 171.804 19.3081L108.456 217.421C107.13 221.566 107.361 226.115 109.098 230.067C110.834 234.018 113.934 237.048 117.716 238.491L187.942 265.279C191.724 266.721 195.877 266.458 199.488 264.546C203.099 262.635 205.873 259.232 207.198 255.086L270.545 56.9731C271.871 52.8274 271.64 48.2785 269.903 44.3271C268.167 40.3757 265.066 37.3455 261.285 35.9031Z" fill="white"/>
<path d="M218.007 183.057L143.062 154.469C142.695 154.328 142.393 154.033 142.224 153.649C142.055 153.264 142.032 152.822 142.161 152.418L154.224 114.692C154.353 114.289 154.623 113.958 154.975 113.772C155.326 113.586 155.73 113.56 156.098 113.7L231.044 142.287C231.412 142.428 231.713 142.723 231.882 143.108C232.051 143.492 232.074 143.935 231.945 144.338L219.881 182.065C219.752 182.468 219.482 182.799 219.131 182.985C218.779 183.171 218.375 183.197 218.007 183.057ZM155.904 114.309C155.683 114.225 155.44 114.24 155.23 114.352C155.019 114.463 154.857 114.662 154.779 114.904L142.716 152.63C142.639 152.872 142.653 153.137 142.754 153.368C142.855 153.599 143.036 153.776 143.257 153.86L218.203 182.448C218.423 182.532 218.666 182.517 218.877 182.405C219.087 182.293 219.249 182.095 219.327 181.853L231.391 144.126C231.468 143.884 231.454 143.619 231.353 143.388C231.251 143.157 231.07 142.98 230.85 142.896L155.904 114.309Z" fill="#3F3D56"/>
<path d="M197.612 247.084L122.667 218.496C122.299 218.355 121.998 218.06 121.829 217.676C121.66 217.291 121.637 216.849 121.766 216.445L133.829 178.719C133.958 178.316 134.228 177.985 134.579 177.799C134.931 177.613 135.335 177.587 135.703 177.727L210.648 206.314C211.016 206.455 211.318 206.75 211.487 207.135C211.655 207.519 211.678 207.962 211.55 208.365L199.486 246.092C199.357 246.495 199.087 246.826 198.735 247.012C198.384 247.198 197.98 247.224 197.612 247.084ZM135.508 178.335C135.287 178.251 135.045 178.267 134.834 178.379C134.623 178.49 134.461 178.689 134.384 178.931L122.321 216.657C122.244 216.899 122.257 217.164 122.359 217.395C122.46 217.626 122.641 217.803 122.862 217.887L197.807 246.475C198.028 246.559 198.27 246.544 198.481 246.432C198.692 246.32 198.854 246.122 198.931 245.88L210.995 208.153C211.072 207.911 211.059 207.646 210.957 207.415C210.856 207.184 210.675 207.007 210.454 206.923L135.508 178.335Z" fill="#3F3D56"/>
<path d="M233.97 131.545L200.661 118.839C200.293 118.698 199.992 118.403 199.823 118.019C199.654 117.634 199.631 117.192 199.76 116.788L211.92 78.7573C212.049 78.3541 212.319 78.0232 212.671 77.8372C213.022 77.6512 213.426 77.6253 213.794 77.7652L247.104 90.4711C247.471 90.612 247.773 90.907 247.942 91.2915C248.111 91.676 248.133 92.1185 248.005 92.5221L235.844 130.553C235.715 130.956 235.445 131.287 235.094 131.473C234.742 131.659 234.338 131.685 233.97 131.545V131.545ZM213.6 78.3738C213.379 78.2899 213.137 78.3054 212.926 78.4171C212.715 78.5287 212.553 78.7272 212.475 78.9692L200.315 117C200.238 117.242 200.251 117.508 200.353 117.738C200.454 117.969 200.635 118.146 200.856 118.23L234.165 130.937C234.386 131.021 234.628 131.005 234.839 130.894C235.05 130.782 235.212 130.583 235.289 130.341L247.45 92.3105C247.527 92.0684 247.513 91.8029 247.412 91.5722C247.31 91.3415 247.129 91.1645 246.909 91.0801L213.6 78.3738Z" fill="#E6E6E6"/>
<path d="M229.38 120.995C229.63 121.09 229.904 121.072 230.143 120.946C230.381 120.819 230.564 120.595 230.652 120.321C230.739 120.047 230.724 119.747 230.61 119.486C230.495 119.225 230.291 119.024 230.041 118.929L210.927 111.638C210.677 111.543 210.403 111.56 210.164 111.687C209.926 111.813 209.743 112.038 209.656 112.312C209.568 112.585 209.583 112.886 209.698 113.147C209.812 113.408 210.017 113.608 210.266 113.704L229.38 120.995Z" fill="#E6E6E6"/>
<path d="M231.327 114.908C231.45 114.956 231.582 114.976 231.713 114.968C231.844 114.96 231.972 114.923 232.09 114.861C232.209 114.798 232.315 114.711 232.402 114.604C232.49 114.496 232.557 114.371 232.6 114.235C232.644 114.1 232.662 113.956 232.655 113.812C232.648 113.669 232.615 113.528 232.558 113.399C232.501 113.27 232.421 113.154 232.323 113.058C232.225 112.963 232.111 112.889 231.987 112.842L212.873 105.551C212.749 105.504 212.618 105.484 212.487 105.492C212.356 105.5 212.228 105.536 212.11 105.599C211.991 105.661 211.885 105.749 211.798 105.856C211.71 105.963 211.643 106.088 211.599 106.224C211.556 106.36 211.537 106.504 211.545 106.647C211.552 106.791 211.585 106.931 211.642 107.061C211.699 107.19 211.779 107.306 211.877 107.401C211.974 107.497 212.089 107.57 212.213 107.617L231.327 114.908Z" fill="#E6E6E6"/>
<path d="M193.443 115.975L160.134 103.269C159.766 103.128 159.465 102.833 159.296 102.449C159.127 102.064 159.104 101.622 159.233 101.218L171.393 63.1875C171.523 62.7842 171.793 62.4533 172.144 62.2674C172.495 62.0814 172.899 62.0555 173.268 62.1954L206.577 74.9013C206.944 75.0421 207.246 75.3372 207.415 75.7216C207.584 76.1061 207.607 76.5487 207.478 76.9522L195.318 114.983C195.188 115.386 194.918 115.717 194.567 115.903C194.216 116.089 193.811 116.115 193.443 115.975V115.975ZM173.073 62.804C172.852 62.7201 172.61 62.7356 172.399 62.8472C172.188 62.9589 172.026 63.1574 171.949 63.3994L159.788 101.43C159.711 101.672 159.724 101.938 159.826 102.169C159.927 102.399 160.108 102.576 160.329 102.661L193.638 115.367C193.859 115.451 194.101 115.435 194.312 115.324C194.523 115.212 194.685 115.013 194.762 114.772L206.923 76.7407C207 76.4986 206.986 76.233 206.885 76.0024C206.783 75.7717 206.603 75.5947 206.382 75.5103L173.073 62.804Z" fill="#E6E6E6"/>
<path d="M188.854 105.425C189.103 105.52 189.378 105.502 189.616 105.376C189.854 105.249 190.037 105.025 190.125 104.751C190.212 104.477 190.197 104.177 190.083 103.916C189.968 103.655 189.764 103.455 189.514 103.359L170.4 96.0678C170.15 95.9729 169.876 95.9906 169.638 96.1169C169.399 96.2433 169.216 96.4681 169.129 96.7418C169.041 97.0155 169.056 97.3159 169.171 97.5769C169.285 97.8379 169.49 98.0382 169.739 98.1338L188.854 105.425Z" fill="#E6E6E6"/>
<path d="M190.8 99.3386C190.924 99.386 191.055 99.4062 191.186 99.398C191.317 99.3899 191.445 99.3535 191.563 99.291C191.682 99.2285 191.788 99.141 191.875 99.0337C191.963 98.9264 192.03 98.8013 192.074 98.6655C192.117 98.5297 192.136 98.3859 192.128 98.2424C192.121 98.0989 192.088 97.9585 192.031 97.8291C191.974 97.6997 191.894 97.584 191.796 97.4885C191.699 97.393 191.584 97.3196 191.46 97.2725L172.346 89.9813C172.223 89.9339 172.091 89.9137 171.96 89.9219C171.829 89.93 171.701 89.9664 171.583 90.0289C171.464 90.0914 171.358 90.1789 171.271 90.2862C171.183 90.3935 171.116 90.5186 171.073 90.6544C171.029 90.7902 171.011 90.9339 171.018 91.0775C171.025 91.221 171.058 91.3614 171.115 91.4908C171.172 91.6202 171.252 91.7359 171.35 91.8314C171.448 91.9269 171.562 92.0003 171.686 92.0474L190.8 99.3386Z" fill="#E6E6E6"/>
<path d="M67.9553 108.8C73.5644 108.872 78.1747 103.948 78.2528 97.804C78.3308 91.6596 73.8471 86.6208 68.2381 86.5495C62.6291 86.4782 58.0187 91.4014 57.9406 97.5459C57.8626 103.69 62.3463 108.729 67.9553 108.8Z" fill="#9F616A"/>
<path d="M62.2085 98.9768C63.0142 98.9343 63.7966 99.2417 64.5947 99.369C67.4499 99.8212 70.4542 97.5854 71.1251 94.5092C71.181 94.0991 71.2978 93.7017 71.471 93.3327C71.9213 92.5508 72.9258 92.4136 73.7499 92.6051C74.574 92.7967 75.3522 93.2303 76.1933 93.2896C77.492 93.3809 78.7507 92.5201 79.4587 91.322C80.129 90.0852 80.4256 88.6488 80.3061 87.2182L79.6739 87.9264C79.4282 87.3365 79.3388 86.6825 79.4158 86.0389C79.0868 85.9384 78.7396 85.9321 78.4074 86.0207C78.0752 86.1092 77.7692 86.2897 77.5185 86.5448C76.9683 86.6017 77.3981 85.427 76.9955 85.0139C76.7986 84.8778 76.5626 84.8264 76.3329 84.8695C75.164 84.8669 74.231 83.8758 73.3202 83.076C71.7419 81.693 69.8878 80.7369 67.9079 80.285C66.5918 79.9861 65.1891 79.9232 63.9308 80.4442C62.9142 80.9281 61.9934 81.6251 61.2203 82.4957C59.2347 84.533 57.4687 86.9377 56.6177 89.768C55.9254 92.0863 55.875 94.5757 56.4729 96.9221C56.7858 98.1406 57.723 102.312 59.171 102.427C60.9891 102.573 59.9403 99.0962 62.2085 98.9768Z" fill="#2F2E41"/>
<path d="M47.0302 186.497C47.5988 186.081 48.0775 185.534 48.4327 184.894C48.7878 184.254 49.0107 183.537 49.0857 182.793C49.1607 182.05 49.0859 181.297 48.8667 180.589C48.6474 179.881 48.289 179.235 47.8167 178.696L50.1918 134.41L40.9521 135.427L40.9373 178.775C40.1609 179.707 39.7228 180.917 39.7058 182.176C39.6889 183.436 40.0944 184.658 40.8455 185.61C41.5966 186.562 42.641 187.178 43.7809 187.342C44.9208 187.506 46.0769 187.206 47.0302 186.499L47.0302 186.497Z" fill="#A0616A"/>
<path d="M62.9065 261.716L68.1443 262.793L73.6096 241.154L66.749 239.574L62.9065 261.716Z" fill="#A0616A"/>
<path d="M77.2838 270.21L60.8209 266.807L62.036 259.836L72.1384 261.925C73.8253 262.274 75.3151 263.342 76.2801 264.896C77.245 266.45 77.6061 268.362 77.2838 270.21V270.21Z" fill="#2F2E41"/>
<path d="M48.4583 264.412L53.7891 264.48L56.6113 241.986L48.7437 241.886L48.4583 264.412Z" fill="#A0616A"/>
<path d="M63.9967 270.033L47.2419 269.82L47.332 262.729L57.6135 262.859C59.3303 262.881 60.9673 263.649 62.1644 264.994C63.3615 266.34 64.0206 268.152 63.9967 270.033Z" fill="#2F2E41"/>
<path d="M70.8034 256.621C70.7202 256.62 70.6372 256.613 70.5548 256.601L64.2871 255.956C63.729 255.877 63.223 255.558 62.8803 255.07C62.5376 254.582 62.3864 253.964 62.4599 253.352C62.4645 253.314 62.47 253.275 62.4764 253.237L69.1352 219.647L65.5075 196.983C65.4782 196.799 65.3888 196.633 65.2561 196.515C65.1233 196.398 64.9561 196.337 64.7853 196.344C64.6146 196.351 64.4518 196.426 64.327 196.554C64.2023 196.682 64.1241 196.855 64.1068 197.042L57.6112 254.429C57.5498 255.034 57.2764 255.589 56.8487 255.978C56.4211 256.367 55.8726 256.559 55.319 256.514L49.4106 256.198C48.8931 256.151 48.4095 255.898 48.0513 255.487C47.693 255.076 47.4849 254.535 47.4661 253.967L48.8207 184.537L79.5226 180.73L81.2032 216.979L81.1941 217.017L72.8882 254.871C72.7691 255.375 72.499 255.822 72.121 256.14C71.743 256.457 71.2791 256.626 70.8034 256.621V256.621Z" fill="#232946"/>
<path d="M68.9214 190.077C67.2504 190.067 65.6182 189.533 64.2179 188.538C59.0895 184.93 53.1955 186.263 50.1385 187.38C49.8351 187.492 49.5128 187.528 49.1954 187.484C48.8781 187.44 48.5741 187.319 48.3061 187.128C48.0412 186.941 47.8185 186.69 47.6548 186.395C47.491 186.1 47.3904 185.768 47.3605 185.424L42.5172 131.227C41.7053 122.147 46.8004 113.684 54.6319 111.105C54.9261 111.008 55.2251 110.917 55.5289 110.83C57.9646 110.141 60.5075 110.044 62.9786 110.546C65.4497 111.049 67.7889 112.138 69.8318 113.739C71.913 115.357 73.6442 117.456 74.9034 119.888C76.1627 122.319 76.9194 125.025 77.1204 127.815L81.0864 182.362C81.1134 182.715 81.0651 183.071 80.9454 183.401C80.8256 183.73 80.6376 184.025 80.3963 184.262C78.7425 185.896 73.9493 190.141 68.9214 190.077Z" fill="#7F5283"/>
<path d="M52.671 142.965L40.2086 141.303C39.854 141.256 39.5131 141.125 39.2091 140.92C38.905 140.716 38.645 140.441 38.4467 140.116C38.2483 139.791 38.1164 139.423 38.0598 139.037C38.0032 138.651 38.0233 138.255 38.1188 137.878L41.4644 124.654C41.5728 123.667 41.8577 122.712 42.3028 121.845C42.7479 120.978 43.3445 120.215 44.0584 119.599C44.7723 118.984 45.5895 118.529 46.4634 118.259C47.3373 117.99 48.2508 117.912 49.1515 118.029C50.0522 118.146 50.9226 118.457 51.7129 118.943C52.5031 119.43 53.1978 120.082 53.7572 120.863C54.3166 121.644 54.7297 122.539 54.9729 123.496C55.2161 124.453 55.2847 125.453 55.1747 126.44C55.1716 126.468 55.1683 126.497 55.1648 126.525L55.4628 140.19C55.4712 140.582 55.4025 140.971 55.2615 141.331C55.1204 141.69 54.9102 142.013 54.6453 142.276C54.3803 142.54 54.0668 142.737 53.7261 142.856C53.3854 142.975 53.0255 143.012 52.671 142.965V142.965Z" fill="#7F5283"/>
<path d="M81.0005 185.031C81.5195 184.544 81.9348 183.938 82.2171 183.256C82.4994 182.574 82.642 181.832 82.6346 181.084C82.6273 180.336 82.4703 179.599 82.1747 178.926C81.8791 178.252 81.4521 177.658 80.9238 177.185L78.4102 132.921L69.3423 135.035L74.1014 178.171C73.4332 179.198 73.1315 180.456 73.2533 181.709C73.3751 182.961 73.9121 184.119 74.7625 184.965C75.6129 185.81 76.7176 186.284 77.8674 186.297C79.0171 186.309 80.132 185.859 81.0008 185.032L81.0005 185.031Z" fill="#A0616A"/>
<path d="M65.8077 140.351C65.5493 140.081 65.3472 139.753 65.2154 139.389C65.0835 139.026 65.0249 138.635 65.0437 138.244L65.6888 124.59C65.5198 122.601 66.0766 120.617 67.2377 119.072C68.3987 117.527 70.0696 116.547 71.8853 116.346C73.7011 116.145 75.514 116.739 76.9281 117.998C78.3422 119.258 79.2426 121.08 79.4325 123.068L82.4409 136.372C82.5267 136.752 82.5368 137.148 82.4704 137.533C82.404 137.917 82.2628 138.282 82.0562 138.602C81.8497 138.922 81.5828 139.189 81.2736 139.386C80.9645 139.583 80.6204 139.705 80.2647 139.743L67.7641 141.088C67.4084 141.126 67.0495 141.08 66.7118 140.953C66.3742 140.825 66.0658 140.62 65.8077 140.349L65.8077 140.351Z" fill="#7F5283"/>
<path d="M239.555 272.272L4.00928 269.279L4.00039 269.978L239.546 272.971L239.555 272.272Z" fill="#CACACA"/>
<rect x="162.181" y="126.394" width="26.3083" height="8.16131" rx="4.08065" transform="rotate(20.3823 162.181 126.394)" fill="#E6E6E6"/>
<path d="M164.227 131.507C163.362 133.833 161.203 134.857 159.593 134.259C157.983 133.661 157.017 131.476 157.881 129.15C158.745 126.823 160.905 125.799 162.514 126.397C164.124 126.995 165.091 129.181 164.227 131.507Z" fill="#EDC432" stroke="#EDC432" stroke-width="2"/>
<path d="M164.532 129.511C164.479 129.42 164.409 129.34 164.325 129.276C164.241 129.212 164.146 129.165 164.044 129.137C163.942 129.11 163.836 129.104 163.731 129.118C163.627 129.132 163.526 129.166 163.435 129.219L160.779 130.758L160.484 129.588C160.46 129.484 160.415 129.386 160.353 129.3C160.29 129.214 160.211 129.141 160.12 129.085C160.029 129.03 159.928 128.993 159.822 128.977C159.717 128.961 159.609 128.966 159.506 128.992C159.403 129.019 159.305 129.065 159.22 129.129C159.135 129.193 159.063 129.273 159.009 129.365C158.956 129.457 158.921 129.559 158.906 129.665C158.892 129.771 158.899 129.878 158.927 129.981L159.483 132.183C159.535 132.392 159.668 132.568 159.849 132.676L159.949 132.727C160.064 132.775 160.188 132.796 160.312 132.788C160.436 132.78 160.556 132.744 160.664 132.682L164.24 130.608C164.331 130.555 164.411 130.485 164.475 130.401C164.539 130.318 164.586 130.222 164.613 130.12C164.64 130.018 164.647 129.912 164.633 129.808C164.619 129.703 164.585 129.602 164.532 129.511V129.511Z" fill="white"/>
<rect x="199.594" y="140.459" width="26.3083" height="8.16131" rx="4.08065" transform="rotate(20.3823 199.594 140.459)" fill="#E6E6E6"/>
<path d="M201.639 145.572C200.775 147.898 198.616 148.922 197.006 148.324C195.396 147.726 194.429 145.541 195.294 143.214C196.158 140.888 198.317 139.864 199.927 140.462C201.537 141.06 202.503 143.246 201.639 145.572Z" fill="#EDC432" stroke="#EDC432" stroke-width="2"/>
<path d="M201.945 143.576C201.892 143.485 201.822 143.405 201.738 143.341C201.654 143.276 201.558 143.23 201.456 143.202C201.355 143.175 201.248 143.169 201.144 143.183C201.039 143.197 200.938 143.231 200.847 143.284L198.192 144.823L197.897 143.653C197.873 143.549 197.828 143.451 197.765 143.365C197.703 143.279 197.624 143.206 197.533 143.15C197.442 143.095 197.34 143.058 197.235 143.042C197.129 143.026 197.022 143.031 196.919 143.057C196.815 143.083 196.718 143.13 196.633 143.194C196.548 143.258 196.476 143.338 196.422 143.43C196.368 143.522 196.333 143.624 196.319 143.73C196.305 143.836 196.312 143.943 196.34 144.046L196.895 146.248C196.948 146.456 197.081 146.633 197.262 146.741L197.362 146.792C197.476 146.84 197.6 146.861 197.724 146.853C197.848 146.845 197.969 146.809 198.076 146.746L201.652 144.673C201.744 144.62 201.824 144.55 201.888 144.466C201.952 144.383 201.999 144.287 202.026 144.185C202.053 144.083 202.06 143.977 202.046 143.872C202.032 143.768 201.998 143.667 201.945 143.576V143.576Z" fill="white"/>
<rect x="194.404" y="155.394" width="26.3083" height="8.16131" rx="4.08065" transform="rotate(20.3823 194.404 155.394)" fill="#E6E6E6"/>
<path d="M196.449 160.507C195.585 162.833 193.426 163.858 191.816 163.26C190.206 162.661 189.239 160.476 190.104 158.15C190.968 155.824 193.127 154.799 194.737 155.398C196.347 155.996 197.313 158.181 196.449 160.507Z" fill="#EDC432" stroke="#EDC432" stroke-width="2"/>
<path d="M196.755 158.511C196.702 158.42 196.632 158.34 196.548 158.276C196.464 158.212 196.368 158.165 196.267 158.138C196.165 158.111 196.058 158.104 195.954 158.118C195.849 158.132 195.748 158.166 195.657 158.219L193.002 159.758L192.707 158.588C192.683 158.485 192.638 158.387 192.575 158.3C192.513 158.214 192.434 158.141 192.343 158.085C192.252 158.03 192.15 157.993 192.045 157.977C191.94 157.961 191.832 157.967 191.729 157.993C191.625 158.019 191.528 158.065 191.443 158.129C191.358 158.193 191.286 158.274 191.232 158.366C191.178 158.458 191.143 158.559 191.129 158.665C191.115 158.771 191.122 158.878 191.15 158.981L191.705 161.183C191.758 161.392 191.891 161.568 192.072 161.677L192.172 161.727C192.286 161.775 192.41 161.796 192.534 161.788C192.658 161.781 192.779 161.744 192.886 161.682L196.462 159.609C196.554 159.556 196.634 159.485 196.698 159.402C196.762 159.318 196.809 159.222 196.836 159.12C196.863 159.019 196.87 158.912 196.856 158.808C196.842 158.703 196.808 158.602 196.755 158.511V158.511Z" fill="white"/>
<rect x="157.572" y="141.925" width="26.3083" height="8.16131" rx="4.08065" transform="rotate(20.3823 157.572 141.925)" fill="#E6E6E6"/>
<path d="M159.617 147.038C158.753 149.364 156.594 150.388 154.984 149.79C153.374 149.192 152.407 147.007 153.272 144.681C154.136 142.355 156.295 141.33 157.905 141.928C159.515 142.526 160.481 144.712 159.617 147.038Z" fill="#EDC432" stroke="#EDC432" stroke-width="2"/>
<path d="M159.4 145.187C159.35 145.1 159.283 145.025 159.204 144.964C159.125 144.903 159.034 144.859 158.938 144.833C158.841 144.808 158.741 144.801 158.642 144.814C158.543 144.828 158.447 144.86 158.361 144.91L155.848 146.367L155.569 145.26C155.546 145.162 155.503 145.069 155.444 144.987C155.385 144.905 155.31 144.836 155.224 144.784C155.138 144.731 155.042 144.697 154.942 144.681C154.843 144.666 154.741 144.671 154.643 144.696C154.545 144.721 154.453 144.765 154.372 144.825C154.292 144.886 154.224 144.962 154.173 145.049C154.122 145.136 154.089 145.232 154.076 145.332C154.062 145.432 154.069 145.534 154.095 145.632L154.621 147.716C154.671 147.913 154.796 148.08 154.968 148.183L155.062 148.23C155.171 148.276 155.288 148.296 155.405 148.288C155.523 148.281 155.637 148.246 155.739 148.187L159.123 146.225C159.209 146.175 159.285 146.109 159.346 146.029C159.406 145.95 159.451 145.86 159.476 145.763C159.502 145.667 159.509 145.566 159.495 145.467C159.482 145.368 159.45 145.273 159.4 145.187V145.187Z" fill="white"/>
<g clip-path="url(#clip1_1147_707)">
<path d="M183.163 31.0903C183.295 31.1392 183.403 31.2371 183.465 31.3635C183.527 31.49 183.537 31.6353 183.495 31.7695C183.452 31.9037 183.36 32.0164 183.237 32.0842C183.113 32.1521 182.969 32.1699 182.833 32.134L182.782 32.1181L177.301 30.088C177.169 30.0391 177.061 29.9413 176.999 29.8148C176.937 29.6884 176.926 29.543 176.969 29.4088C177.011 29.2747 177.104 29.162 177.227 29.0941C177.35 29.0263 177.495 29.0085 177.631 29.0444L177.681 29.0602L183.163 31.0903ZM184.051 28.6921C184.188 28.7426 184.298 28.8451 184.359 28.9772C184.42 29.1092 184.425 29.26 184.375 29.3963C184.324 29.5326 184.222 29.6433 184.09 29.7039C183.958 29.7646 183.807 29.7704 183.671 29.7199L178.189 27.6898C178.053 27.6394 177.942 27.5368 177.881 27.4047C177.821 27.2727 177.815 27.1219 177.865 26.9856C177.916 26.8493 178.018 26.7386 178.15 26.678C178.283 26.6173 178.433 26.6115 178.57 26.662L184.051 28.6921ZM184.939 26.2939C185.076 26.3443 185.186 26.4469 185.247 26.579C185.308 26.711 185.313 26.8618 185.263 26.9981C185.212 27.1344 185.11 27.245 184.978 27.3057C184.846 27.3664 184.695 27.3721 184.559 27.3217L179.077 25.2916C178.941 25.2411 178.83 25.1386 178.769 25.0065C178.709 24.8745 178.703 24.7237 178.754 24.5874C178.804 24.4511 178.907 24.3404 179.039 24.2797C179.171 24.2191 179.321 24.2133 179.458 24.2638L184.939 26.2939Z" fill="#7F5283"/>
</g>
<g clip-path="url(#clip2_1147_707)">
<path d="M260.336 60.9095L260.579 60.2439L261.577 60.6071L261.94 59.6087L262.606 59.8508L262.182 61.0157C262.134 61.1488 262.031 61.2245 261.895 61.288C261.758 61.3515 261.601 61.3696 261.501 61.3333L260.336 60.9095ZM257.008 59.6987L255.843 59.2749C255.71 59.2265 255.634 59.1236 255.571 58.9874C255.507 58.8512 255.489 58.6939 255.526 58.594L255.949 57.4291L256.615 57.6713L256.252 58.6698L257.25 59.033L257.008 59.6987ZM262.758 54.253L263.923 54.6768C264.056 54.7252 264.132 54.8281 264.195 54.9643C264.259 55.1005 264.289 55.2245 264.241 55.3577L263.817 56.5226L263.151 56.2804L263.514 55.2819L262.516 54.9187L262.758 54.253ZM259.43 53.0422L259.188 53.7078L258.189 53.3446L257.826 54.3431L257.16 54.1009L257.584 52.936C257.632 52.8029 257.735 52.7272 257.871 52.6637C258.008 52.6002 258.132 52.57 258.265 52.6184L259.43 53.0422ZM262.334 57.4906L257.674 55.7954L257.432 56.4611L262.092 58.1563L262.334 57.4906Z" fill="#7F5283"/>
</g>
<path d="M193.82 244.169L123.475 217.998L151.041 196.687C151.535 196.305 152.125 196.054 152.753 195.961C153.381 195.868 154.024 195.935 154.618 196.156C155.211 196.377 155.734 196.743 156.134 197.219C156.534 197.694 156.797 198.262 156.896 198.865L159.264 213.231L179.287 197.749C179.906 197.271 180.645 196.958 181.431 196.841C182.218 196.725 183.022 196.809 183.765 197.086C184.508 197.362 185.163 197.821 185.664 198.416C186.165 199.011 186.494 199.722 186.618 200.477L193.82 244.169ZM126.119 217.606L192.135 242.167L185.295 200.675C185.207 200.144 184.975 199.643 184.622 199.224C184.27 198.805 183.808 198.481 183.285 198.287C182.761 198.092 182.194 198.032 181.64 198.114C181.087 198.196 180.566 198.417 180.13 198.754L158.304 215.626L155.574 199.062C155.511 198.682 155.346 198.324 155.093 198.024C154.841 197.725 154.512 197.494 154.138 197.354C153.764 197.215 153.359 197.173 152.963 197.232C152.567 197.29 152.195 197.448 151.884 197.689L126.119 217.606Z" fill="#E6E6E6"/>
<g filter="url(#filter1_b_1147_707)">
<rect x="181.327" y="199.226" width="30.0001" height="34.3903" rx="9" transform="rotate(20.1109 181.327 199.226)" fill="#9E919F" fill-opacity="0.64"/>
</g>
<path d="M201.598 219.554C201.722 219.6 201.853 219.618 201.984 219.609C202.115 219.599 202.243 219.561 202.361 219.497C202.478 219.433 202.583 219.345 202.669 219.236C202.756 219.128 202.822 219.002 202.863 218.866C202.905 218.729 202.922 218.585 202.913 218.442C202.904 218.299 202.869 218.159 202.811 218.03C202.752 217.901 202.671 217.786 202.572 217.692C202.473 217.598 202.358 217.526 202.234 217.48L183.035 210.416C182.91 210.37 182.779 210.351 182.648 210.361C182.517 210.371 182.389 210.409 182.272 210.473C182.154 210.536 182.049 210.625 181.963 210.733C181.877 210.842 181.811 210.968 181.769 211.104C181.727 211.24 181.71 211.384 181.719 211.528C181.728 211.671 181.763 211.811 181.821 211.94C181.88 212.069 181.961 212.183 182.06 212.278C182.159 212.372 182.274 212.444 182.398 212.49L201.598 219.554Z" fill="#E6E6E6"/>
<path d="M199.587 224.654C199.711 224.7 199.843 224.719 199.974 224.709C200.105 224.699 200.232 224.661 200.35 224.597C200.468 224.533 200.572 224.445 200.659 224.336C200.745 224.228 200.811 224.102 200.853 223.966C200.895 223.83 200.911 223.686 200.902 223.542C200.893 223.399 200.859 223.259 200.8 223.13C200.742 223.001 200.661 222.886 200.562 222.792C200.463 222.698 200.348 222.626 200.223 222.58L181.024 215.516C180.9 215.47 180.768 215.451 180.637 215.461C180.506 215.471 180.378 215.509 180.261 215.573C180.143 215.637 180.038 215.725 179.952 215.834C179.866 215.942 179.8 216.068 179.758 216.204C179.716 216.34 179.699 216.484 179.708 216.628C179.717 216.771 179.752 216.911 179.811 217.04C179.869 217.169 179.95 217.283 180.049 217.378C180.148 217.472 180.263 217.544 180.388 217.59L199.587 224.654Z" fill="#E6E6E6"/>
<path d="M215.621 36.3014L210.55 43.3777L208.231 42.487L208.965 36.8298L205.677 41.5059L203.358 40.6152L204.385 31.9855L206.435 32.7729L205.368 38.9317L208.967 33.7454L211.073 34.5544L210.218 40.795L213.56 35.5097L215.621 36.3014ZM223.392 39.2867L220.371 47.1505L218.456 46.4147L219.7 43.1773L216.72 42.0327L215.476 45.2701L213.561 44.5342L216.581 36.6705L218.497 37.4063L217.314 40.4868L220.293 41.6314L221.477 38.5509L223.392 39.2867ZM226.691 40.5538L223.67 48.4175L221.754 47.6817L224.775 39.8179L226.691 40.5538ZM227.873 50.1222C227.298 49.9013 226.819 49.61 226.435 49.2483C226.051 48.8866 225.791 48.4697 225.655 47.9977C225.527 47.5284 225.555 47.0333 225.738 46.5123L227.776 47.2955C227.694 47.5982 227.709 47.861 227.821 48.0838C227.935 48.2991 228.13 48.4598 228.407 48.566C228.69 48.675 228.939 48.6976 229.152 48.6337C229.368 48.5624 229.52 48.411 229.609 48.1795C229.684 47.9853 229.678 47.799 229.593 47.6204C229.514 47.4447 229.394 47.2784 229.231 47.1217C229.076 46.9678 228.843 46.7712 228.532 46.5318C228.085 46.1799 227.731 45.8639 227.47 45.5837C227.209 45.3035 227.022 44.9659 226.908 44.5707C226.794 44.1756 226.831 43.7316 227.021 43.2387C227.302 42.5069 227.786 42.0374 228.474 41.8304C229.165 41.6158 229.936 41.6721 230.788 41.9991C231.654 42.3319 232.272 42.8092 232.642 43.4311C233.014 44.0455 233.077 44.7296 232.83 45.4832L230.758 44.6872C230.841 44.4275 230.823 44.1938 230.706 43.9859C230.592 43.7706 230.4 43.6112 230.131 43.508C229.9 43.419 229.689 43.4108 229.498 43.4833C229.31 43.5482 229.172 43.6965 229.083 43.928C228.985 44.1819 229.029 44.4257 229.213 44.6594C229.398 44.8931 229.712 45.1896 230.157 45.549C230.599 45.9158 230.946 46.2379 231.2 46.5152C231.461 46.7954 231.65 47.1293 231.766 47.5169C231.883 47.9046 231.851 48.3337 231.67 48.8041C231.498 49.2522 231.226 49.6148 230.854 49.8918C230.489 50.1716 230.049 50.3367 229.533 50.3868C229.016 50.437 228.463 50.3488 227.873 50.1222ZM236.509 53.3495L235.199 48.8614L233.865 52.334L231.95 51.5982L234.971 43.7344L236.886 44.4702L235.561 47.9204L239.507 45.4772L241.759 46.3421L237.232 49.0251L238.85 54.2489L236.509 53.3495Z" fill="#7F5283"/>
</g>
<defs>
<filter id="filter0_d_1147_707" x="0" y="0" width="281.409" height="281.409" filterUnits="userSpaceOnUse" color-interpolation-filters="sRGB">
<feFlood flood-opacity="0" result="BackgroundImageFix"/>
<feColorMatrix in="SourceAlpha" type="matrix" values="0 0 0 0 0 0 0 0 0 0 0 0 0 0 0 0 0 0 127 0" result="hardAlpha"/>
<feOffset dy="4"/>
<feGaussianBlur stdDeviation="2"/>
<feComposite in2="hardAlpha" operator="out"/>
<feColorMatrix type="matrix" values="0 0 0 0 0 0 0 0 0 0 0 0 0 0 0 0 0 0 0.25 0"/>
<feBlend mode="normal" in2="BackgroundImageFix" result="effect1_dropShadow_1147_707"/>
<feBlend mode="normal" in="SourceGraphic" in2="effect1_dropShadow_1147_707" result="shape"/>
</filter>
<filter id="filter1_b_1147_707" x="168.046" y="197.769" width="42.9087" height="45.522" filterUnits="userSpaceOnUse" color-interpolation-filters="sRGB">
<feFlood flood-opacity="0" result="BackgroundImageFix"/>
<feGaussianBlur in="BackgroundImageFix" stdDeviation="2"/>
<feComposite in2="SourceAlpha" operator="in" result="effect1_backgroundBlur_1147_707"/>
<feBlend mode="normal" in="SourceGraphic" in2="effect1_backgroundBlur_1147_707" result="shape"/>
</filter>
<clipPath id="clip0_1147_707">
<rect width="270" height="270" fill="white" transform="translate(7.43115) rotate(0.728091)"/>
</clipPath>
<clipPath id="clip1_1147_707">
<rect width="8.7682" height="8.7682" fill="white" transform="translate(178.531 22.5571) rotate(20.3215)"/>
</clipPath>
<clipPath id="clip2_1147_707">
<rect width="8.5" height="8.5" fill="white" transform="translate(257.342 51.5291) rotate(19.9917)"/>
</clipPath>
</defs>
</svg>
