<svg width="35" height="35" viewBox="0 0 35 35" fill="none" xmlns="http://www.w3.org/2000/svg">
<circle cx="17.9934" cy="17.0066" r="16.5066" fill="white" stroke="#D9D9D9"/>
<g clip-path="url(#clip0_229_6)">
<path d="M16.9079 7.96054C16.0442 7.96054 15.2159 8.30364 14.6051 8.91437C13.9944 9.5251 13.6513 10.3534 13.6513 11.2171V17.0066C13.6514 17.4434 13.7393 17.8757 13.9098 18.2778C14.0803 18.6799 14.33 19.0435 14.644 19.3472C14.9579 19.6508 15.3298 19.8882 15.7373 20.0452C16.1449 20.2022 16.5799 20.2756 17.0164 20.261C17.1915 19.4082 17.5688 18.6099 18.1167 17.9332C18.6645 17.2566 19.3668 16.7214 20.1645 16.3726V11.2171C20.1645 10.3534 19.8214 9.5251 19.2106 8.91437C18.5999 8.30364 17.7716 7.96054 16.9079 7.96054ZM16.9079 21.7105H16.9195C16.9672 22.4263 17.1525 23.1044 17.4506 23.7173V24.7862C17.4506 24.9302 17.3935 25.0682 17.2917 25.17C17.1899 25.2718 17.0518 25.329 16.9079 25.329C16.7639 25.329 16.6259 25.2718 16.5241 25.17C16.4223 25.0682 16.3651 24.9302 16.3651 24.7862V22.7707C14.9299 22.6356 13.5968 21.9699 12.6265 20.9039C11.6561 19.8378 11.1184 18.4481 11.1184 17.0066V16.4638C11.1184 16.3199 11.1756 16.1818 11.2774 16.08C11.3792 15.9783 11.5172 15.9211 11.6612 15.9211C11.8051 15.9211 11.9432 15.9783 12.045 16.08C12.1468 16.1818 12.2039 16.3199 12.2039 16.4638V17.0066C12.2039 18.2542 12.6995 19.4506 13.5817 20.3328C14.4639 21.215 15.6603 21.7105 16.9079 21.7105ZM27.0395 21.3487C27.0395 20.1011 26.5439 18.9047 25.6617 18.0225C24.7795 17.1403 23.5831 16.6448 22.3355 16.6448C21.088 16.6448 19.8915 17.1403 19.0093 18.0225C18.1272 18.9047 17.6316 20.1011 17.6316 21.3487C17.6316 22.5963 18.1272 23.7927 19.0093 24.6749C19.8915 25.5571 21.088 26.0527 22.3355 26.0527C23.5831 26.0527 24.7795 25.5571 25.6617 24.6749C26.5439 23.7927 27.0395 22.5963 27.0395 21.3487ZM21.2565 19.1777C21.3332 19.179 21.4074 19.2047 21.4686 19.251C21.5297 19.2973 21.5746 19.3618 21.5966 19.4353L22.3739 22.0261L23.0824 20.1358C23.1072 20.0698 23.1507 20.0125 23.2077 19.9709C23.2646 19.9294 23.3325 19.9053 23.4029 19.9018C23.4733 19.8983 23.5432 19.9154 23.604 19.951C23.6649 19.9867 23.7139 20.0393 23.7453 20.1025L24.3691 21.361H25.2303C25.3262 21.361 25.4183 21.3991 25.4861 21.467C25.554 21.5348 25.5921 21.6269 25.5921 21.7228C25.5921 21.8188 25.554 21.9109 25.4861 21.9787C25.4183 22.0466 25.3262 22.0847 25.2303 22.0847H24.1447C24.0773 22.0847 24.0112 22.0659 23.9539 22.0303C23.8967 21.9948 23.8505 21.9439 23.8205 21.8835L23.4674 21.1707L22.6742 23.2853C22.6476 23.3562 22.5994 23.4169 22.5364 23.459C22.4735 23.5011 22.3989 23.5223 22.3232 23.5197C22.2475 23.5172 22.1746 23.491 22.1146 23.4447C22.0546 23.3985 22.0106 23.3347 21.9889 23.2621L21.229 20.7307L20.8549 21.8379C20.8307 21.9095 20.7846 21.9718 20.7232 22.0159C20.6618 22.0601 20.5882 22.0839 20.5126 22.084H19.4408C19.3448 22.084 19.2528 22.0458 19.1849 21.978C19.1171 21.9101 19.0789 21.8181 19.0789 21.7221C19.0789 21.6262 19.1171 21.5341 19.1849 21.4663C19.2528 21.3984 19.3448 21.3603 19.4408 21.3603H20.2528L20.907 19.4237C20.9315 19.3509 20.9787 19.2878 21.0415 19.2435C21.1044 19.1993 21.1797 19.1762 21.2565 19.1777Z" fill="#7F5283"/>
</g>
<defs>
<clipPath id="clip0_229_6">
<rect width="20.2632" height="20.2632" fill="white" transform="translate(7.5 6.51318)"/>
</clipPath>
</defs>
</svg>
