<svg width="35" height="35" viewBox="0 0 35 35" fill="none" xmlns="http://www.w3.org/2000/svg">
<circle cx="17.0066" cy="17.0066" r="16.5066" fill="white" stroke="#D9D9D9"/>
<mask id="path-2-outside-1_692_163" maskUnits="userSpaceOnUse" x="7" y="7.50726" width="20" height="20" fill="black">
<rect fill="white" x="7" y="7.50726" width="20" height="20"/>
<path d="M8.62031 8.16467C8.43594 8.26652 8.2195 8.46097 8.14735 8.59986C7.84274 9.12764 7.91488 9.3406 9.29368 11.9702L10.5843 14.4239L10.5442 15.4424C10.5041 16.3869 10.5683 17.0813 10.8088 18.3776L10.8568 18.6369H9.85482C8.57221 18.6369 8.55618 18.6462 8.62031 19.711C8.68444 20.785 8.94898 21.8776 9.39789 22.9424C9.87085 24.0813 10.3759 24.8499 11.2336 25.785L11.899 26.5073H16.4121H20.9253L21.3982 26.0999C22.6969 24.998 23.6909 23.0813 24.0596 20.9795C24.2841 19.7387 24.2841 18.8684 24.0757 18.7295C23.9795 18.6739 23.2019 18.6369 22.1117 18.6369H20.3V18.0536C20.3 17.7387 20.324 17.3221 20.3481 17.1276C20.3962 16.7943 20.4122 16.785 20.7409 16.785C21.0455 16.785 21.27 16.6276 23.3863 14.9147C25.222 13.4332 25.735 12.961 25.9114 12.6462C26.3443 11.8591 26.2881 10.9702 25.735 9.72023C25.1979 8.53504 24.4685 7.97949 23.6348 8.12764C22.7369 8.2943 18.1677 9.67393 18.0314 9.82208C17.7588 10.0999 17.5665 10.6739 17.5184 11.3128C17.4703 12.0258 17.6707 13.0999 18.0234 14.0165L18.2398 14.5721L17.9192 15.3313C17.5103 16.285 17.358 16.8128 17.1737 17.8036L17.0374 18.5906L16.5163 18.6184L15.9873 18.6462L15.9552 18.0536C15.9071 17.1276 15.4662 16.1924 14.6566 15.2573C13.9912 14.498 13.2216 13.8499 12.6365 13.5721C12.412 13.461 12.2517 13.3036 12.1234 13.0443C12.0192 12.8313 11.434 11.6739 10.8088 10.461C9.8949 8.69245 9.63036 8.23875 9.42194 8.12764C9.10129 7.95171 9.02914 7.95171 8.62031 8.16467ZM10.3438 11.0258C10.9691 12.2387 11.4821 13.2665 11.4821 13.3221C11.4821 13.3684 11.3779 13.4795 11.2496 13.5721C11.0172 13.7295 11.0092 13.7295 10.8568 13.4795C10.5041 12.8869 8.67643 9.27578 8.67643 9.16467C8.67643 8.98875 8.84477 8.82208 9.03716 8.82208C9.16542 8.82208 9.44599 9.2943 10.3438 11.0258ZM24.5166 9.12764C25.238 9.68319 25.7751 11.535 25.4064 12.1924C25.3342 12.3221 25.0777 12.5906 24.8452 12.785C24.0115 13.498 21.6467 15.4054 21.6307 15.3776C21.6227 15.3591 21.5666 15.0813 21.5105 14.748C21.4543 14.4147 21.3181 13.8499 21.2139 13.498C21.1016 13.1369 21.0054 12.7943 20.9974 12.7202C20.9653 12.4424 22.5125 11.6554 24.1077 11.1462C24.9735 10.8591 25.222 10.6924 25.1338 10.4332C25.0456 10.1647 24.8292 10.1276 24.3402 10.2665C23.4263 10.535 22.3361 10.9795 21.5105 11.4239C21.0535 11.6739 20.6527 11.8776 20.6287 11.8776C20.5966 11.8776 20.5084 11.7387 20.4283 11.5721C20.3401 11.4147 20.0996 11.0073 19.8832 10.6924C19.6667 10.3684 19.4984 10.0906 19.5144 10.0721C19.5304 10.0536 20.4924 9.76652 21.6628 9.43319C23.8913 8.80356 24.0757 8.78504 24.5166 9.12764ZM19.0575 10.7758C19.2579 10.9887 19.5625 11.4239 19.7389 11.748L20.0595 12.3313L19.3942 13.0721C18.6326 13.9332 18.6406 13.9332 18.3601 12.8499C18.0474 11.6924 18.1677 10.3962 18.5765 10.3962C18.6486 10.3962 18.8571 10.5628 19.0575 10.7758ZM20.8291 14.6554C21.0054 15.6369 20.9573 16.0443 20.6447 16.0443C20.5004 16.0443 20.5164 15.7202 20.6607 15.5813C20.8291 15.4147 20.813 15.0536 20.6206 14.9332C20.0996 14.6091 19.6667 15.8776 19.6587 17.7295V18.6369H18.6887H17.7188L17.7749 18.1924C17.9833 16.5628 18.7368 14.8869 19.811 13.6462L20.3321 13.0443L20.5245 13.5443C20.6287 13.8221 20.7649 14.3221 20.8291 14.6554ZM12.9972 16.1832C13.5182 17.0628 14.1275 18.3313 14.1275 18.5443C14.1275 18.5999 13.911 18.6369 13.5984 18.6369H13.0774L12.7727 17.8684C12.412 16.9887 11.915 15.3313 11.8428 14.7943L11.7948 14.4239L12.1234 14.8406C12.2998 15.0721 12.6926 15.6739 12.9972 16.1832ZM13.4942 15.0906C14.5283 15.9887 15.2177 17.1554 15.3059 18.1184L15.354 18.6369H15.1135C14.897 18.6369 14.857 18.5906 14.6966 18.1091C14.4882 17.4702 13.7828 16.0906 13.2377 15.2573C12.6846 14.3962 12.7006 14.3869 13.4942 15.0906ZM11.402 15.8776C11.4981 16.248 11.7386 17.0073 11.931 17.5536C12.1234 18.0999 12.2837 18.5721 12.2837 18.5906C12.2837 18.6184 12.1234 18.6369 11.931 18.6369H11.5863L11.4581 18.0999C11.2577 17.2665 11.1615 16.5258 11.1615 15.8406C11.1615 15.498 11.1775 15.211 11.1935 15.211C11.2096 15.211 11.3058 15.5165 11.402 15.8776ZM23.5386 20.0443C23.3542 22.0258 22.4243 24.0258 21.1016 25.2943L20.6126 25.7665H16.4121H12.2116L11.7306 25.3036C10.5041 24.1276 9.49408 22.0443 9.34979 20.4147C9.32574 20.1276 9.29368 19.7943 9.26963 19.6739L9.23756 19.4702H16.4121H23.5947L23.5386 20.0443Z"/>
</mask>
<path d="M8.62031 8.16467C8.43594 8.26652 8.2195 8.46097 8.14735 8.59986C7.84274 9.12764 7.91488 9.3406 9.29368 11.9702L10.5843 14.4239L10.5442 15.4424C10.5041 16.3869 10.5683 17.0813 10.8088 18.3776L10.8568 18.6369H9.85482C8.57221 18.6369 8.55618 18.6462 8.62031 19.711C8.68444 20.785 8.94898 21.8776 9.39789 22.9424C9.87085 24.0813 10.3759 24.8499 11.2336 25.785L11.899 26.5073H16.4121H20.9253L21.3982 26.0999C22.6969 24.998 23.6909 23.0813 24.0596 20.9795C24.2841 19.7387 24.2841 18.8684 24.0757 18.7295C23.9795 18.6739 23.2019 18.6369 22.1117 18.6369H20.3V18.0536C20.3 17.7387 20.324 17.3221 20.3481 17.1276C20.3962 16.7943 20.4122 16.785 20.7409 16.785C21.0455 16.785 21.27 16.6276 23.3863 14.9147C25.222 13.4332 25.735 12.961 25.9114 12.6462C26.3443 11.8591 26.2881 10.9702 25.735 9.72023C25.1979 8.53504 24.4685 7.97949 23.6348 8.12764C22.7369 8.2943 18.1677 9.67393 18.0314 9.82208C17.7588 10.0999 17.5665 10.6739 17.5184 11.3128C17.4703 12.0258 17.6707 13.0999 18.0234 14.0165L18.2398 14.5721L17.9192 15.3313C17.5103 16.285 17.358 16.8128 17.1737 17.8036L17.0374 18.5906L16.5163 18.6184L15.9873 18.6462L15.9552 18.0536C15.9071 17.1276 15.4662 16.1924 14.6566 15.2573C13.9912 14.498 13.2216 13.8499 12.6365 13.5721C12.412 13.461 12.2517 13.3036 12.1234 13.0443C12.0192 12.8313 11.434 11.6739 10.8088 10.461C9.8949 8.69245 9.63036 8.23875 9.42194 8.12764C9.10129 7.95171 9.02914 7.95171 8.62031 8.16467ZM10.3438 11.0258C10.9691 12.2387 11.4821 13.2665 11.4821 13.3221C11.4821 13.3684 11.3779 13.4795 11.2496 13.5721C11.0172 13.7295 11.0092 13.7295 10.8568 13.4795C10.5041 12.8869 8.67643 9.27578 8.67643 9.16467C8.67643 8.98875 8.84477 8.82208 9.03716 8.82208C9.16542 8.82208 9.44599 9.2943 10.3438 11.0258ZM24.5166 9.12764C25.238 9.68319 25.7751 11.535 25.4064 12.1924C25.3342 12.3221 25.0777 12.5906 24.8452 12.785C24.0115 13.498 21.6467 15.4054 21.6307 15.3776C21.6227 15.3591 21.5666 15.0813 21.5105 14.748C21.4543 14.4147 21.3181 13.8499 21.2139 13.498C21.1016 13.1369 21.0054 12.7943 20.9974 12.7202C20.9653 12.4424 22.5125 11.6554 24.1077 11.1462C24.9735 10.8591 25.222 10.6924 25.1338 10.4332C25.0456 10.1647 24.8292 10.1276 24.3402 10.2665C23.4263 10.535 22.3361 10.9795 21.5105 11.4239C21.0535 11.6739 20.6527 11.8776 20.6287 11.8776C20.5966 11.8776 20.5084 11.7387 20.4283 11.5721C20.3401 11.4147 20.0996 11.0073 19.8832 10.6924C19.6667 10.3684 19.4984 10.0906 19.5144 10.0721C19.5304 10.0536 20.4924 9.76652 21.6628 9.43319C23.8913 8.80356 24.0757 8.78504 24.5166 9.12764ZM19.0575 10.7758C19.2579 10.9887 19.5625 11.4239 19.7389 11.748L20.0595 12.3313L19.3942 13.0721C18.6326 13.9332 18.6406 13.9332 18.3601 12.8499C18.0474 11.6924 18.1677 10.3962 18.5765 10.3962C18.6486 10.3962 18.8571 10.5628 19.0575 10.7758ZM20.8291 14.6554C21.0054 15.6369 20.9573 16.0443 20.6447 16.0443C20.5004 16.0443 20.5164 15.7202 20.6607 15.5813C20.8291 15.4147 20.813 15.0536 20.6206 14.9332C20.0996 14.6091 19.6667 15.8776 19.6587 17.7295V18.6369H18.6887H17.7188L17.7749 18.1924C17.9833 16.5628 18.7368 14.8869 19.811 13.6462L20.3321 13.0443L20.5245 13.5443C20.6287 13.8221 20.7649 14.3221 20.8291 14.6554ZM12.9972 16.1832C13.5182 17.0628 14.1275 18.3313 14.1275 18.5443C14.1275 18.5999 13.911 18.6369 13.5984 18.6369H13.0774L12.7727 17.8684C12.412 16.9887 11.915 15.3313 11.8428 14.7943L11.7948 14.4239L12.1234 14.8406C12.2998 15.0721 12.6926 15.6739 12.9972 16.1832ZM13.4942 15.0906C14.5283 15.9887 15.2177 17.1554 15.3059 18.1184L15.354 18.6369H15.1135C14.897 18.6369 14.857 18.5906 14.6966 18.1091C14.4882 17.4702 13.7828 16.0906 13.2377 15.2573C12.6846 14.3962 12.7006 14.3869 13.4942 15.0906ZM11.402 15.8776C11.4981 16.248 11.7386 17.0073 11.931 17.5536C12.1234 18.0999 12.2837 18.5721 12.2837 18.5906C12.2837 18.6184 12.1234 18.6369 11.931 18.6369H11.5863L11.4581 18.0999C11.2577 17.2665 11.1615 16.5258 11.1615 15.8406C11.1615 15.498 11.1775 15.211 11.1935 15.211C11.2096 15.211 11.3058 15.5165 11.402 15.8776ZM23.5386 20.0443C23.3542 22.0258 22.4243 24.0258 21.1016 25.2943L20.6126 25.7665H16.4121H12.2116L11.7306 25.3036C10.5041 24.1276 9.49408 22.0443 9.34979 20.4147C9.32574 20.1276 9.29368 19.7943 9.26963 19.6739L9.23756 19.4702H16.4121H23.5947L23.5386 20.0443Z" fill="#7F5283"/>
<path d="M8.62031 8.16467C8.43594 8.26652 8.2195 8.46097 8.14735 8.59986C7.84274 9.12764 7.91488 9.3406 9.29368 11.9702L10.5843 14.4239L10.5442 15.4424C10.5041 16.3869 10.5683 17.0813 10.8088 18.3776L10.8568 18.6369H9.85482C8.57221 18.6369 8.55618 18.6462 8.62031 19.711C8.68444 20.785 8.94898 21.8776 9.39789 22.9424C9.87085 24.0813 10.3759 24.8499 11.2336 25.785L11.899 26.5073H16.4121H20.9253L21.3982 26.0999C22.6969 24.998 23.6909 23.0813 24.0596 20.9795C24.2841 19.7387 24.2841 18.8684 24.0757 18.7295C23.9795 18.6739 23.2019 18.6369 22.1117 18.6369H20.3V18.0536C20.3 17.7387 20.324 17.3221 20.3481 17.1276C20.3962 16.7943 20.4122 16.785 20.7409 16.785C21.0455 16.785 21.27 16.6276 23.3863 14.9147C25.222 13.4332 25.735 12.961 25.9114 12.6462C26.3443 11.8591 26.2881 10.9702 25.735 9.72023C25.1979 8.53504 24.4685 7.97949 23.6348 8.12764C22.7369 8.2943 18.1677 9.67393 18.0314 9.82208C17.7588 10.0999 17.5665 10.6739 17.5184 11.3128C17.4703 12.0258 17.6707 13.0999 18.0234 14.0165L18.2398 14.5721L17.9192 15.3313C17.5103 16.285 17.358 16.8128 17.1737 17.8036L17.0374 18.5906L16.5163 18.6184L15.9873 18.6462L15.9552 18.0536C15.9071 17.1276 15.4662 16.1924 14.6566 15.2573C13.9912 14.498 13.2216 13.8499 12.6365 13.5721C12.412 13.461 12.2517 13.3036 12.1234 13.0443C12.0192 12.8313 11.434 11.6739 10.8088 10.461C9.8949 8.69245 9.63036 8.23875 9.42194 8.12764C9.10129 7.95171 9.02914 7.95171 8.62031 8.16467ZM10.3438 11.0258C10.9691 12.2387 11.4821 13.2665 11.4821 13.3221C11.4821 13.3684 11.3779 13.4795 11.2496 13.5721C11.0172 13.7295 11.0092 13.7295 10.8568 13.4795C10.5041 12.8869 8.67643 9.27578 8.67643 9.16467C8.67643 8.98875 8.84477 8.82208 9.03716 8.82208C9.16542 8.82208 9.44599 9.2943 10.3438 11.0258ZM24.5166 9.12764C25.238 9.68319 25.7751 11.535 25.4064 12.1924C25.3342 12.3221 25.0777 12.5906 24.8452 12.785C24.0115 13.498 21.6467 15.4054 21.6307 15.3776C21.6227 15.3591 21.5666 15.0813 21.5105 14.748C21.4543 14.4147 21.3181 13.8499 21.2139 13.498C21.1016 13.1369 21.0054 12.7943 20.9974 12.7202C20.9653 12.4424 22.5125 11.6554 24.1077 11.1462C24.9735 10.8591 25.222 10.6924 25.1338 10.4332C25.0456 10.1647 24.8292 10.1276 24.3402 10.2665C23.4263 10.535 22.3361 10.9795 21.5105 11.4239C21.0535 11.6739 20.6527 11.8776 20.6287 11.8776C20.5966 11.8776 20.5084 11.7387 20.4283 11.5721C20.3401 11.4147 20.0996 11.0073 19.8832 10.6924C19.6667 10.3684 19.4984 10.0906 19.5144 10.0721C19.5304 10.0536 20.4924 9.76652 21.6628 9.43319C23.8913 8.80356 24.0757 8.78504 24.5166 9.12764ZM19.0575 10.7758C19.2579 10.9887 19.5625 11.4239 19.7389 11.748L20.0595 12.3313L19.3942 13.0721C18.6326 13.9332 18.6406 13.9332 18.3601 12.8499C18.0474 11.6924 18.1677 10.3962 18.5765 10.3962C18.6486 10.3962 18.8571 10.5628 19.0575 10.7758ZM20.8291 14.6554C21.0054 15.6369 20.9573 16.0443 20.6447 16.0443C20.5004 16.0443 20.5164 15.7202 20.6607 15.5813C20.8291 15.4147 20.813 15.0536 20.6206 14.9332C20.0996 14.6091 19.6667 15.8776 19.6587 17.7295V18.6369H18.6887H17.7188L17.7749 18.1924C17.9833 16.5628 18.7368 14.8869 19.811 13.6462L20.3321 13.0443L20.5245 13.5443C20.6287 13.8221 20.7649 14.3221 20.8291 14.6554ZM12.9972 16.1832C13.5182 17.0628 14.1275 18.3313 14.1275 18.5443C14.1275 18.5999 13.911 18.6369 13.5984 18.6369H13.0774L12.7727 17.8684C12.412 16.9887 11.915 15.3313 11.8428 14.7943L11.7948 14.4239L12.1234 14.8406C12.2998 15.0721 12.6926 15.6739 12.9972 16.1832ZM13.4942 15.0906C14.5283 15.9887 15.2177 17.1554 15.3059 18.1184L15.354 18.6369H15.1135C14.897 18.6369 14.857 18.5906 14.6966 18.1091C14.4882 17.4702 13.7828 16.0906 13.2377 15.2573C12.6846 14.3962 12.7006 14.3869 13.4942 15.0906ZM11.402 15.8776C11.4981 16.248 11.7386 17.0073 11.931 17.5536C12.1234 18.0999 12.2837 18.5721 12.2837 18.5906C12.2837 18.6184 12.1234 18.6369 11.931 18.6369H11.5863L11.4581 18.0999C11.2577 17.2665 11.1615 16.5258 11.1615 15.8406C11.1615 15.498 11.1775 15.211 11.1935 15.211C11.2096 15.211 11.3058 15.5165 11.402 15.8776ZM23.5386 20.0443C23.3542 22.0258 22.4243 24.0258 21.1016 25.2943L20.6126 25.7665H16.4121H12.2116L11.7306 25.3036C10.5041 24.1276 9.49408 22.0443 9.34979 20.4147C9.32574 20.1276 9.29368 19.7943 9.26963 19.6739L9.23756 19.4702H16.4121H23.5947L23.5386 20.0443Z" stroke="#7F5283" stroke-width="0.2" mask="url(#path-2-outside-1_692_163)"/>
</svg>
