<svg width="85" height="31" viewBox="0 0 85 31" fill="none" xmlns="http://www.w3.org/2000/svg">
<rect x="0.5" y="0.5" width="82" height="30" rx="8.5" fill="white" stroke="#D9D9D9"/>
<path d="M20.784 10.708L20.616 11.884H17.556V14.2H20.22V15.376H17.556V17.812H20.832V19H15.972V10.708H20.784ZM25.2753 15.604L27.3993 19H25.6233L24.3153 16.48L23.0193 19H21.3273L23.4393 15.652L21.5433 12.652H23.2953L24.3753 14.812L25.4433 12.652H27.1113L25.2753 15.604ZM29.8233 12.652V19H28.2873V12.652H29.8233ZM29.0433 9.436C29.3313 9.436 29.5633 9.528 29.7393 9.712C29.9233 9.888 30.0153 10.108 30.0153 10.372C30.0153 10.636 29.9233 10.856 29.7393 11.032C29.5633 11.208 29.3313 11.296 29.0433 11.296C28.7633 11.296 28.5313 11.208 28.3473 11.032C28.1713 10.856 28.0833 10.636 28.0833 10.372C28.0833 10.108 28.1713 9.888 28.3473 9.712C28.5313 9.528 28.7633 9.436 29.0433 9.436ZM35.31 18.7C35.086 18.86 34.834 18.98 34.554 19.06C34.282 19.14 34.002 19.18 33.714 19.18C33.09 19.172 32.614 18.996 32.286 18.652C31.966 18.3 31.806 17.784 31.806 17.104V13.756H30.81V12.652H31.806V11.248L33.342 11.068V12.652H34.818L34.662 13.756H33.342V17.068C33.342 17.38 33.394 17.604 33.498 17.74C33.61 17.876 33.782 17.944 34.014 17.944C34.246 17.944 34.498 17.868 34.77 17.716L35.31 18.7ZM45.066 10.708L42.606 19H40.722L38.19 10.708H39.894L41.694 17.596L43.446 10.708H45.066ZM47.4834 12.652V19H45.9474V12.652H47.4834ZM46.7034 9.436C46.9914 9.436 47.2234 9.528 47.3994 9.712C47.5834 9.888 47.6754 10.108 47.6754 10.372C47.6754 10.636 47.5834 10.856 47.3994 11.032C47.2234 11.208 46.9914 11.296 46.7034 11.296C46.4234 11.296 46.1914 11.208 46.0074 11.032C45.8314 10.856 45.7434 10.636 45.7434 10.372C45.7434 10.108 45.8314 9.888 46.0074 9.712C46.1914 9.528 46.4234 9.436 46.7034 9.436ZM54.6742 10.108V19H53.3182L53.2102 18.196C53.0102 18.5 52.7542 18.74 52.4422 18.916C52.1382 19.092 51.7902 19.18 51.3982 19.18C50.6222 19.18 50.0262 18.88 49.6102 18.28C49.1942 17.68 48.9862 16.864 48.9862 15.832C48.9862 15.184 49.0902 14.608 49.2982 14.104C49.5062 13.592 49.8022 13.192 50.1862 12.904C50.5782 12.616 51.0302 12.472 51.5422 12.472C52.1502 12.472 52.6822 12.7 53.1382 13.156V9.94L54.6742 10.108ZM51.8302 18.016C52.1022 18.016 52.3422 17.952 52.5502 17.824C52.7582 17.688 52.9542 17.48 53.1382 17.2V14.296C52.9542 14.072 52.7662 13.904 52.5742 13.792C52.3902 13.68 52.1742 13.624 51.9262 13.624C51.5182 13.624 51.1942 13.808 50.9542 14.176C50.7222 14.536 50.6062 15.084 50.6062 15.82C50.6062 16.604 50.7102 17.168 50.9182 17.512C51.1262 17.848 51.4302 18.016 51.8302 18.016ZM61.7258 15.676C61.7258 15.756 61.7138 15.964 61.6898 16.3H57.7058C57.7538 16.916 57.9138 17.356 58.1858 17.62C58.4578 17.884 58.8178 18.016 59.2658 18.016C59.5458 18.016 59.8098 17.972 60.0578 17.884C60.3058 17.788 60.5698 17.644 60.8498 17.452L61.4858 18.328C60.7818 18.896 59.9978 19.18 59.1338 19.18C58.1658 19.18 57.4178 18.884 56.8898 18.292C56.3698 17.7 56.1098 16.892 56.1098 15.868C56.1098 15.22 56.2218 14.64 56.4458 14.128C56.6698 13.608 56.9938 13.204 57.4178 12.916C57.8418 12.62 58.3458 12.472 58.9298 12.472C59.8178 12.472 60.5058 12.756 60.9938 13.324C61.4818 13.884 61.7258 14.668 61.7258 15.676ZM60.2018 15.232C60.2018 14.12 59.7898 13.564 58.9658 13.564C58.5898 13.564 58.2938 13.704 58.0778 13.984C57.8698 14.256 57.7458 14.696 57.7058 15.304H60.2018V15.232ZM65.6957 12.472C66.6317 12.472 67.3597 12.772 67.8797 13.372C68.4077 13.964 68.6717 14.78 68.6717 15.82C68.6717 16.484 68.5517 17.072 68.3117 17.584C68.0717 18.088 67.7277 18.48 67.2797 18.76C66.8317 19.04 66.2997 19.18 65.6837 19.18C64.7477 19.18 64.0157 18.884 63.4877 18.292C62.9597 17.692 62.6957 16.868 62.6957 15.82C62.6957 15.156 62.8157 14.572 63.0557 14.068C63.2957 13.564 63.6397 13.172 64.0877 12.892C64.5437 12.612 65.0797 12.472 65.6957 12.472ZM65.6957 13.636C64.7757 13.636 64.3157 14.364 64.3157 15.82C64.3157 16.572 64.4277 17.128 64.6517 17.488C64.8837 17.84 65.2277 18.016 65.6837 18.016C66.1397 18.016 66.4797 17.836 66.7037 17.476C66.9357 17.116 67.0517 16.564 67.0517 15.82C67.0517 15.076 66.9357 14.528 66.7037 14.176C66.4797 13.816 66.1437 13.636 65.6957 13.636Z" fill="#232946"/>
</svg>
