<svg width="108" height="33" viewBox="0 0 108 33" fill="none" xmlns="http://www.w3.org/2000/svg">
<rect x="1.5" y="1.5" width="105" height="30" rx="15" fill="#232946" stroke="#F8F8F8" stroke-width="3"/>
<path d="M38.044 21H36.448L31.646 13.734V21H30.05V11.256H31.646L36.448 18.508V11.256H38.044V21ZM47.2098 16.954C47.2098 17.2433 47.1912 17.5047 47.1538 17.738H41.2598C41.3065 18.354 41.5352 18.8487 41.9458 19.222C42.3565 19.5953 42.8605 19.782 43.4578 19.782C44.3165 19.782 44.9232 19.4227 45.2778 18.704H46.9998C46.7665 19.4133 46.3418 19.9967 45.7258 20.454C45.1192 20.902 44.3632 21.126 43.4578 21.126C42.7205 21.126 42.0578 20.9627 41.4698 20.636C40.8912 20.3 40.4338 19.8333 40.0978 19.236C39.7712 18.6293 39.6078 17.9293 39.6078 17.136C39.6078 16.3427 39.7665 15.6473 40.0838 15.05C40.4105 14.4433 40.8632 13.9767 41.4418 13.65C42.0298 13.3233 42.7018 13.16 43.4578 13.16C44.1858 13.16 44.8345 13.3187 45.4038 13.636C45.9732 13.9533 46.4165 14.4013 46.7338 14.98C47.0512 15.5493 47.2098 16.2073 47.2098 16.954ZM45.5438 16.45C45.5345 15.862 45.3245 15.3907 44.9138 15.036C44.5032 14.6813 43.9945 14.504 43.3878 14.504C42.8372 14.504 42.3658 14.6813 41.9738 15.036C41.5818 15.3813 41.3485 15.8527 41.2738 16.45H45.5438ZM52.0845 17.094L54.5765 21H52.7705L51.1045 18.382L49.5365 21H47.8705L50.3625 17.206L47.8705 13.286H49.6765L51.3425 15.904L52.9105 13.286H54.5765L52.0845 17.094ZM57.6288 14.588V18.858C57.6288 19.1473 57.6941 19.3573 57.8248 19.488C57.9648 19.6093 58.1981 19.67 58.5248 19.67H59.5048V21H58.2448C57.5261 21 56.9755 20.832 56.5928 20.496C56.2101 20.16 56.0188 19.614 56.0188 18.858V14.588H55.1088V13.286H56.0188V11.368H57.6288V13.286H59.5048V14.588H57.6288Z" fill="white"/>
<path d="M70 11V22L75.8947 16.5L70 11ZM78.1053 11V22L84 16.5L78.1053 11Z" stroke="white" stroke-width="2" stroke-linecap="round" stroke-linejoin="round"/>
</svg>
