<svg width="56" height="29" viewBox="0 0 56 29" fill="none" xmlns="http://www.w3.org/2000/svg">
<path fill-rule="evenodd" clip-rule="evenodd" d="M9.73318e-07 29H55.2388C50.104 26.2033 46.6194 20.7586 46.6194 14.5C46.6194 8.2414 50.104 2.79665 55.2388 0H0C5.13487 2.79665 8.61942 8.2414 8.61942 14.5C8.61942 20.7586 5.13487 26.2033 9.73318e-07 29ZM35.7093 9.7225C35.5416 9.59125 35.3284 9.5125 35.0944 9.5125C34.8987 9.51298 34.7076 9.57011 34.546 9.67646C34.3845 9.78281 34.26 9.93345 34.1888 10.1088C34.1175 10.2841 34.1028 10.476 34.1465 10.6595C34.1903 10.843 34.2905 11.0095 34.434 11.1375C35.435 11.94 36.072 13.1488 36.072 14.5L36.0655 14.74C36.0017 15.8571 35.4952 16.9083 34.6501 17.6774C33.805 18.4465 32.6856 18.8751 31.522 18.875H25.7474L27.3334 17.35L27.427 17.245C27.5722 17.0547 27.6374 16.8188 27.6096 16.5844C27.5818 16.35 27.4631 16.1342 27.2772 15.9802C27.0913 15.8262 26.8518 15.7453 26.6065 15.7536C26.3613 15.7619 26.1283 15.8588 25.9541 16.025L22.7041 19.15L22.6105 19.255C22.4716 19.4354 22.4047 19.6578 22.4219 19.8817C22.439 20.1056 22.5392 20.3161 22.7041 20.475L25.9541 23.6L26.0633 23.6913C26.2512 23.825 26.4829 23.8893 26.716 23.8726C26.9491 23.8558 27.1683 23.7591 27.3334 23.6L27.427 23.495C27.5659 23.3146 27.6329 23.0922 27.6157 22.8683C27.5985 22.6444 27.4984 22.4339 27.3334 22.275L25.7474 20.75H31.5233L31.8041 20.745C33.1113 20.69 34.3707 20.2569 35.4177 19.5024C36.4647 18.748 37.2506 17.7073 37.6725 16.5164C38.0944 15.3256 38.1327 14.04 37.7825 12.8278C37.4322 11.6157 36.7097 10.5334 35.7093 9.7225ZM28.5228 5.12741C28.2897 5.14416 28.0706 5.2409 27.9054 5.4C27.7405 5.55889 27.6403 5.76942 27.6232 5.9933C27.606 6.21718 27.6729 6.43956 27.8118 6.62L27.9054 6.725L29.4888 8.25H23.7155L23.436 8.255C22.1328 8.3101 20.8769 8.741 19.8317 9.49166C18.7866 10.2423 18.0005 11.278 17.5758 12.464C17.151 13.65 17.1072 14.9315 17.4501 16.1417C17.793 17.352 18.5067 18.435 19.4983 19.25C19.6911 19.4046 19.9386 19.4818 20.1891 19.4654C20.4396 19.4489 20.6738 19.3402 20.8431 19.1619C21.0123 18.9836 21.1034 18.7493 21.0975 18.508C21.0916 18.2666 20.9891 18.0367 20.8113 17.8662C19.8064 17.0637 19.1668 15.8538 19.1668 14.5L19.1746 14.26C19.2385 13.1426 19.7452 12.0913 20.5905 11.3221C21.4359 10.553 22.5556 10.1246 23.7194 10.125H29.4914L27.9054 11.65L27.8014 11.7675C27.6818 11.9288 27.6184 12.1223 27.6203 12.3204C27.6221 12.5184 27.6892 12.7109 27.8118 12.87L27.9054 12.975L28.0276 13.075C28.1953 13.1905 28.3968 13.2519 28.6031 13.2503C28.8093 13.2487 29.0097 13.1843 29.1755 13.0662L29.2847 12.975L32.5347 9.85L32.6387 9.7325C32.7583 9.57124 32.8218 9.37769 32.8199 9.17962C32.818 8.98156 32.751 8.78915 32.6283 8.63L32.5347 8.525L29.2847 5.4L29.1755 5.30875C28.9876 5.17502 28.756 5.11066 28.5228 5.12741Z" fill="#EDC432"/>
</svg>
