<svg width="667" height="376" viewBox="0 0 667 376" fill="none" xmlns="http://www.w3.org/2000/svg">
<path d="M555.705 337.051H599.868V337.385H555.705V337.051Z" fill="#EEEEEE"/>
<path d="M430.036 341.004H441.627V340.671H430.036V341.004Z" fill="#EEEEEE"/>
<path d="M528.781 324.671H554.371V325.004H528.781V324.671Z" fill="#EEEEEE"/>
<path d="M69.9453 326.911H127.536V327.244H69.9453V326.911Z" fill="#EEEEEE"/>
<path d="M139.408 326.911H147.852V327.244H139.408V326.911Z" fill="#EEEEEE"/>
<path d="M175.295 332.873H300.196V332.54H175.295V332.873Z" fill="#EEEEEE"/>
<path d="M0 315.924H666.667V315.59H0V315.924Z" fill="#EEEEEE"/>
<path d="M460.619 32.7599C460.968 36.7466 458.019 40.2612 454.031 40.6106C450.045 40.9599 446.529 38.0106 446.181 34.0239C445.833 30.0373 448.781 26.5226 452.768 26.1732C456.755 25.8252 460.269 28.7733 460.619 32.7599Z" fill="#F8F8F9"/>
<path d="M500.716 29.2523C501.064 33.239 498.115 36.7536 494.128 37.103C490.141 37.451 486.627 34.5017 486.279 30.5163C485.929 26.5283 488.879 23.015 492.865 22.6656C496.852 22.3163 500.367 25.2657 500.716 29.2523Z" fill="#F8F8F9"/>
<path d="M591.852 359.983C591.852 368.321 476.109 375.08 333.333 375.08C190.557 375.08 74.8145 368.321 74.8145 359.983C74.8145 351.645 190.557 344.885 333.333 344.885C476.109 344.885 591.852 351.645 591.852 359.983Z" fill="#F8F8F9"/>
<path d="M484.6 0.162293H441.185L410.477 351.162H453.891C466.237 351.162 477.161 341.117 478.241 328.772L505.031 22.5529C506.112 10.2063 496.947 0.162293 484.6 0.162293Z" fill="#232946"/>
<path d="M475.741 0.162293H328.808C316.463 0.162293 305.539 10.2063 304.459 22.5529L277.668 328.772C276.588 341.117 285.753 351.162 298.1 351.162H445.032C457.379 351.162 468.303 341.117 469.383 328.772L496.173 22.5529C497.253 10.2063 488.087 0.162293 475.741 0.162293Z" fill="#EDC432"/>
<path d="M445.032 351.162H298.1C286.417 351.162 277.583 342.167 277.583 330.74C277.583 330.09 277.611 329.434 277.668 328.772L285.069 244.181H285.769L284.603 257.514H291.077L284.843 328.772C284.108 337.174 290.324 343.988 298.728 343.988H445.66C454.064 343.988 461.473 337.174 462.208 328.772L488.999 22.5529C489.733 14.1489 483.517 7.33693 475.113 7.33693H436.375C434.089 7.33693 431.944 8.83562 431.097 11.0263C427.965 19.1183 420.033 24.6623 411.585 24.6623H388.679C380.231 24.6623 373.268 19.1183 371.552 11.0263V11.025C371.28 9.74362 370.523 8.69828 369.483 8.05295L369.611 7.55962H368.403C367.937 7.41429 367.439 7.33693 366.92 7.33693H328.181C327.292 7.33693 326.413 7.41296 325.553 7.55962H311.545C316.044 3.01962 322.223 0.162293 328.808 0.162293H475.741C487.424 0.162293 496.26 9.15695 496.26 20.5849C496.26 21.2329 496.231 21.8903 496.173 22.5529L469.383 328.772C468.303 341.117 457.379 351.162 445.032 351.162ZM401.681 6.95028C398.3 6.95028 395.32 9.69027 395.024 13.0716C394.728 16.4529 397.229 19.193 400.609 19.193C403.991 19.193 406.971 16.4529 407.267 13.0716C407.563 9.69027 405.061 6.95028 401.681 6.95028Z" fill="#232946"/>
<path d="M445.66 343.986H298.728C290.324 343.986 284.108 337.173 284.843 328.77L291.077 257.513H346.039L355.74 220.318C357.003 222.789 359.559 224.444 362.647 224.444H402.659C407.332 224.444 411.452 220.654 411.861 215.981C412.271 211.308 408.813 207.518 404.139 207.518H364.128C361.977 207.518 359.944 208.321 358.336 209.642L357.427 199.056H436.289C439.339 199.056 442.027 196.585 442.293 193.536L442.808 187.653C443.075 184.604 440.82 182.132 437.771 182.132H355.975L355.248 173.669H438.511C441.56 173.669 444.248 171.198 444.515 168.149L445.029 162.266C445.296 159.217 443.04 156.745 439.992 156.745H355.916L361.104 136.854C368.159 143.948 378.041 148.282 389.316 148.282C413.091 148.282 434.049 129.009 436.129 105.236C438.209 81.4609 420.623 62.1889 396.848 62.1889C384.012 62.1889 371.997 67.8062 363.331 76.7182L362.6 68.2155L374.944 20.8902H366.133L369.483 8.05151C370.523 8.69685 371.28 9.74218 371.552 11.0235V11.0249C373.268 19.1169 380.231 24.6609 388.679 24.6609H411.585C420.033 24.6609 427.965 19.1169 431.097 11.0249C431.944 8.83419 434.089 7.3355 436.375 7.3355H475.113C483.517 7.3355 489.733 14.1475 488.999 22.5515L462.208 328.77C461.473 337.173 454.064 343.986 445.66 343.986ZM359.305 269.698C354.367 269.698 350.013 273.701 349.581 278.639L346.849 309.873C346.417 314.811 350.069 318.816 355.008 318.816H397.832C402.771 318.816 407.124 314.811 407.556 309.873L410.288 278.639C410.721 273.701 407.068 269.698 402.129 269.698H359.305ZM472.361 11.9995C471.372 11.9995 470.497 12.8022 470.412 13.7942L469.739 21.4875C469.652 22.4782 470.385 23.2808 471.375 23.2808C472.365 23.2808 473.239 22.4782 473.327 21.4875L473.999 13.7942C474.085 12.8022 473.353 11.9995 472.361 11.9995ZM464.995 14.2075C464.004 14.2075 463.129 15.0102 463.043 16.0008L462.563 21.4875C462.476 22.4782 463.209 23.2808 464.2 23.2808C465.191 23.2808 466.064 22.4782 466.151 21.4875L466.631 16.0008C466.717 15.0102 465.984 14.2075 464.995 14.2075ZM457.625 16.4155C456.635 16.4155 455.761 17.2182 455.675 18.2088L455.388 21.4875C455.301 22.4782 456.033 23.2808 457.025 23.2808C458.016 23.2808 458.889 22.4782 458.975 21.4875L459.263 18.2088C459.349 17.2182 458.616 16.4155 457.625 16.4155ZM368.403 7.55819H325.553C326.413 7.41152 327.292 7.3355 328.181 7.3355H366.92C367.439 7.3355 367.937 7.41285 368.403 7.55819Z" fill="#AF93B1"/>
<path d="M438.511 173.67H335.679C332.631 173.67 330.375 171.199 330.641 168.15L331.156 162.267C331.423 159.218 334.111 156.746 337.16 156.746H439.992C443.04 156.746 445.296 159.218 445.029 162.267L444.515 168.15C444.248 171.199 441.56 173.67 438.511 173.67Z" fill="white"/>
<path d="M436.289 199.057H333.457C330.409 199.057 328.153 196.586 328.42 193.537L328.935 187.654C329.201 184.605 331.889 182.133 334.939 182.133H437.771C440.82 182.133 443.075 184.605 442.808 187.654L442.293 193.537C442.027 196.586 439.339 199.057 436.289 199.057Z" fill="white"/>
<path d="M400.609 19.1914C397.229 19.1914 394.728 16.4514 395.024 13.0701C395.32 9.68872 398.3 6.94873 401.681 6.94873C405.061 6.94873 407.563 9.68872 407.267 13.0701C406.971 16.4514 403.991 19.1914 400.609 19.1914ZM401.439 9.72741C399.591 9.72741 397.963 11.2234 397.801 13.0701C397.639 14.9167 399.005 16.4154 400.853 16.4154C402.7 16.4154 404.328 14.9167 404.489 13.0701C404.651 11.2234 403.285 9.72741 401.439 9.72741Z" fill="#688DD0"/>
<path d="M400.853 16.416C399.005 16.416 397.639 14.9173 397.801 13.0707C397.963 11.224 399.591 9.72803 401.439 9.72803C403.285 9.72803 404.651 11.224 404.489 13.0707C404.328 14.9173 402.7 16.416 400.853 16.416Z" fill="#5A7FC8"/>
<path d="M457.025 23.2812C456.033 23.2812 455.301 22.4786 455.388 21.4879L455.675 18.2092C455.761 17.2186 456.635 16.4159 457.625 16.4159C458.616 16.4159 459.349 17.2186 459.263 18.2092L458.975 21.4879C458.889 22.4786 458.016 23.2812 457.025 23.2812Z" fill="#F2F7FC"/>
<path d="M471.375 23.2812C470.385 23.2812 469.652 22.4786 469.739 21.4879L470.412 13.7946C470.497 12.8026 471.372 11.9999 472.361 11.9999C473.353 11.9999 474.085 12.8026 473.999 13.7946L473.327 21.4879C473.239 22.4786 472.365 23.2812 471.375 23.2812Z" fill="#F2F7FC"/>
<path d="M464.2 23.2812C463.209 23.2812 462.476 22.4786 462.563 21.4879L463.043 16.0012C463.129 15.0106 464.004 14.2079 464.995 14.2079C465.984 14.2079 466.717 15.0106 466.631 16.0012L466.151 21.4879C466.064 22.4786 465.191 23.2812 464.2 23.2812Z" fill="#F2F7FC"/>
<path d="M436.129 105.237C434.049 129.01 413.091 148.283 389.316 148.283C365.541 148.283 347.955 129.01 350.035 105.237C352.115 81.4619 373.075 62.1899 396.848 62.1899C420.623 62.1899 438.209 81.4619 436.129 105.237Z" fill="white"/>
<path d="M393.228 103.564C381.915 103.564 372.365 107.868 371.548 117.22L370.64 127.602H411.611L412.52 117.22C413.337 107.868 404.543 103.564 393.228 103.564Z" fill="#EDC432"/>
<path d="M393.603 99.291C398.853 99.291 401.275 95.0337 401.733 89.783C402.193 84.5323 400.516 80.2763 395.265 80.2763C390.015 80.2763 387.593 84.5323 387.135 89.783C386.675 95.0337 388.352 99.291 393.603 99.291Z" fill="#EDC432"/>
<path d="M433.817 164.904C431.023 164.904 428.665 165.968 428.463 168.278L428.239 170.842H438.359L438.583 168.278C438.784 165.968 436.612 164.904 433.817 164.904Z" fill="#EDC432"/>
<path d="M433.911 163.85C435.207 163.85 435.805 162.798 435.917 161.5C436.032 160.204 435.617 159.154 434.321 159.154C433.024 159.154 432.425 160.204 432.312 161.5C432.199 162.798 432.613 163.85 433.911 163.85Z" fill="#EDC432"/>
<path d="M402.659 224.443H362.647C357.973 224.443 354.516 220.654 354.925 215.981C355.333 211.307 359.453 207.518 364.128 207.518H404.139C408.813 207.518 412.271 211.307 411.861 215.981C411.452 220.654 407.332 224.443 402.659 224.443Z" fill="#EDC432"/>
<path d="M397.832 318.816H355.008C350.069 318.816 346.417 314.812 346.849 309.874L349.581 278.64C350.013 273.702 354.367 269.699 359.305 269.699H402.129C407.068 269.699 410.721 273.702 410.288 278.64L407.556 309.874C407.124 314.812 402.771 318.816 397.832 318.816Z" fill="#EDC432"/>
<path d="M377.647 304.787C375.883 304.787 374.576 303.356 374.731 301.591L375.672 290.837C374.439 289.856 373.709 288.299 373.864 286.53C374.124 283.558 376.744 281.149 379.716 281.149C382.687 281.149 384.885 283.558 384.625 286.53C384.471 288.299 383.469 289.855 382.064 290.837L381.124 301.591C380.969 303.356 379.413 304.787 377.647 304.787Z" fill="#232946"/>
<path d="M402.508 276.199H396.989L398.341 260.746C399.155 251.46 392.26 243.905 382.973 243.905C373.688 243.905 365.472 251.46 364.66 260.746L363.307 276.199H357.788L359.14 260.746C360.22 248.417 371.127 238.386 383.456 238.386C395.787 238.386 404.939 248.417 403.861 260.746L402.508 276.199Z" fill="#EDC432"/>
<path d="M432.057 185.017C433.199 185.017 434.047 185.945 433.947 187.088L433.817 188.57H429.677L429.807 187.088C429.907 185.945 430.917 185.017 432.057 185.017ZM434.495 188.57L434.625 187.088C434.757 185.572 433.632 184.338 432.117 184.338C430.601 184.338 429.261 185.572 429.129 187.088L428.999 188.57C428.393 188.572 427.861 189.061 427.808 189.666L427.463 193.609C427.411 194.214 427.859 194.705 428.464 194.705H433.957C434.563 194.705 435.096 194.214 435.149 193.609L435.495 189.666C435.548 189.061 435.1 188.572 434.495 188.57Z" fill="#EDC432"/>
<path d="M351.796 190.15L349.879 189.754C349.652 189.708 349.535 189.469 349.629 189.245L350.428 187.357C350.6 186.952 350.107 186.653 349.796 186.973L348.347 188.465C348.175 188.642 347.899 188.642 347.759 188.465L346.571 186.973C346.315 186.653 345.771 186.952 345.871 187.357L346.339 189.245C346.395 189.469 346.236 189.708 346 189.754L344.013 190.15C343.587 190.236 343.535 190.834 343.945 190.92L345.864 191.316C346.091 191.362 346.208 191.601 346.113 191.825L345.315 193.713C345.143 194.118 345.636 194.418 345.947 194.097L347.396 192.605C347.568 192.428 347.844 192.428 347.984 192.605L349.172 194.097C349.428 194.418 349.972 194.118 349.872 193.713L349.404 191.825C349.348 191.601 349.507 191.362 349.743 191.316L351.729 190.92C352.156 190.834 352.208 190.236 351.796 190.15Z" fill="#1D2A30"/>
<path d="M364.415 190.15L362.496 189.754C362.269 189.708 362.152 189.469 362.247 189.245L363.045 187.357C363.217 186.952 362.724 186.653 362.413 186.973L360.964 188.465C360.792 188.642 360.517 188.642 360.376 188.465L359.188 186.973C358.933 186.653 358.388 186.952 358.488 187.357L358.956 189.245C359.012 189.469 358.853 189.708 358.617 189.754L356.631 190.15C356.204 190.236 356.152 190.834 356.564 190.92L358.481 191.316C358.708 191.362 358.825 191.601 358.731 191.825L357.932 193.713C357.76 194.118 358.253 194.418 358.564 194.097L360.013 192.605C360.185 192.428 360.461 192.428 360.601 192.605L361.789 194.097C362.045 194.418 362.589 194.118 362.489 193.713L362.021 191.825C361.965 191.601 362.124 191.362 362.36 191.316L364.347 190.92C364.773 190.834 364.825 190.236 364.415 190.15Z" fill="#1D2A30"/>
<path d="M377.031 190.15L375.113 189.754C374.887 189.708 374.771 189.469 374.864 189.245L375.664 187.357C375.835 186.952 375.341 186.653 375.031 186.973L373.581 188.465C373.409 188.642 373.135 188.642 372.993 188.465L371.805 186.973C371.551 186.653 371.004 186.952 371.105 187.357L371.573 189.245C371.629 189.469 371.471 189.708 371.235 189.754L369.249 190.15C368.821 190.236 368.769 190.834 369.181 190.92L371.099 191.316C371.325 191.362 371.443 191.601 371.348 191.825L370.549 193.713C370.377 194.118 370.871 194.418 371.181 194.097L372.631 192.605C372.803 192.428 373.079 192.428 373.22 192.605L374.408 194.097C374.663 194.418 375.208 194.118 375.107 193.713L374.639 191.825C374.584 191.601 374.743 191.362 374.977 191.316L376.964 190.92C377.391 190.834 377.444 190.236 377.031 190.15Z" fill="#1D2A30"/>
<path d="M389.649 190.15L387.731 189.754C387.504 189.708 387.388 189.469 387.481 189.245L388.28 187.357C388.452 186.952 387.96 186.653 387.648 186.973L386.199 188.465C386.028 188.642 385.751 188.642 385.611 188.465L384.423 186.973C384.168 186.653 383.623 186.952 383.723 187.357L384.192 189.245C384.247 189.469 384.088 189.708 383.853 189.754L381.865 190.15C381.44 190.236 381.387 190.834 381.799 190.92L383.716 191.316C383.944 191.362 384.06 191.601 383.965 191.825L383.167 193.713C382.996 194.118 383.488 194.418 383.8 194.097L385.249 192.605C385.42 192.428 385.696 192.428 385.837 192.605L387.025 194.097C387.28 194.418 387.825 194.118 387.724 193.713L387.256 191.825C387.2 191.601 387.36 191.362 387.595 191.316L389.581 190.92C390.008 190.834 390.06 190.236 389.649 190.15Z" fill="#1D2A30"/>
<path d="M402.267 190.15L400.349 189.754C400.121 189.708 400.005 189.469 400.1 189.245L400.899 187.357C401.069 186.952 400.577 186.653 400.265 186.973L398.816 188.465C398.644 188.642 398.369 188.642 398.228 188.465L397.04 186.973C396.785 186.653 396.24 186.952 396.34 187.357L396.808 189.245C396.864 189.469 396.705 189.708 396.471 189.754L394.484 190.15C394.056 190.236 394.004 190.834 394.416 190.92L396.333 191.316C396.56 191.362 396.677 191.601 396.584 191.825L395.784 193.713C395.613 194.118 396.105 194.418 396.417 194.097L397.867 192.605C398.037 192.428 398.313 192.428 398.455 192.605L399.643 194.097C399.897 194.418 400.443 194.118 400.341 193.713L399.873 191.825C399.819 191.601 399.977 191.362 400.213 191.316L402.199 190.92C402.625 190.834 402.679 190.236 402.267 190.15Z" fill="#1D2A30"/>
<path d="M414.884 190.15L412.967 189.754C412.74 189.708 412.623 189.469 412.717 189.245L413.516 187.357C413.687 186.952 413.195 186.653 412.884 186.973L411.433 188.465C411.263 188.642 410.987 188.642 410.845 188.465L409.659 186.973C409.403 186.653 408.857 186.952 408.959 187.357L409.427 189.245C409.481 189.469 409.323 189.708 409.088 189.754L407.101 190.15C406.675 190.236 406.621 190.834 407.033 190.92L408.951 191.316C409.179 191.362 409.296 191.601 409.2 191.825L408.403 193.713C408.231 194.118 408.723 194.418 409.035 194.097L410.484 192.605C410.656 192.428 410.931 192.428 411.072 192.605L412.26 194.097C412.515 194.418 413.06 194.118 412.96 193.713L412.492 191.825C412.436 191.601 412.595 191.362 412.831 191.316L414.816 190.92C415.244 190.834 415.296 190.236 414.884 190.15Z" fill="#1D2A30"/>
<path d="M384.471 162.542H360.78C359.307 162.542 358.009 163.734 357.881 165.208C357.752 166.68 358.841 167.873 360.313 167.873H384.004C385.476 167.873 386.775 166.68 386.903 165.208C387.032 163.734 385.943 162.542 384.471 162.542Z" fill="#1D2A30"/>
<path d="M408.52 162.542H394.773C393.301 162.542 392.004 163.734 391.875 165.208C391.747 166.68 392.835 167.873 394.307 167.873H408.053C409.527 167.873 410.824 166.68 410.952 165.208C411.081 163.734 409.992 162.542 408.52 162.542Z" fill="#1D2A30"/>
<path d="M426.668 283.411C417.736 286.978 409.905 292.179 404.545 298.096C401.404 295.422 396.936 293.565 391.58 292.715L390.951 292.614L390.676 295.76L391.027 295.893C396.312 297.891 400.616 301.435 403.471 306.141L403.919 306.881L404.415 306.087C409.908 297.291 417.919 289.925 426.969 285.341L427.276 285.184L427.459 283.095L426.668 283.411Z" fill="#232946"/>
<path d="M291.077 257.514H284.603L285.769 244.18H292.244L291.077 257.514Z" fill="#597EC8"/>
<path d="M346.039 257.514H291.077L292.244 244.18H340.705L352.476 199.056H357.427L358.336 209.643C356.448 211.192 355.145 213.458 354.925 215.982C354.787 217.567 355.093 219.051 355.74 220.319L346.039 257.514ZM355.975 182.132H351.785L351.059 173.67H355.248L355.975 182.132ZM355.916 156.746H349.605L348.987 149.532L354.585 128.068C356.335 131.314 358.532 134.268 361.104 136.855L355.916 156.746Z" fill="#869FD4"/>
<path d="M355.248 173.67H351.059L349.605 156.746H355.916L354.32 162.866L355.248 173.67Z" fill="#CECDCC"/>
<path d="M357.427 199.057H352.476L353.049 196.857L351.785 182.133H355.975L356.661 190.143L356.631 190.15C356.204 190.235 356.152 190.834 356.564 190.919L356.732 190.954L357.427 199.057Z" fill="#CECDCC"/>
<path d="M359.521 81.1309L357.268 54.8829L366.133 20.8909H374.944L362.6 68.2162L363.331 76.7189C361.976 78.1122 360.703 79.5855 359.521 81.1309Z" fill="#869FD4"/>
<path d="M361.104 136.855C358.532 134.269 356.335 131.314 354.585 128.069L361.331 102.207L359.521 81.1314C360.703 79.5861 361.976 78.1128 363.331 76.7195L366.664 115.542L361.104 136.855Z" fill="#CECDCC"/>
<path d="M355.74 220.318C355.093 219.05 354.787 217.566 354.925 215.981C355.145 213.457 356.448 211.192 358.336 209.642L358.383 210.189L355.74 220.318Z" fill="#395EB4"/>
<path d="M356.732 190.953L356.564 190.918C356.152 190.833 356.204 190.234 356.631 190.149L356.661 190.142L356.732 190.953Z" fill="#182124"/>
<path d="M357.268 54.8824L369.611 7.55838H214.245L201.903 54.8824L205.965 102.206L193.621 149.532L197.684 196.856L185.34 244.18H340.705L353.049 196.856L348.987 149.532L361.331 102.206L357.268 54.8824Z" fill="#EDC432"/>
<path d="M353.049 196.855H234.887C234.335 180.286 233.272 161.81 232.5 149.531H348.987L353.049 196.855Z" fill="#C7D9F2"/>
<path d="M361.331 102.207H332.111C336.628 98.0697 339.297 93.467 339.297 85.231V76.6924C339.297 75.7764 338.743 75.0417 337.985 74.7244V71.9951C337.985 70.7631 336.984 69.8591 335.835 69.8591C335.615 69.8591 335.391 69.8911 335.165 69.9617C333.832 70.3791 332.121 70.6297 330.259 70.6297C327.516 70.6297 325.107 70.0857 323.735 69.2684C323.359 69.043 322.945 68.931 322.532 68.931C322.388 68.931 322.244 68.9444 322.101 68.9724C321.836 69.023 321.575 69.1217 321.329 69.2684C319.959 70.0857 317.549 70.6297 314.805 70.6297C314.792 70.6297 314.777 70.6297 314.763 70.6297C312.916 70.6257 311.224 70.3751 309.899 69.9617C309.675 69.8911 309.449 69.8591 309.229 69.8591C308.08 69.8591 307.08 70.7631 307.08 71.9951V73.4404H246.692C243.864 73.4404 241.36 74.827 239.824 76.9577C238.295 75.1884 236.745 73.439 235.163 71.7177L234.008 72.7257C232.795 65.3031 231.083 63.3697 231.083 63.3697C231.083 63.3697 224.895 61.667 218.301 61.0564C217.844 60.007 217.507 58.5604 218.229 57.275C217.344 57.0177 216.024 56.8644 214.463 56.7911C214.329 56.1657 214.259 55.5257 214.239 54.883H357.267L369.611 7.55906L357.268 54.883L361.331 102.207ZM243.364 102.207H234.865C235.029 99.0244 235.127 96.0924 235.167 93.3937C236.936 95.3124 238.727 97.2137 240.531 99.103C241.201 100.36 242.179 101.428 243.364 102.207Z" fill="#C7D9F2"/>
<path d="M357.267 54.8828H214.239C214.195 53.5401 214.368 52.1855 214.655 50.9375C218.956 49.5468 222.359 45.4375 222.532 40.3415C222.788 32.8548 219.383 21.3615 211.164 19.3721L214.245 7.55882H369.611L357.267 54.8828Z" fill="#E4EEF9"/>
<path d="M348.987 149.531H232.5C231.971 141.129 231.579 135.629 231.579 135.629H215.716H197.247C207.585 135.629 222.261 135.629 231.579 135.629C233.392 122.199 234.4 111.198 234.865 102.206H243.364C243.492 102.29 243.623 102.371 243.755 102.447C244.099 102.802 244.443 103.155 244.788 103.509L245.319 104.047C245.528 104.247 245.725 104.455 245.949 104.639C246.392 105.011 246.835 105.381 247.321 105.695C248.269 106.355 249.311 106.87 250.385 107.258C251.896 107.799 253.483 108.07 255.063 108.07C255.736 108.07 256.408 108.021 257.072 107.922C258.18 107.751 259.275 107.47 260.297 107.027C260.816 106.822 261.304 106.555 261.788 106.289C262.032 106.159 262.256 105.998 262.488 105.851C262.689 105.715 263.011 105.506 263.085 105.437L265.433 103.59H316.707C316.859 103.59 317.007 103.575 317.156 103.567C317.897 104.182 318.668 104.794 319.487 105.413C320.465 106.154 321.497 106.907 322.577 107.69C322.952 107.962 323.399 108.099 323.844 108.099C324.291 108.099 324.736 107.962 325.112 107.69C327.759 105.77 330.115 104.034 332.111 102.206H361.331L354.585 128.067L348.987 149.531Z" fill="#E4EEF9"/>
<path d="M340.705 244.18H233.508C234.356 235.834 234.952 228.652 235.132 223.63C235.377 216.749 235.231 207.173 234.887 196.856H353.049L352.476 199.056L340.705 244.18ZM206.621 244.18H195.383C197.916 235.738 199.925 228.482 201.02 223.454C201.089 223.137 201.159 222.813 201.229 222.482C201.229 222.486 201.231 222.492 201.231 222.497C202.349 217.237 203.652 210.256 205.008 202.533C205.137 201.796 205.267 201.056 205.397 200.306C205.801 209.817 206.132 218.724 206.3 225.654C206.412 230.249 206.519 236.69 206.621 244.18Z" fill="#E4EEF9"/>
<path d="M332.111 102.207H324.88C332.897 96.3484 337.985 91.9044 337.985 80.5324V74.7244C338.743 75.0417 339.297 75.7764 339.297 76.6924V85.231C339.297 93.467 336.628 98.0697 332.111 102.207ZM320.185 102.207H267.136C268.347 101.175 269.555 100.051 270.753 98.8924H315.395C315.547 98.8924 315.697 98.8884 315.847 98.8817C317.171 99.9777 318.623 101.066 320.185 102.207ZM243.52 102.207H243.364C242.179 101.428 241.201 100.36 240.531 99.103C241.524 100.142 242.52 101.176 243.52 102.207Z" fill="#9CACD3"/>
<path d="M323.844 108.1C323.399 108.1 322.952 107.962 322.577 107.69C321.497 106.908 320.465 106.154 319.487 105.413C318.668 104.794 317.897 104.182 317.156 103.568C317.007 103.576 316.859 103.59 316.707 103.59H265.433L266.072 103.088C266.428 102.804 266.781 102.509 267.136 102.206H320.185C320.54 102.465 320.899 102.726 321.264 102.992C321.64 103.265 322.087 103.401 322.532 103.401C322.979 103.401 323.424 103.264 323.8 102.992C324.165 102.726 324.525 102.465 324.88 102.206H332.111C330.115 104.034 327.759 105.77 325.112 107.69C324.736 107.962 324.291 108.1 323.844 108.1ZM243.755 102.448C243.623 102.372 243.492 102.29 243.364 102.206H243.52C243.599 102.288 243.677 102.368 243.755 102.448Z" fill="#B5BCCF"/>
<path d="M315.395 98.8926H246.692C242.019 98.8926 238.229 95.1046 238.229 90.4312V81.9019C238.229 77.2286 242.019 73.4406 246.692 73.4406H315.395C320.068 73.4406 323.857 77.2286 323.857 81.9019V90.4312C323.857 95.1046 320.068 98.8926 315.395 98.8926Z" fill="#EDC432"/>
<path d="M330.259 70.6287C327.516 70.6287 325.107 70.0847 323.735 69.2674C322.981 68.8181 322.083 68.8181 321.329 69.2674C319.959 70.0847 317.549 70.6287 314.805 70.6287C312.943 70.6287 311.233 70.3781 309.899 69.9607C308.5 69.5234 307.08 70.5274 307.08 71.9941V80.5314C307.08 92.4047 312.627 96.7261 321.264 102.991C322.016 103.537 323.048 103.537 323.8 102.991C332.439 96.7261 337.985 92.4047 337.985 80.5314V71.9941C337.985 70.5274 336.565 69.5234 335.165 69.9607C333.832 70.3781 332.121 70.6287 330.259 70.6287Z" fill="#EDC432"/>
<path d="M322.532 103.402V68.9317C322.945 68.9317 323.359 69.0437 323.735 69.269C325.107 70.0863 327.516 70.6304 330.259 70.6304C332.121 70.6304 333.832 70.3797 335.165 69.9624C335.391 69.8917 335.615 69.8597 335.835 69.8597C336.984 69.8597 337.985 70.7637 337.985 71.9957V80.533C337.985 92.4063 332.439 96.7277 323.8 102.993C323.424 103.265 322.979 103.402 322.532 103.402Z" fill="#799BD7"/>
<path d="M322.532 103.402C322.087 103.402 321.64 103.266 321.264 102.993C321.64 103.265 322.087 103.402 322.532 103.402Z" fill="#C5C9D8"/>
<path d="M314.763 70.6289C312.916 70.6249 311.223 70.3742 309.899 69.9609C311.224 70.3742 312.916 70.6249 314.763 70.6289Z" fill="#D4E1F5"/>
<path d="M322.532 103.402C322.087 103.402 321.64 103.265 321.264 102.993C319.287 101.558 317.472 100.226 315.847 98.8823C310.377 94.353 307.08 89.6877 307.08 80.533V71.9957C307.08 70.7637 308.08 69.8597 309.229 69.8597C309.449 69.8597 309.675 69.8917 309.899 69.9624C311.223 70.3757 312.916 70.6264 314.763 70.6304C314.777 70.6304 314.792 70.6304 314.805 70.6304C317.549 70.6304 319.959 70.0863 321.329 69.269C321.575 69.1223 321.836 69.0237 322.101 68.973C322.244 68.945 322.388 68.9317 322.532 68.9317V103.402Z" fill="#96B3E2"/>
<path d="M334.916 78.2023C329.333 80.5117 324.556 83.881 321.42 87.713C319.233 85.981 316.235 84.7784 312.717 84.2277L312.305 84.1637V86.201L312.54 86.2864C316.076 87.581 319.064 89.8757 321.179 92.9224L321.512 93.4023L321.788 92.8877C324.848 87.1917 329.617 82.4197 335.22 79.4517L335.409 79.3517V77.997L334.916 78.2023Z" fill="#1D2A30"/>
<path d="M366.868 20.8672H360.973C357.704 20.8672 355.287 18.2179 355.572 14.9472L356.088 9.05387C356.375 5.78454 359.256 3.13519 362.525 3.13519H368.419C371.688 3.13519 374.107 5.78454 373.82 9.05387L373.305 14.9472C373.019 18.2179 370.137 20.8672 366.868 20.8672Z" fill="#EDC432"/>
<path d="M369.317 9.04059L368.039 7.63792L364.819 10.5993L362.117 7.63792L360.592 9.04059L363.295 12.0019L360.075 14.9619L361.355 16.3633L364.573 13.4033L367.275 16.3633L368.8 14.9619L366.099 12.0019L369.317 9.04059Z" fill="white"/>
<path d="M235.163 71.7167C238.58 75.4327 241.844 79.282 245.068 83.1673C248.296 87.0487 251.445 90.9993 254.555 94.9833C254.691 95.158 254.636 95.0873 254.668 95.138L254.705 95.2167L254.799 95.354L255.039 95.6167C255.228 95.786 255.487 95.9153 255.776 95.9673C255.917 95.99 256.069 96.01 256.223 95.994L256.465 95.9767L256.588 95.9487C256.611 95.938 256.621 95.9393 256.632 95.9393C256.653 95.9407 256.676 95.942 256.797 95.87L260.136 94.0594C264.617 91.6887 269.132 89.3687 273.804 87.2874L277.708 92.122C273.945 95.5847 270.025 99.914 266.072 103.087L263.085 105.437C263.011 105.506 262.689 105.715 262.488 105.851C262.256 105.998 262.032 106.159 261.788 106.289C261.304 106.555 260.816 106.822 260.297 107.027C259.275 107.47 258.18 107.751 257.072 107.922C254.849 108.253 252.54 108.03 250.385 107.258C249.311 106.87 248.269 106.355 247.321 105.695C246.835 105.381 246.392 105.011 245.949 104.639C245.725 104.455 245.528 104.247 245.319 104.047L244.788 103.509C241.259 99.89 237.771 96.2367 234.36 92.5153C230.945 88.7953 227.573 85.0407 224.352 81.1527L235.163 71.7167Z" fill="#D04648"/>
<path d="M271.987 90.2356L275.096 80.2516L283.277 84.329C283.277 84.329 282.085 91.613 276.129 92.877L271.987 90.2356Z" fill="#D04648"/>
<path d="M278.377 77.4841L285.756 79.5148L283.277 84.3281L275.096 80.2508L278.377 77.4841Z" fill="#D04648"/>
<path d="M192.125 74.4366C191.235 78.678 190.147 82.8726 189.007 87.054C187.872 91.2366 186.635 95.394 185.345 99.5393L184.865 101.094L184.625 101.873C184.575 102.042 184.543 102.083 184.496 102.198C184.349 102.591 184.261 103.018 184.244 103.466C184.221 104.354 184.432 105.342 185.012 106.199C185.06 106.338 185.521 106.821 185.879 107.21L186.987 108.414L189.168 110.858C190.607 112.507 192.037 114.162 193.397 115.902L188.751 121.279C186.833 120.187 184.987 119.011 183.147 117.829L180.411 116.025L179.06 115.105C178.6 114.783 178.229 114.57 177.495 113.961C174.959 111.81 173.064 108.757 172.369 105.365C172.015 103.674 171.928 101.909 172.125 100.163C172.177 99.7459 172.256 99.2566 172.32 98.8979L172.461 98.0966L172.745 96.494C173.492 92.218 174.291 87.9526 175.191 83.714C176.085 79.474 177.033 75.2459 178.179 71.0659L192.125 74.4366Z" fill="#D04648"/>
<path d="M188.833 115.52L194.335 112.708L196.761 122.057C196.761 122.057 192.345 123.751 188.929 121.577L188.833 115.52Z" fill="#D04648"/>
<path d="M201.936 109.717L202.185 118.295L196.043 122.312L193.912 112.89L201.936 109.717Z" fill="#D04648"/>
<path d="M219.923 30.3504C220.057 31.0117 220.516 31.4757 220.948 31.3877C221.38 31.3011 221.621 30.693 221.487 30.033C221.353 29.3717 220.893 28.9077 220.463 28.9957C220.029 29.0824 219.789 29.6904 219.923 30.3504Z" fill="#1D2A30"/>
<path d="M220.456 31.4889C220.456 31.4889 222.733 34.9968 224.761 36.4995C223.813 37.8288 221.724 37.7328 221.724 37.7328L220.456 31.4889Z" fill="#BB2024"/>
<path d="M216.757 27.1738L216.489 27.0685C216.328 26.9192 216.319 26.6698 216.468 26.5085C217.955 24.8992 219.759 25.1858 219.836 25.1978C220.052 25.2352 220.196 25.4405 220.16 25.6552C220.123 25.8712 219.916 26.0138 219.705 25.9792C219.645 25.9698 218.235 25.7632 217.048 27.0472L216.757 27.1738Z" fill="#1D2A30"/>
<path d="M200.695 39.6453C202.165 45.7613 203.633 56.9679 198.384 61.0493C198.384 61.0493 200.435 67.252 214.377 67.252C229.709 67.252 221.704 63.256 221.704 63.256C213.337 61.628 213.553 54.3599 215.011 49.6093L200.695 39.6453Z" fill="#D04648"/>
<path d="M196.751 62.1831C195.837 60.4844 194.832 58.5391 196.912 57.9298C199.201 57.2604 213.909 56.0177 218.229 57.2751C216.903 59.6364 219.149 62.5391 219.149 62.5391L196.751 62.1831Z" fill="#1D2A30"/>
<path d="M208.928 348.285H218.548L219.505 328.925H209.885L208.928 348.285Z" fill="#D04648"/>
<path d="M147.884 345.617L157.628 346.133L163.548 327.058L153.804 326.544L147.884 345.617Z" fill="#D04648"/>
<path d="M157.329 345.363L148.149 343.375C147.816 343.303 147.476 343.472 147.333 343.781L144.147 350.696C143.816 351.413 144.253 352.254 145.028 352.408C148.245 353.046 149.843 353.196 153.88 354.069C156.363 354.608 161.969 355.973 165.399 356.716C168.753 357.442 170.011 354.164 168.673 353.553C162.676 350.813 160.171 348.4 158.547 346.152C158.255 345.746 157.817 345.468 157.329 345.363Z" fill="#1D2A30"/>
<path d="M218.039 347.316H208.909C208.567 347.316 208.272 347.554 208.197 347.887L206.545 355.319C206.375 356.088 206.96 356.819 207.749 356.806C211.041 356.75 215.801 356.556 219.94 356.556C224.78 356.556 228.96 356.82 234.636 356.82C238.068 356.82 239.021 353.351 237.584 353.036C231.044 351.606 225.704 351.452 220.053 347.968C219.439 347.59 218.76 347.316 218.039 347.316Z" fill="#1D2A30"/>
<path d="M180.967 63.8754C173.707 67.3274 171.733 88.2541 171.733 88.2541L189.693 96.5527C189.693 96.5527 194.151 89.9861 194.492 79.6607C194.851 68.8421 188.389 60.3461 180.967 63.8754Z" fill="#1D2A30"/>
<path d="M231.083 63.3689C231.083 63.3689 239.981 73.4196 231.579 135.629C218.105 135.629 193.419 135.629 186.863 135.629C186.555 128.765 190.868 95.2809 184.248 62.9382C184.248 62.9382 191.912 61.3996 199.216 61.0489C204.929 60.7729 213.201 60.5902 218.224 61.0489C224.847 61.6529 231.083 63.3689 231.083 63.3689Z" fill="#EDC432"/>
<mask id="mask0_1149_1672" style="mask-type:luminance" maskUnits="userSpaceOnUse" x="184" y="60" width="52" height="76">
<path d="M231.579 135.629C218.105 135.629 193.419 135.629 186.863 135.629C186.852 135.388 186.847 135.114 186.847 134.808C186.845 130.253 187.96 118.672 187.961 104.046C187.961 91.7129 187.169 77.2142 184.248 62.9382C184.248 62.9382 191.912 61.3996 199.216 61.0489C202.411 60.8942 206.407 60.7689 210.187 60.7689C213.165 60.7689 216.009 60.8476 218.224 61.0489C224.847 61.6529 231.083 63.3689 231.083 63.3689C231.083 63.3689 234.163 66.8476 234.988 82.3782L234.821 82.2342L225.928 77.4836C225.025 91.1756 231.145 99.7596 234.787 103.516C235.091 98.1916 235.207 93.5502 235.187 89.5089C235.188 89.8262 235.188 90.1462 235.188 90.4716C235.189 91.4142 235.181 92.3863 235.167 93.3929C235.012 103.716 234.035 117.445 231.579 135.629Z" fill="white"/>
</mask>
<g mask="url(#mask0_1149_1672)">
<path d="M184.248 135.629H235.207V60.769H184.248V135.629Z" fill="#B1C7EB"/>
</g>
<path d="M235.187 89.5098C235.172 86.8898 235.101 84.5191 234.988 82.3791L234.992 82.3831C235.104 84.5218 235.173 86.8898 235.187 89.5098Z" fill="#A4383A"/>
<path d="M234.787 103.516C231.145 99.7596 225.025 91.1756 225.928 77.4836L234.821 82.2343L234.988 82.3783C235.101 84.5183 235.172 86.889 235.187 89.509C235.207 93.5503 235.091 98.1916 234.787 103.516Z" fill="#889DD2"/>
<path d="M209.392 338.908H209.388L209.472 337.215H209.476L209.392 338.908Z" fill="#CECDCC"/>
<path d="M219.012 338.908H209.392L209.476 337.215H219.095L219.017 338.8L219.012 338.908Z" fill="#A4383A"/>
<path d="M150.752 336.381H150.744L151.553 333.777L151.559 333.778L150.752 336.381Z" fill="#CECDCC"/>
<path d="M160.492 336.895L150.752 336.38L151.559 333.777L160.836 335.785L160.492 336.895Z" fill="#A4383A"/>
<path d="M197.599 33.4286C199.747 41.4432 200.596 46.2432 205.541 49.5752C212.98 54.5886 222.243 48.8352 222.532 40.3406C222.793 32.6952 219.237 20.8739 210.637 19.2579C202.164 17.6672 195.451 25.4152 197.599 33.4286Z" fill="#D04648"/>
<path d="M215.716 135.629C215.716 135.629 206.228 199.518 201.02 223.454C195.316 249.665 164.732 336.385 164.732 336.385L149.767 333.145C149.767 333.145 168.944 262.474 173.732 225.83C175.6 211.53 177.856 188.481 180.708 169.261C183.471 150.649 186.863 135.629 186.863 135.629H215.716Z" fill="#1D2A30"/>
<path d="M168.315 331.387L165.527 336.801L148.688 333.155L150.108 328.094L168.315 331.387Z" fill="#EDC432"/>
<path d="M165.527 336.801L160.836 335.785L151.559 333.777L148.688 333.155L150.108 328.094L168.315 331.387L165.527 336.801Z" fill="#B4CAEC"/>
<path d="M201.231 222.498C201.231 222.493 201.229 222.487 201.229 222.483C202.349 217.222 203.652 210.247 205.008 202.534C203.652 210.257 202.349 217.238 201.231 222.498Z" fill="#505763"/>
<path d="M201.229 222.482C200.225 206.462 199.313 178.945 203.773 165.766C204.317 176.546 204.911 188.86 205.397 200.305C205.267 201.054 205.137 201.796 205.008 202.533C203.652 210.246 202.349 217.221 201.229 222.482Z" fill="#141414"/>
<path d="M231.579 135.63C231.579 135.63 236.041 198.137 235.132 223.631C234.185 250.15 221.612 336.977 221.612 336.977H207.449C207.449 336.977 206.931 251.698 206.3 225.655C205.613 197.263 202.185 135.63 202.185 135.63H231.579Z" fill="#1D2A30"/>
<path d="M224.337 331.335L223.539 337.215H206.311L205.845 331.966L224.337 331.335Z" fill="#EDC432"/>
<path d="M223.539 337.215H206.311L205.845 331.966L224.337 331.335L224.173 332.54L224.128 332.873L223.539 337.215Z" fill="#B4CAEC"/>
<path d="M225.865 75.0798C225.865 91.8544 234.792 98.7598 234.792 98.7598L249.301 84.5757C249.301 84.5757 244.368 76.0757 237.583 68.2731C229.201 58.6344 225.865 64.2918 225.865 75.0798Z" fill="#1D2A30"/>
<path d="M214.72 50.9141L214.676 50.8581C214.676 50.8581 214.723 47.8581 218.264 46.8434C220.691 46.1487 221.657 44.4074 222.025 43.3794C220.911 47.0061 218.097 49.7981 214.72 50.9141Z" fill="#A4383A"/>
<path d="M218.264 17.5009C221.253 13.7316 216.653 13.5516 216.653 13.5516C217.848 9.0529 212.469 11.4742 212.469 11.4742C209.24 7.02223 207.419 12.4409 207.419 12.4409C204.069 8.66889 203.453 14.8315 203.453 14.8315C200.095 10.0489 198.384 16.9462 198.384 16.9462C195.291 11.9796 193.397 18.4516 193.397 18.4516C187.012 16.1649 190.047 22.8022 190.047 22.8022C184.593 22.9556 188.968 27.1729 188.968 27.1729C182.437 27.1889 188.196 30.9289 188.196 30.9289C183.009 34.3316 189.52 35.2476 189.52 35.2476C185.289 41.8649 192.556 39.4102 192.556 39.4102C189.612 45.9596 196.139 43.0742 196.139 43.0742C195.716 49.3942 199.365 47.6742 201.12 46.5036C201.46 47.7756 202.091 49.1249 203.264 49.2782C205.541 49.5756 205.984 45.2769 205.984 45.2769C205.984 45.2769 208.099 46.9209 209.869 46.0302C211.641 45.1395 210.973 42.8862 210.973 42.8862C210.973 42.8862 212.331 43.8969 213.572 42.9315C214.333 42.3409 214.336 38.0969 213.368 36.6049L216.839 35.2476C216.839 35.2476 219.415 34.8836 218.264 31.4876C217.113 28.0929 218.088 25.4129 218.088 25.4129C222.007 23.5756 218.792 21.3689 218.792 21.3689C223.323 18.4329 218.264 17.5009 218.264 17.5009Z" fill="#1D2A30"/>
<path d="M211.233 33.7652C211.779 35.8692 213.161 37.6785 214.608 38.7545C216.783 40.3732 218.408 38.7798 218.253 36.3172C218.115 34.1012 216.815 30.5892 214.415 29.9318C212.051 29.2852 210.611 31.3598 211.233 33.7652Z" fill="#D04648"/>
</svg>
