<svg width="35" height="35" viewBox="0 0 35 35" fill="none" xmlns="http://www.w3.org/2000/svg">
<circle cx="17.0066" cy="17.0066" r="16.5066" fill="white" stroke="#D9D9D9"/>
<path d="M11.7143 26C11.2429 26 10.8394 25.8343 10.504 25.5028C10.168 25.1707 10 24.7718 10 24.3059V10.7529C10 10.2871 10.168 9.88809 10.504 9.55605C10.8394 9.22456 11.2429 9.05882 11.7143 9.05882H19.4286L17.7143 10.7529H11.7143V24.3059H21.1429V21.7647H22.8571V24.3059C22.8571 24.7718 22.6894 25.1707 22.354 25.5028C22.018 25.8343 21.6143 26 21.1429 26H11.7143ZM13.4286 22.6118V20.9176H19.4286V22.6118H13.4286ZM13.4286 20.0706V18.3765H17.7143V20.0706H13.4286ZM21.1429 20.0706L17.7143 16.6824H15.1429V12.4471H17.7143L21.1429 9.05882V20.0706ZM22.8571 17.4871V11.6424C23.3714 11.9388 23.7857 12.3412 24.1 12.8494C24.4143 13.3576 24.5714 13.9294 24.5714 14.5647C24.5714 15.2 24.4143 15.7718 24.1 16.28C23.7857 16.7882 23.3714 17.1906 22.8571 17.4871ZM22.8571 21.1294V19.3506C23.8571 18.9976 24.6786 18.3869 25.3214 17.5184C25.9643 16.6504 26.2857 15.6659 26.2857 14.5647C26.2857 13.4635 25.9643 12.4787 25.3214 11.6102C24.6786 10.7422 23.8571 10.1318 22.8571 9.77882V8C24.3429 8.38118 25.5714 9.17515 26.5429 10.3819C27.5143 11.5893 28 12.9835 28 14.5647C28 16.1459 27.5143 17.5401 26.5429 18.7475C25.5714 19.9543 24.3429 20.7482 22.8571 21.1294Z" fill="#7F5283"/>
</svg>
